<svg width="111" height="160" viewBox="0 0 111 160" fill="none" xmlns="http://www.w3.org/2000/svg">
<path d="M42.8659 149.789H67.3264C67.3264 152.272 66.3091 154.653 64.4984 156.409C62.6876 158.165 60.2317 159.151 57.6709 159.151H52.5213C49.9605 159.151 47.5046 158.165 45.6939 156.409C43.8831 154.653 42.8658 152.272 42.8658 149.789H42.8659Z" fill="#3F3D56"/>
<path d="M73.0417 128.827V120.127C73.0417 109.614 84.8334 99.6703 92.4827 92.5758C103.265 82.5813 108.933 69.1537 108.933 53.4242C108.933 39.6044 103.281 26.3486 93.217 16.563C83.153 6.77736 69.4979 1.26057 55.2455 1.22213C40.9931 1.18368 27.3065 6.62673 17.1865 16.3579C7.06647 26.089 1.33889 39.3142 1.25949 53.1337C1.25921 53.2306 1.25921 53.3274 1.25949 53.4242C1.25949 68.5918 7.1703 82.9293 17.7096 92.5758C25.3177 99.5398 37.1506 109.505 37.1506 120.127V128.827" fill="#F9F871"/>
<path d="M73.0417 130.049C72.8764 130.049 72.7126 130.017 72.5598 129.956C72.407 129.894 72.2681 129.804 72.1512 129.691C72.0342 129.577 71.9415 129.443 71.8782 129.295C71.8149 129.146 71.7823 128.988 71.7823 128.827V120.127C71.7823 109.899 82.1848 100.352 89.7804 93.3806C90.4107 92.8018 91.0236 92.2394 91.6121 91.6936C102.119 81.9536 107.673 68.7204 107.673 53.4243C107.673 24.8367 84.5788 2.4431 55.0962 2.4431C55.0468 2.4429 54.9972 2.4429 54.9478 2.4429C41.073 2.458 27.7689 7.79931 17.9442 17.299C8.11944 26.7986 2.57347 39.6838 2.51883 53.1372V53.4216C2.51883 68.4021 8.37067 82.3487 18.5741 91.688C19.091 92.1614 19.6279 92.6488 20.1791 93.1488C27.8729 100.134 38.41 109.699 38.41 120.127V128.827C38.41 129.151 38.2773 129.462 38.0411 129.691C37.8049 129.92 37.4846 130.048 37.1506 130.048C36.8166 130.048 36.4962 129.92 36.26 129.691C36.0239 129.462 35.8912 129.151 35.8912 128.827V120.127C35.8912 110.759 25.8149 101.611 18.4576 94.9317C17.9038 94.4293 17.3645 93.9395 16.845 93.4641C6.13984 83.6652 0 69.0714 0 53.4242V53.1313C0.0844561 23.8047 24.72 0.000518893 54.9441 0.000518893C54.9978 0.000518893 55.0461 0.000518193 55.0996 0.000717652C62.3453 -0.035793 69.5266 1.32115 76.2279 3.99305C82.9293 6.66494 89.0178 10.5988 94.1412 15.5669C99.2645 20.5351 103.321 26.439 106.076 32.9371C108.831 39.4352 110.23 46.3985 110.192 53.4242C110.192 69.4033 104.369 83.2471 93.353 93.4589C92.7616 94.0071 92.1454 94.5728 91.5118 95.1543C84.2485 101.821 74.3011 110.951 74.3011 120.127V128.827C74.3012 128.988 74.2686 129.146 74.2053 129.295C74.142 129.443 74.0492 129.577 73.9323 129.691C73.8154 129.804 73.6765 129.894 73.5237 129.956C73.3709 130.017 73.2071 130.049 73.0417 130.049Z" fill="#3F3D56"/>
<path d="M67.0597 145.718H43.1323C42.5756 145.718 42.0417 145.504 41.6481 145.122C41.2545 144.74 41.0333 144.223 41.0333 143.683C41.0333 143.143 41.2545 142.626 41.6481 142.244C42.0417 141.862 42.5756 141.648 43.1323 141.648H67.0597C67.6164 141.648 68.1503 141.862 68.5439 142.244C68.9376 142.626 69.1587 143.143 69.1587 143.683C69.1587 144.223 68.9376 144.74 68.5439 145.122C68.1503 145.504 67.6164 145.718 67.0597 145.718Z" fill="#F9F871"/>
<path d="M73.0418 138.494H37.1506C36.5939 138.494 36.06 138.28 35.6664 137.898C35.2727 137.516 35.0516 136.999 35.0516 136.459C35.0516 135.919 35.2727 135.401 35.6664 135.02C36.06 134.638 36.5939 134.424 37.1506 134.424H73.0418C73.5984 134.424 74.1323 134.638 74.526 135.02C74.9196 135.401 75.1408 135.919 75.1408 136.459C75.1408 136.999 74.9196 137.516 74.526 137.898C74.1323 138.28 73.5984 138.494 73.0418 138.494Z" fill="#F9F871"/>
<path d="M55.0962 130.863C54.8206 130.863 54.5476 130.81 54.2929 130.708C54.0383 130.605 53.8069 130.455 53.612 130.266C53.4171 130.077 53.2624 129.853 53.157 129.606C53.0515 129.359 52.9972 129.095 52.9972 128.827V82.4253C52.9972 81.8855 53.2183 81.3678 53.612 80.9861C54.0056 80.6044 54.5395 80.39 55.0962 80.39C55.6529 80.39 56.1868 80.6044 56.5804 80.9861C56.9741 81.3678 57.1952 81.8855 57.1952 82.4253V128.827C57.1952 129.095 57.1409 129.359 57.0355 129.606C56.93 129.853 56.7754 130.077 56.5804 130.266C56.3855 130.455 56.1541 130.605 55.8995 130.708C55.6448 130.81 55.3719 130.863 55.0962 130.863Z" fill="white"/>
<path d="M55.0962 84.4606C48.3141 84.4606 39.9875 78.5113 39.6364 78.2581C39.4152 78.0986 39.2287 77.8983 39.0873 77.6689C38.9459 77.4394 38.8525 77.1852 38.8125 76.9208C38.7724 76.6563 38.7865 76.3868 38.8539 76.1277C38.9212 75.8685 39.0406 75.6247 39.2051 75.4103C39.3697 75.1958 39.5761 75.0149 39.8128 74.8778C40.0494 74.7407 40.3116 74.6502 40.5843 74.6114C40.857 74.5725 41.135 74.5862 41.4023 74.6515C41.6695 74.7168 41.9209 74.8325 42.1421 74.9921C44.2282 76.4929 50.6243 80.39 55.0962 80.39C59.5681 80.39 65.9641 76.4929 68.0512 74.9913C68.2725 74.8318 68.5239 74.7162 68.7912 74.6509C69.0585 74.5857 69.3365 74.5721 69.6092 74.611C69.8819 74.65 70.1441 74.7406 70.3807 74.8777C70.6173 75.0149 70.8237 75.1959 70.9881 75.4104C71.1526 75.6249 71.2719 75.8687 71.3391 76.1279C71.4064 76.3871 71.4204 76.6566 71.3803 76.921C71.3401 77.1855 71.2467 77.4396 71.1052 77.6691C70.9638 77.8985 70.7771 78.0986 70.5559 78.2581C70.2048 78.5113 61.8782 84.4606 55.0962 84.4606Z" fill="white"/>
</svg>
