<svg width="302" height="130" viewBox="0 0 302 130" fill="none" xmlns="http://www.w3.org/2000/svg">
<g filter="url(#filter0_d)">
<path d="M86.3158 119.304L7.8776 12.9681C5.44263 9.66707 7.79941 5 11.9013 5H37.4333C39.1063 5 40.6685 5.83679 41.5955 7.22954L85.8906 73.7773C87.9842 76.9227 92.6759 76.6986 94.4602 73.3681L129.674 7.63882C130.544 6.01408 132.238 5 134.081 5H162.241C166.25 5 168.628 9.48021 166.383 12.8007L94.4815 119.137C92.5475 121.997 88.3654 122.083 86.3158 119.304Z" fill="#42929D" stroke="black" stroke-width="3"/>
<path d="M96.2451 84.7348L102.509 87.6546C105.08 88.8532 106.668 91.0869 106.668 93.5064C106.668 97.2272 102.977 100.243 98.4248 100.243L90.826 100.242C90.826 100.242 95.5861 97.8331 95.5861 92.3713L95.5869 92.3706L96.2451 84.7348Z" fill="#E5011E"/>
<path d="M82.597 81.1581L83.1552 102.935C83.2175 105.362 85.9212 107.304 89.2351 107.304C92.5489 107.304 95.2528 105.362 95.315 102.935L95.3835 100.243L97.0923 33.7814L97.1826 30.0891C97.1867 30.0077 97.1888 29.928 97.1888 29.8466C97.1888 26.6495 93.6447 24.0292 89.2351 24.0292C84.7155 24.0292 81.1028 26.7836 81.2875 30.0891L81.3372 32.0124L82.597 81.1581Z" fill="#E5011E"/>
<path d="M81.9272 55.0123C76.6877 53.1314 72.9172 48.9507 72.6287 43.961C72.3485 39.1137 75.4259 34.7736 80.184 32.4416C80.5576 32.2584 80.9455 32.1159 81.3378 32.0125C81.9001 31.8615 82.475 31.7902 83.0435 31.7902C85.6289 31.7902 88.0796 33.2658 88.6379 35.5452C89.1339 37.5752 87.9261 39.6224 85.683 40.5857C85.6664 40.5925 85.6478 40.6009 85.6312 40.6077C83.1369 41.6949 81.6429 43.8692 81.701 46.1791L81.8462 51.8353L81.9272 55.0123Z" fill="#E5011E"/>
<path d="M96.5473 54.8743L96.3421 62.8835L78.8465 66.0615C74.5703 66.8383 71.528 69.9384 71.528 73.5186C71.528 77.7375 75.7124 81.1576 80.8743 81.1576H82.5971L82.3838 72.839L99.4308 69.6352C103.584 68.8547 106.528 65.833 106.528 62.3498C106.528 58.2211 102.433 54.8743 97.3813 54.8743H96.5473Z" fill="#E5011E"/>
<path d="M97.6517 43.0016C98.7155 42.6576 99.2366 41.6739 98.8157 40.8045C98.3947 39.935 97.1912 39.5091 96.1275 39.8532C95.0637 40.1972 94.5426 41.1809 94.9636 42.0503C95.3845 42.9197 96.588 43.3456 97.6517 43.0016Z" fill="black"/>
<path d="M82.1056 38.3998C83.2494 38.3998 84.1766 37.6419 84.1766 36.7071C84.1766 35.7722 83.2494 35.0143 82.1056 35.0143C80.9618 35.0143 80.0345 35.7722 80.0345 36.7071C80.0345 37.6419 80.9618 38.3998 82.1056 38.3998Z" fill="black"/>
<path d="M103.537 86.1811L97.8887 83.5482L98.1946 71.6081L99.8961 71.2883C105.023 70.3248 108.603 66.6493 108.603 62.35C108.603 57.6478 104.25 53.7628 98.6655 53.2401L98.7736 49.018C98.7975 48.0814 97.8883 47.3063 96.7424 47.2869C95.5928 47.2606 94.6482 48.0107 94.6244 48.9471L94.4736 54.832C94.4736 54.8343 94.473 54.8365 94.473 54.8389L94.3017 61.517L84.2163 63.349L83.7758 46.1445C83.7333 44.4585 84.845 42.8728 86.6077 42.1045L86.6207 42.0989C86.63 42.095 86.6391 42.0911 86.6483 42.0874C89.6877 40.782 91.3426 37.9553 90.6727 35.2126C89.9675 32.333 86.922 30.2205 83.3638 30.1003C83.3632 30.0709 83.3626 30.0414 83.3609 30.0121C83.3046 29.006 83.7766 28.0217 84.6901 27.2403C85.8153 26.2778 87.4719 25.7257 89.2356 25.7257C92.4771 25.7257 95.1144 27.5744 95.1144 29.8469C95.1144 29.9166 95.0183 33.7479 95.0183 33.7479C94.9955 34.6794 95.9339 35.4672 97.0727 35.4777C98.1954 35.488 99.1454 34.7322 99.1678 33.8158C99.1678 33.8158 99.2647 29.9458 99.2647 29.8471C99.2645 25.7038 94.7656 22.3333 89.2356 22.3333C86.3442 22.3333 83.5937 23.2677 81.6894 24.8969C79.992 26.3491 79.1135 28.2118 79.2139 30.1443C79.2176 30.2914 79.2216 30.4387 79.2253 30.5858C79.2274 30.6663 79.2321 30.851 79.2321 30.851C79.2321 30.851 79.2541 30.9197 79.1168 30.9869C73.5292 33.7256 70.2489 38.7275 70.5558 44.0408C70.8526 49.178 74.3868 53.6995 79.8789 56.0846L80.0844 64.0992L78.3965 64.4057C73.1307 65.3623 69.453 69.1096 69.453 73.5184C69.453 78.581 74.41 82.712 80.5648 82.847L81.0807 102.97C81.1663 106.295 84.8243 109 89.2356 109C93.6468 109 97.3049 106.295 97.3902 102.97L97.4165 101.939H98.4251H98.4261C101.182 101.939 103.772 101.062 105.721 99.4692C107.67 97.8765 108.743 95.7588 108.743 93.5061C108.743 90.4846 106.749 87.6779 103.537 86.1811V86.1811ZM74.7016 43.881C74.4667 39.8173 76.9764 35.9913 81.2516 33.896C81.7896 33.6321 82.4157 33.4864 83.0436 33.4864C84.5215 33.4864 86.2187 34.308 86.6031 35.8773C86.9202 37.1753 86.1626 38.4641 84.7179 39.0845L84.694 39.0948C84.6808 39.1003 84.6677 39.1059 84.6549 39.1114C81.478 40.4962 79.5513 43.2178 79.6267 46.2151L79.775 51.9931C76.7635 50.0457 74.889 47.1237 74.7016 43.881V43.881ZM73.6033 73.5186C73.6033 70.7118 75.9446 68.3261 79.297 67.7172L82.6553 67.1071H82.6555L96.7925 64.5393C97.7261 64.3699 98.3969 63.7007 98.417 62.9192L98.5775 56.6531C101.909 57.119 104.453 59.4962 104.453 62.35C104.453 65.0591 102.196 67.3753 98.966 67.9824L95.7779 68.5817C95.7433 68.5867 95.7102 68.5944 95.6762 68.6008L81.9189 71.1862C80.9606 71.3663 80.2886 72.0712 80.3093 72.8747L80.4779 79.4531C76.6525 79.2838 73.6033 76.6867 73.6033 73.5186V73.5186ZM93.2409 102.899C93.2026 104.393 91.4058 105.608 89.2356 105.608C87.0654 105.608 85.2685 104.393 85.2302 102.899L84.494 74.1827L94.0234 72.3918L93.5126 92.3297C93.511 92.3571 93.5126 92.3021 93.5126 92.3297C93.5126 94.1664 92.8853 95.8402 91.6502 97.223C90.7052 98.2811 89.7334 98.8002 89.7339 98.8002C88.9454 99.1994 88.5766 99.9773 88.8305 100.706C89.0842 101.435 89.8987 101.938 90.8261 101.938L93.2652 101.938L93.2409 102.899ZM102.787 97.0706C101.622 98.0226 100.073 98.5468 98.4263 98.5468C98.4261 98.5468 98.4259 98.5468 98.4257 98.5468L95.5619 98.5467C96.6923 97.0688 97.6497 95.0448 97.6617 92.4214C97.6619 92.4163 97.6619 92.4113 97.6621 92.4062L97.7901 87.4071L101.481 89.1276C103.401 90.0223 104.593 91.7002 104.593 93.5063C104.593 94.8527 103.952 96.1186 102.787 97.0706V97.0706Z" fill="black"/>
<path d="M144.541 60.76V55.88H151.541V60.76H144.541ZM144.541 92V62.72H151.541V92H144.541ZM160.347 92.32C158.507 92.32 157.241 91.9333 156.547 91.16C155.854 90.3867 155.507 89.1467 155.507 87.44V69.16H153.547V63.84H155.507V57.64H162.307V63.84H164.307V69.16H162.307V85.6C162.307 86.1067 162.347 86.48 162.427 86.72C162.507 86.96 162.721 87.08 163.067 87.08C163.334 87.08 163.587 87.0667 163.827 87.04C164.067 87.0133 164.227 87 164.307 87V91.8C163.907 91.9067 163.321 92.0133 162.547 92.12C161.801 92.2533 161.067 92.32 160.347 92.32ZM171.815 92.32C169.548 92.32 167.988 91.5733 167.135 90.08C166.308 88.56 165.895 86.4 165.895 83.6C165.895 81.3067 166.188 79.5467 166.775 78.32C167.388 77.0933 168.228 76.2 169.295 75.64C170.362 75.0533 171.988 74.4133 174.175 73.72L176.095 73.08V73V70.08C176.095 69.3067 175.935 68.72 175.615 68.32C175.322 67.8933 174.962 67.68 174.535 67.68C174.162 67.68 173.828 67.8533 173.535 68.2C173.268 68.5467 173.135 69.0133 173.135 69.6V71.36H166.335V70.4C166.335 67.52 167.002 65.4667 168.335 64.24C169.695 63.0133 171.895 62.4 174.935 62.4C177.362 62.4 179.335 63.04 180.855 64.32C182.375 65.5733 183.135 67.36 183.135 69.68V92H176.175V88.52C175.828 89.72 175.268 90.6533 174.495 91.32C173.748 91.9867 172.855 92.32 171.815 92.32ZM174.575 86.88C175.108 86.88 175.482 86.6667 175.695 86.24C175.935 85.7867 176.055 85.24 176.055 84.6V76.44C175.015 76.84 174.242 77.3467 173.735 77.96C173.255 78.5733 173.015 79.4267 173.015 80.52V84.28C173.015 86.0133 173.535 86.88 174.575 86.88ZM185.591 82.04V77.52H195.671V82.04H185.591ZM198.373 57.64H207.853C210.306 57.64 212.146 58.32 213.373 59.68C214.599 61.04 215.226 63.0533 215.253 65.72L215.333 81.8C215.359 85.1867 214.773 87.7333 213.573 89.44C212.373 91.1467 210.386 92 207.613 92H198.373V57.64ZM206.493 85.92C207.746 85.92 208.373 85.3067 208.373 84.08V66.36C208.373 65.5867 208.306 65.0133 208.173 64.64C208.066 64.24 207.853 63.9733 207.533 63.84C207.213 63.7067 206.719 63.64 206.053 63.64H205.293V85.92H206.493ZM226.179 92.32C223.166 92.32 221.006 91.4933 219.699 89.84C218.393 88.1867 217.739 85.72 217.739 82.44V70.68C217.739 67.9867 218.513 65.9333 220.059 64.52C221.606 63.1067 223.766 62.4 226.539 62.4C232.166 62.4 234.979 65.16 234.979 70.68V72.8C234.979 74.9333 234.953 76.6667 234.899 78H224.739V83.68C224.739 84.6933 224.846 85.4933 225.059 86.08C225.273 86.64 225.726 86.92 226.419 86.92C226.953 86.92 227.326 86.76 227.539 86.44C227.779 86.12 227.913 85.76 227.939 85.36C227.993 84.9333 228.019 84.32 228.019 83.52V80.68H234.979V82.36C234.979 85.7733 234.313 88.2933 232.979 89.92C231.673 91.52 229.406 92.32 226.179 92.32ZM228.019 74.52V70.76C228.019 68.6533 227.499 67.6 226.459 67.6C225.286 67.6 224.699 68.6533 224.699 70.76V74.52H228.019ZM237.51 62.72H244.51V66.44C244.804 65.24 245.31 64.2667 246.03 63.52C246.75 62.7733 247.71 62.4 248.91 62.4C250.884 62.4 252.337 63.0133 253.27 64.24C254.23 65.44 254.71 67.16 254.71 69.4V92H247.83V70.12C247.83 69.48 247.697 68.9333 247.43 68.48C247.19 68.0267 246.804 67.8 246.27 67.8C245.55 67.8 245.07 68.1333 244.83 68.8C244.617 69.44 244.51 70.3067 244.51 71.4V92H237.51V62.72ZM263.511 92.32C261.671 92.32 260.405 91.9333 259.711 91.16C259.018 90.3867 258.671 89.1467 258.671 87.44V69.16H256.711V63.84H258.671V57.64H265.471V63.84H267.471V69.16H265.471V85.6C265.471 86.1067 265.511 86.48 265.591 86.72C265.671 86.96 265.885 87.08 266.231 87.08C266.498 87.08 266.751 87.0667 266.991 87.04C267.231 87.0133 267.391 87 267.471 87V91.8C267.071 91.9067 266.485 92.0133 265.711 92.12C264.965 92.2533 264.231 92.32 263.511 92.32Z" fill="#42929D"/>
<path d="M119.688 115V101.176H122.536V115H119.688ZM126.936 115.128C125.731 115.128 124.867 114.797 124.344 114.136C123.822 113.475 123.56 112.488 123.56 111.176V106.472C123.56 105.395 123.87 104.573 124.488 104.008C125.107 103.443 125.971 103.16 127.08 103.16C129.331 103.16 130.456 104.264 130.456 106.472V107.32C130.456 108.173 130.446 108.867 130.424 109.4H126.36V111.672C126.36 112.077 126.403 112.397 126.488 112.632C126.574 112.856 126.755 112.968 127.032 112.968C127.246 112.968 127.395 112.904 127.48 112.776C127.576 112.648 127.63 112.504 127.64 112.344C127.662 112.173 127.672 111.928 127.672 111.608V110.472H130.456V111.144C130.456 112.509 130.19 113.517 129.656 114.168C129.134 114.808 128.227 115.128 126.936 115.128ZM127.672 108.008V106.504C127.672 105.661 127.464 105.24 127.048 105.24C126.579 105.24 126.344 105.661 126.344 106.504V108.008H127.672ZM131.469 115V101.176H134.237V107.32L135.581 103.288H138.477L136.717 108.376L138.957 115H135.981L134.237 109.48V115H131.469ZM139.2 115V112.664H142V115H139.2ZM146.201 115.128C143.886 115.128 142.729 113.955 142.729 111.608L142.745 110.68H145.545L145.561 112.056C145.561 112.333 145.614 112.547 145.721 112.696C145.827 112.835 146.003 112.904 146.249 112.904C146.622 112.904 146.809 112.6 146.809 111.992C146.809 111.544 146.718 111.192 146.537 110.936C146.366 110.68 146.089 110.408 145.705 110.12L144.217 108.968C143.705 108.573 143.337 108.168 143.113 107.752C142.889 107.325 142.777 106.728 142.777 105.96C142.777 105.363 142.931 104.856 143.241 104.44C143.561 104.013 143.982 103.693 144.505 103.48C145.027 103.267 145.609 103.16 146.249 103.16C148.521 103.16 149.657 104.291 149.657 106.552V106.776H146.761V106.328C146.761 106.051 146.713 105.816 146.617 105.624C146.531 105.421 146.382 105.32 146.169 105.32C145.977 105.32 145.827 105.379 145.721 105.496C145.625 105.603 145.577 105.752 145.577 105.944C145.577 106.371 145.742 106.701 146.073 106.936L147.801 108.2C148.419 108.659 148.894 109.16 149.225 109.704C149.555 110.237 149.721 110.915 149.721 111.736C149.721 112.824 149.411 113.661 148.793 114.248C148.174 114.835 147.31 115.128 146.201 115.128ZM152.994 115.128C152.258 115.128 151.752 114.973 151.474 114.664C151.197 114.355 151.058 113.859 151.058 113.176V105.864H150.274V103.736H151.058V101.256H153.778V103.736H154.578V105.864H153.778V112.44C153.778 112.643 153.794 112.792 153.826 112.888C153.858 112.984 153.944 113.032 154.082 113.032C154.189 113.032 154.29 113.027 154.386 113.016C154.482 113.005 154.546 113 154.578 113V114.92C154.418 114.963 154.184 115.005 153.874 115.048C153.576 115.101 153.282 115.128 152.994 115.128ZM158.861 115.128C156.525 115.128 155.357 113.917 155.357 111.496V106.792C155.357 105.683 155.667 104.803 156.285 104.152C156.915 103.491 157.773 103.16 158.861 103.16C159.949 103.16 160.803 103.491 161.421 104.152C162.051 104.803 162.365 105.683 162.365 106.792V111.496C162.365 113.917 161.197 115.128 158.861 115.128ZM158.861 112.968C159.085 112.968 159.251 112.888 159.357 112.728C159.464 112.568 159.517 112.349 159.517 112.072V106.344C159.517 105.661 159.299 105.32 158.861 105.32C158.424 105.32 158.205 105.661 158.205 106.344V112.072C158.205 112.349 158.259 112.568 158.365 112.728C158.472 112.888 158.637 112.968 158.861 112.968ZM163.406 103.288H166.142V104.648C166.27 104.147 166.489 103.773 166.798 103.528C167.108 103.283 167.545 103.16 168.11 103.16C168.569 103.16 168.964 103.267 169.294 103.48C169.636 103.683 169.876 103.965 170.014 104.328C170.249 103.923 170.51 103.629 170.798 103.448C171.086 103.256 171.486 103.16 171.998 103.16C172.916 103.16 173.55 103.443 173.902 104.008C174.265 104.563 174.446 105.373 174.446 106.44L174.414 115H171.598V106.392C171.598 105.635 171.406 105.256 171.022 105.256C170.756 105.256 170.564 105.389 170.446 105.656C170.329 105.912 170.27 106.221 170.27 106.584V115H167.47V106.392C167.47 106.061 167.433 105.795 167.358 105.592C167.294 105.389 167.15 105.288 166.926 105.288C166.638 105.288 166.436 105.432 166.318 105.72C166.201 105.997 166.142 106.333 166.142 106.728V115H163.406V103.288ZM175.403 115V112.664H178.203V115H175.403ZM184.058 115L182.586 101.256H185.274L186.042 109.928L186.81 101.256H189.37L190.106 109.928L190.842 101.256H193.562L192.058 115H188.762L188.074 108.376L187.418 115H184.058ZM194.312 102.504V100.552H197.112V102.504H194.312ZM194.312 115V103.288H197.112V115H194.312ZM200.635 115.128C199.899 115.128 199.392 114.973 199.115 114.664C198.838 114.355 198.699 113.859 198.699 113.176V105.864H197.915V103.736H198.699V101.256H201.419V103.736H202.219V105.864H201.419V112.44C201.419 112.643 201.435 112.792 201.467 112.888C201.499 112.984 201.584 113.032 201.723 113.032C201.83 113.032 201.931 113.027 202.027 113.016C202.123 113.005 202.187 113 202.219 113V114.92C202.059 114.963 201.824 115.005 201.515 115.048C201.216 115.101 200.923 115.128 200.635 115.128ZM206.502 115.128C204.166 115.128 202.998 113.917 202.998 111.496V106.792C202.998 105.683 203.307 104.803 203.926 104.152C204.555 103.491 205.414 103.16 206.502 103.16C207.59 103.16 208.443 103.491 209.062 104.152C209.691 104.803 210.006 105.683 210.006 106.792V111.496C210.006 113.917 208.838 115.128 206.502 115.128ZM206.502 112.968C206.726 112.968 206.891 112.888 206.998 112.728C207.105 112.568 207.158 112.349 207.158 112.072V106.344C207.158 105.661 206.939 105.32 206.502 105.32C206.065 105.32 205.846 105.661 205.846 106.344V112.072C205.846 112.349 205.899 112.568 206.006 112.728C206.113 112.888 206.278 112.968 206.502 112.968ZM211.047 115V101.176H213.895V115H211.047ZM217.32 115.128C216.637 115.128 216.12 114.968 215.768 114.648C215.426 114.317 215.197 113.885 215.08 113.352C214.973 112.808 214.92 112.115 214.92 111.272L214.952 105.992C214.952 105.16 215.16 104.483 215.576 103.96C216.002 103.427 216.6 103.16 217.368 103.16C218.125 103.16 218.69 103.411 219.064 103.912V101.176H221.864V115H219.064V113.752C218.904 114.211 218.685 114.557 218.408 114.792C218.141 115.016 217.778 115.128 217.32 115.128ZM218.392 112.936C218.669 112.936 218.85 112.803 218.936 112.536C219.021 112.259 219.064 111.891 219.064 111.432V110.936V106.536C219.064 106.195 219.016 105.907 218.92 105.672C218.824 105.437 218.653 105.32 218.408 105.32C218.13 105.32 217.944 105.432 217.848 105.656C217.762 105.869 217.72 106.163 217.72 106.536V111.464C217.72 112.445 217.944 112.936 218.392 112.936ZM226.783 115V101.256H229.503V106.76L230.783 101.256H233.551L232.015 107.544L233.871 115H231.023L229.519 108.344V115H226.783ZM237.689 115.128C235.353 115.128 234.185 113.917 234.185 111.496V106.792C234.185 105.683 234.495 104.803 235.113 104.152C235.743 103.491 236.601 103.16 237.689 103.16C238.777 103.16 239.631 103.491 240.249 104.152C240.879 104.803 241.193 105.683 241.193 106.792V111.496C241.193 113.917 240.025 115.128 237.689 115.128ZM237.689 112.968C237.913 112.968 238.079 112.888 238.185 112.728C238.292 112.568 238.345 112.349 238.345 112.072V106.344C238.345 105.661 238.127 105.32 237.689 105.32C237.252 105.32 237.033 105.661 237.033 106.344V112.072C237.033 112.349 237.087 112.568 237.193 112.728C237.3 112.888 237.465 112.968 237.689 112.968ZM241.899 115V113.288L244.811 105.496H242.027V103.288H247.707V105.192L244.955 112.904H247.739V115H241.899ZM250.534 115.128C249.628 115.128 249.004 114.829 248.662 114.232C248.332 113.624 248.166 112.76 248.166 111.64C248.166 110.723 248.284 110.019 248.518 109.528C248.764 109.037 249.1 108.68 249.526 108.456C249.953 108.221 250.604 107.965 251.478 107.688L252.246 107.432V107.4V106.232C252.246 105.923 252.182 105.688 252.054 105.528C251.937 105.357 251.793 105.272 251.622 105.272C251.473 105.272 251.34 105.341 251.222 105.48C251.116 105.619 251.062 105.805 251.062 106.04V106.744H248.342V106.36C248.342 105.208 248.609 104.387 249.142 103.896C249.686 103.405 250.566 103.16 251.782 103.16C252.753 103.16 253.542 103.416 254.15 103.928C254.758 104.429 255.062 105.144 255.062 106.072V115H252.278V113.608C252.14 114.088 251.916 114.461 251.606 114.728C251.308 114.995 250.95 115.128 250.534 115.128ZM251.638 112.952C251.852 112.952 252.001 112.867 252.086 112.696C252.182 112.515 252.23 112.296 252.23 112.04V108.776C251.814 108.936 251.505 109.139 251.302 109.384C251.11 109.629 251.014 109.971 251.014 110.408V111.912C251.014 112.605 251.222 112.952 251.638 112.952ZM256.141 103.288H258.941V104.776C259.058 104.296 259.261 103.907 259.549 103.608C259.837 103.309 260.221 103.16 260.701 103.16C261.49 103.16 262.071 103.405 262.445 103.896C262.829 104.376 263.021 105.064 263.021 105.96V115H260.269V106.248C260.269 105.992 260.215 105.773 260.109 105.592C260.013 105.411 259.858 105.32 259.645 105.32C259.357 105.32 259.165 105.453 259.069 105.72C258.983 105.976 258.941 106.323 258.941 106.76V115H256.141V103.288ZM267.405 115.128C266.2 115.128 265.336 114.797 264.813 114.136C264.291 113.475 264.029 112.488 264.029 111.176V106.472C264.029 105.395 264.339 104.573 264.957 104.008C265.576 103.443 266.44 103.16 267.549 103.16C269.8 103.16 270.925 104.264 270.925 106.472V107.32C270.925 108.173 270.915 108.867 270.893 109.4H266.829V111.672C266.829 112.077 266.872 112.397 266.957 112.632C267.043 112.856 267.224 112.968 267.501 112.968C267.715 112.968 267.864 112.904 267.949 112.776C268.045 112.648 268.099 112.504 268.109 112.344C268.131 112.173 268.141 111.928 268.141 111.608V110.472H270.925V111.144C270.925 112.509 270.659 113.517 270.125 114.168C269.603 114.808 268.696 115.128 267.405 115.128ZM268.141 108.008V106.504C268.141 105.661 267.933 105.24 267.517 105.24C267.048 105.24 266.813 105.661 266.813 106.504V108.008H268.141ZM275.458 115.128C274.178 115.128 273.255 114.803 272.69 114.152C272.124 113.501 271.842 112.504 271.842 111.16V107.544C271.842 106.531 271.948 105.709 272.162 105.08C272.386 104.44 272.754 103.96 273.266 103.64C273.788 103.32 274.508 103.16 275.426 103.16C276.428 103.16 277.244 103.421 277.874 103.944C278.503 104.467 278.818 105.197 278.818 106.136V107.928H275.97V106.28C275.97 105.971 275.927 105.736 275.842 105.576C275.756 105.405 275.591 105.32 275.346 105.32C274.887 105.32 274.658 105.645 274.658 106.296V111.976C274.658 112.243 274.711 112.472 274.818 112.664C274.935 112.845 275.106 112.936 275.33 112.936C275.554 112.936 275.719 112.845 275.826 112.664C275.943 112.483 275.996 112.248 275.986 111.96L275.97 109.992H278.818V112.04C278.818 113 278.503 113.757 277.874 114.312C277.255 114.856 276.45 115.128 275.458 115.128ZM279.797 115V101.176H282.565V107.32L283.909 103.288H286.805L285.045 108.376L287.285 115H284.309L282.565 109.48V115H279.797ZM287.64 102.504V100.552H290.44V102.504H287.64ZM287.64 115V103.288H290.44V115H287.64Z" fill="#42929D"/>
</g>
<defs>
<filter id="filter0_d" x="0.389648" y="0.5" width="295.051" height="129.336" filterUnits="userSpaceOnUse" color-interpolation-filters="sRGB">
<feFlood flood-opacity="0" result="BackgroundImageFix"/>
<feColorMatrix in="SourceAlpha" type="matrix" values="0 0 0 0 0 0 0 0 0 0 0 0 0 0 0 0 0 0 127 0"/>
<feOffset dy="2"/>
<feGaussianBlur stdDeviation="2.5"/>
<feColorMatrix type="matrix" values="0 0 0 0 0 0 0 0 0 0 0 0 0 0 0 0 0 0 0.15 0"/>
<feBlend mode="normal" in2="BackgroundImageFix" result="effect1_dropShadow"/>
<feBlend mode="normal" in="SourceGraphic" in2="effect1_dropShadow" result="shape"/>
</filter>
</defs>
</svg>
