<svg width="50" height="50" viewBox="0 0 50 50" fill="none" xmlns="http://www.w3.org/2000/svg">
<path d="M47.9167 27.0401H2.08333C0.933329 27.0401 0 26.1068 0 24.9568C0 23.8068 0.933329 22.8734 2.08333 22.8734H47.9167C49.0667 22.8734 50 23.8068 50 24.9568C50 26.1068 49.0667 27.0401 47.9167 27.0401Z" fill="#3F3D56"/>
<path d="M47.9167 11.0677H2.08333C0.933329 11.0677 0 10.1344 0 8.98437C0 7.83436 0.933329 6.90103 2.08333 6.90103H47.9167C49.0667 6.90103 50 7.83436 50 8.98437C50 10.1344 49.0667 11.0677 47.9167 11.0677Z" fill="#3F3D56"/>
<path d="M47.9167 43.012H2.08333C0.933329 43.012 0 42.0786 0 40.9286C0 39.7786 0.933329 38.8453 2.08333 38.8453H47.9167C49.0667 38.8453 50 39.7786 50 40.9286C50 42.0786 49.0667 43.012 47.9167 43.012Z" fill="#3F3D56"/>
</svg>
