<svg width="600" height="400" viewBox="0 0 600 400" fill="none" xmlns="http://www.w3.org/2000/svg">
<path d="M501.322 61.9468L455.037 62.3781C452.861 52.1334 445.551 25.2531 452.134 17.9212C452.434 15.1617 453.836 12.6192 456.046 10.8229C458.257 9.02671 461.106 8.11519 464.002 8.27811C471.176 -2.46322 483.125 -0.850476 491.201 5.85795C499.329 8.54056 502.393 13.3064 501.322 19.7738C507.341 24.8136 508.452 30.9453 505.75 37.9249L501.322 61.9468Z" fill="#2F2E41"/>
<path d="M496.866 89.2198L463.473 84.7972L456.794 75.4604C465.994 69.6232 469.25 61.4701 465.014 50.3986L488.132 49.9072C487.049 59.7665 490.458 67.4003 499.949 72.0206L496.866 89.2198Z" fill="#FFB9B9"/>
<path d="M455.578 377.324L454.301 394.021C454.243 394.777 454.355 395.535 454.629 396.247C454.903 396.958 455.332 397.604 455.889 398.144C456.446 398.683 457.116 399.102 457.856 399.373C458.596 399.644 459.388 399.76 460.179 399.714L469.145 399.195C469.561 399.171 469.965 399.059 470.331 398.869C470.696 398.678 471.013 398.413 471.259 398.092C471.505 397.77 471.674 397.401 471.755 397.011C471.835 396.62 471.824 396.217 471.723 395.831L466.746 376.79L455.578 377.324Z" fill="white"/>
<path d="M484.605 376.79L479.628 395.831C479.527 396.217 479.517 396.62 479.597 397.011C479.677 397.401 479.846 397.77 480.092 398.092C480.338 398.413 480.655 398.678 481.021 398.869C481.386 399.059 481.791 399.171 482.206 399.195L491.172 399.714C491.963 399.76 492.755 399.644 493.495 399.373C494.235 399.102 494.906 398.683 495.462 398.144C496.019 397.604 496.449 396.958 496.723 396.247C496.997 395.535 497.108 394.777 497.051 394.021L495.774 377.324L484.605 376.79Z" fill="white"/>
<path d="M496.353 379.642L484.253 378.48L472.207 255.316L467.654 378.083L455.766 377.676L435.73 207.649H512.278L496.353 379.642Z" fill="#40A3F8"/>
<path d="M477.858 58.2612C490.626 58.2612 500.976 48.3607 500.976 36.1479C500.976 23.935 490.626 14.0345 477.858 14.0345C465.09 14.0345 454.739 23.935 454.739 36.1479C454.739 48.3607 465.09 58.2612 477.858 58.2612Z" fill="#FFB9B9"/>
<path d="M523.581 211.58L430.079 212.563C443.955 162.035 452.256 115.099 437.785 82.8317L460.904 72.0207C472.051 83.1421 484.466 81.9955 497.894 71.0379L519.985 76.4434C516.201 118.757 517.897 164.075 523.581 211.58Z" fill="#40A3F8"/>
<path d="M404.392 159.491L462.445 181.605L475.425 185.256C476.005 185.419 476.614 185.469 477.215 185.401C477.816 185.334 478.397 185.151 478.922 184.863C479.447 184.576 479.906 184.189 480.271 183.728C480.637 183.266 480.9 182.739 481.047 182.177C481.305 181.193 481.189 180.153 480.721 179.242C480.253 178.331 479.463 177.608 478.491 177.201L465.014 173.251L424.428 150.646L432.905 129.27L415.181 120.179L404.392 159.491Z" fill="#FFB9B9"/>
<path d="M404.906 119.196C415.951 123.317 424.736 130.352 431.62 139.835L453.198 109.859L437.785 82.8315L404.906 119.196Z" fill="#40A3F8"/>
<path d="M503.914 32.564C494.531 30.2515 485.305 29.934 476.337 32.8672C470.625 35.5136 463.765 35.2698 456.135 33.0893V11.0268L497.324 12.0774L503.914 32.564Z" fill="#2F2E41"/>
<path d="M462.252 133.726C460.437 133.728 458.697 134.419 457.413 135.647C456.129 136.874 455.407 138.539 455.405 140.276L458.108 194.392C458.11 196.128 458.832 197.793 460.116 199.021C461.399 200.248 463.14 200.939 464.955 200.941H495.855C497.671 200.939 499.411 200.248 500.695 199.021C501.978 197.793 502.701 196.128 502.703 194.392L505.405 140.276C505.403 138.539 504.681 136.874 503.398 135.647C502.114 134.419 500.373 133.728 498.558 133.726H462.252Z" fill="#3F3D56"/>
<path d="M549.926 155.403L499.325 174.676L495.507 176.13C495.385 176.175 495.264 176.214 495.135 176.252L482.345 179.852C480.71 180.311 478.446 178.204 477.122 176.75C476.466 176.049 476.095 175.147 476.075 174.207C476.055 173.266 476.388 172.351 477.014 171.625C477.19 171.43 477.385 171.251 477.595 171.089C478.088 170.722 478.668 170.477 479.284 170.378L492.061 167.973C492.519 167.887 492.96 167.73 493.365 167.508L499.325 164.186L530.264 146.956C531.124 146.478 531.779 145.723 532.112 144.825C532.445 143.928 532.434 142.947 532.081 142.057L526.176 127.16C525.814 126.248 525.811 125.242 526.168 124.329C526.524 123.415 527.217 122.657 528.115 122.196L537.899 117.181C538.458 116.894 539.078 116.732 539.712 116.707C540.346 116.683 540.977 116.796 541.559 117.039C542.14 117.281 542.657 117.647 543.069 118.108C543.482 118.57 543.779 119.114 543.939 119.702L552.433 150.646C552.694 151.595 552.583 152.603 552.121 153.479C551.66 154.355 550.879 155.039 549.926 155.403Z" fill="#FFB9B9"/>
<path d="M552.864 113.79C541.819 117.912 533.034 124.946 526.15 134.429L504.572 104.454L519.985 76.4434L552.864 113.79Z" fill="#40A3F8"/>
<path d="M493.243 55.8298C483.129 59.8538 472.525 59.6904 461.486 55.8298C464.698 50.5858 459.897 46.4787 457.432 41.185L498.649 40.0134C495.497 44.6122 490.846 50.0455 493.243 55.8298Z" fill="white"/>
<path d="M498.212 40.8885L497.734 40.4316L498.41 39.7853L502.446 35.2793L502.96 35.6994L498.906 40.2234L498.212 40.8885Z" fill="white"/>
<path d="M454.608 38.1494L454.176 38.6461L458.23 41.8776L458.662 41.3809L454.608 38.1494Z" fill="white"/>
<path d="M499.377 44.688L492.28 55.3509L492.85 55.698L499.947 45.0352L499.377 44.688Z" fill="white"/>
<path d="M455.353 44.6872L454.782 45.0343L461.877 55.6982L462.447 55.3511L455.353 44.6872Z" fill="white"/>
<path d="M500.676 163.272V174.981L496.414 176.604C496.279 176.654 496.143 176.698 496 176.741L481.722 180.759C479.897 181.271 477.371 178.92 475.892 177.296C475.16 176.514 474.746 175.507 474.724 174.457C474.701 173.408 475.073 172.385 475.772 171.576C475.969 171.358 476.186 171.158 476.42 170.977C476.97 170.567 477.618 170.294 478.306 170.183L492.568 167.499C493.08 167.403 493.571 167.228 494.024 166.98L500.676 163.272Z" fill="white"/>
<path d="M506.851 121.509H504.409C504.409 88.4761 497.299 65.4562 490.37 65.4562L489.759 63.1206C495.973 63.1206 499.935 72.7013 502.164 80.7388C505.187 91.6349 506.851 106.114 506.851 121.509Z" fill="#3F3D56"/>
<path d="M450.692 113.334H448.251C448.251 83.0818 455.41 64.2884 465.953 64.2884L465.343 66.6239C458.05 66.6239 450.692 81.0672 450.692 113.334Z" fill="#3F3D56"/>
<path d="M505.63 127.931C509.002 127.931 511.735 125.317 511.735 122.092C511.735 118.868 509.002 116.254 505.63 116.254C502.259 116.254 499.526 118.868 499.526 122.092C499.526 125.317 502.259 127.931 505.63 127.931Z" fill="#3F3D56"/>
<path d="M440.926 127.347H438.484C438.484 118.977 443.413 112.167 449.471 112.167V114.502C444.759 114.502 440.926 120.264 440.926 127.347Z" fill="#3F3D56"/>
<path d="M460.459 127.347H458.017C458.017 120.264 454.184 114.502 449.471 114.502V112.167C455.53 112.167 460.459 118.977 460.459 127.347Z" fill="#3F3D56"/>
<path d="M459.238 130.267C460.587 130.267 461.68 129.221 461.68 127.931C461.68 126.641 460.587 125.596 459.238 125.596C457.89 125.596 456.796 126.641 456.796 127.931C456.796 129.221 457.89 130.267 459.238 130.267Z" fill="#3F3D56"/>
<path d="M439.705 130.267C441.053 130.267 442.147 129.221 442.147 127.931C442.147 126.641 441.053 125.596 439.705 125.596C438.356 125.596 437.263 126.641 437.263 127.931C437.263 129.221 438.356 130.267 439.705 130.267Z" fill="#3F3D56"/>
<path d="M600 398.707H0V400H600V398.707Z" fill="#3F3D56"/>
<path d="M229.054 398.061H370.946V233.439C370.946 224.722 361.969 217.63 350.936 217.63H249.064C238.03 217.63 229.054 224.722 229.054 233.439V398.061Z" fill="#E6E6E6"/>
<path d="M239.865 391.254H360.135V251.717C360.135 244.328 352.526 238.317 343.174 238.317H256.825C247.473 238.317 239.865 244.328 239.865 251.717V391.254Z" fill="white"/>
<path d="M227.982 204.819C224.475 204.819 221.622 207.073 221.622 209.844V224.349C221.622 227.12 224.475 229.374 227.982 229.374H372.018C375.525 229.374 378.378 227.12 378.378 224.349V209.844C378.378 207.073 375.525 204.819 372.018 204.819H227.982Z" fill="#3F3D56"/>
<path opacity="0.2" d="M242.905 204.819H239.527V228.732H242.905V204.819Z" fill="black"/>
<path opacity="0.2" d="M262.5 204.819H259.122V228.732H262.5V204.819Z" fill="black"/>
<path opacity="0.2" d="M282.095 204.819H278.716V228.732H282.095V204.819Z" fill="black"/>
<path opacity="0.2" d="M301.689 204.819H298.311V228.732H301.689V204.819Z" fill="black"/>
<path opacity="0.2" d="M321.284 204.819H317.905V228.732H321.284V204.819Z" fill="black"/>
<path opacity="0.2" d="M340.878 204.819H337.5V228.732H340.878V204.819Z" fill="black"/>
<path opacity="0.2" d="M360.473 204.819H357.095V228.732H360.473V204.819Z" fill="black"/>
<path d="M165.779 190.415L164.09 196.406C164.09 196.406 150.556 190.656 148.115 183.35C145.674 176.043 152.198 173.269 152.198 173.269L164.809 177.717L165.779 190.415Z" fill="white"/>
<path opacity="0.1" d="M165.779 190.415L164.09 196.406C164.09 196.406 150.556 190.656 148.115 183.35C145.674 176.043 152.198 173.269 152.198 173.269L164.809 177.717L165.779 190.415Z" fill="black"/>
<path d="M90.0793 394.996C90.0793 394.996 77.5623 398.789 68.9568 399.266C64.3881 399.518 61.9863 397.208 60.7503 394.983C60.075 393.746 59.6395 392.429 59.4595 391.08L60.5782 380.855L61.1727 375.41L79.4555 371.495L82.0449 378.023L82.2875 378.52C83.3279 380.7 87.4977 389.57 87.3725 391.422C87.3674 391.896 87.4784 392.366 87.6989 392.804C87.9193 393.242 88.2447 393.638 88.6555 393.97C89.0753 394.36 89.5537 394.705 90.0793 394.996Z" fill="white"/>
<path d="M175.109 395.177C175.14 395.49 175.103 395.805 174.999 396.108C174.999 396.108 148.228 399.826 142.752 396.108C141.208 395.021 139.408 394.216 137.468 393.743C135.528 393.269 133.491 393.139 131.487 393.36C131.487 393.36 121.129 393.594 119.4 390.755C118.68 389.563 118.868 387.252 119.314 384.972C119.769 382.837 120.375 380.725 121.129 378.649L121.543 378.376L124.008 376.728L152.86 376.019H153.079C152.938 380.929 162.873 386.561 162.873 386.561C173.427 389.817 174.983 393.496 175.109 395.177Z" fill="white"/>
<path d="M108.397 85.7427C98.07 82.4021 84.7862 71.3645 88.1033 66.207C88.8399 64.9056 89.2777 63.5009 89.3941 62.0655C89.6075 60.1169 89.6389 58.1574 89.488 56.2048C89.2554 53.0068 88.793 49.8233 88.1033 46.6714C88.1033 46.6714 120.343 47.277 118.465 51.2297C117.917 52.3888 117.831 54.401 117.98 56.6541C118.129 58.9072 118.52 61.4534 118.927 63.6088C119.49 66.5652 120.053 68.8183 120.053 68.8183C120.053 68.8183 118.082 71.117 116.924 71.2407C115.766 71.3645 123.214 90.5029 108.397 85.7427Z" fill="#FBBEBE"/>
<path opacity="0.1" d="M82.0091 377.678L81.7666 377.899C72.1284 368.196 60.4719 380.289 60.4719 380.289L60.2998 380.035L60.8944 374.539L79.1771 370.586L81.7666 377.176L82.0091 377.678Z" fill="black"/>
<path opacity="0.1" d="M153.301 370.586C153.301 370.586 146.261 370.462 142.505 373.223C138.75 375.984 120.601 373.822 121.383 373.223C121.615 372.926 121.755 372.586 121.79 372.234L124.254 370.586L153.106 369.876C153.215 370.313 153.301 370.586 153.301 370.586Z" fill="black"/>
<path d="M94.0019 294.39C93.4775 295.47 93.0793 296.588 92.8127 297.731C92.1603 300.861 91.979 304.046 92.2729 307.212C92.5624 311.771 92.2729 342.318 92.2729 342.318C92.2729 342.318 86.0848 350.464 82.6348 353.336C79.1848 356.208 89.6756 361.365 89.6756 361.365C91.2403 368.789 81.7586 377.176 81.7586 377.176C72.1205 367.473 60.464 379.573 60.464 379.573C60.464 379.573 54.1272 370.456 52.5469 367.2C50.9666 363.944 58.735 361.691 61.4653 360.369C64.1956 359.047 61.3323 351.252 61.3323 351.252C61.3323 351.252 59.0245 344.421 56.2864 338.189C53.5483 331.958 59.3061 300.935 59.3061 300.935C59.3061 300.935 59.6034 295.426 60.3153 293.505C60.6745 292.119 60.746 290.691 60.5266 289.285C60.4796 288.81 60.4248 288.413 60.3857 288.146C60.3466 287.879 60.3153 287.755 60.3153 287.755L60.4249 287.599L64.3364 281.529C64.3364 281.529 95.8794 290.568 94.0019 294.39Z" fill="#40A3F8"/>
<path d="M153.378 375.665C153.378 375.665 146.313 375.533 142.545 378.447C138.776 381.361 120.563 379.087 121.348 378.447C122.133 377.807 122.07 373.071 122.07 373.071C111.386 360.15 120.5 354.906 120.5 354.906C120.5 354.906 115.727 334.564 114.863 327.019C114.259 321.747 113.513 307.581 113.113 299.493C112.94 296.016 112.838 293.623 112.838 293.623L121.568 292.065L122.69 291.864L143.746 288.122C143.746 288.122 144.327 291.6 144.719 294.444C144.915 295.658 145.025 296.882 145.049 298.109C144.908 299.5 145.049 303.853 145.049 303.853L145.763 316.907C145.297 318.276 145.056 319.698 145.049 321.128C145.19 322.79 147.93 346.589 147.93 346.589C147.93 346.589 152.695 360.79 151.07 361.812C149.445 362.834 153.378 375.665 153.378 375.665Z" fill="#40A3F8"/>
<path opacity="0.1" d="M118.465 51.2297C117.917 52.3888 117.831 54.401 117.98 56.6541C113.662 58.8186 108.697 59.9253 103.657 59.847C98.6174 59.7687 93.7062 58.5085 89.488 56.2113C89.2557 53.0111 88.7933 49.8255 88.1033 46.6714C88.1033 46.6714 120.343 47.2639 118.465 51.2297Z" fill="black"/>
<path d="M130.927 36.8385C130.933 39.1851 130.49 41.5175 129.613 43.7477C127.653 48.7446 123.634 53.004 118.266 55.773C112.898 58.5419 106.527 59.6422 100.279 58.8792C94.0305 58.1163 88.3075 55.5394 84.1211 51.6038C79.9347 47.6683 77.5545 42.6275 77.4011 37.3725C77.4011 37.1902 77.4011 37.0209 77.4011 36.8385C77.3404 33.8806 77.9878 30.9422 79.3057 28.1947C80.6236 25.4472 82.5856 22.9456 85.0771 20.8359C87.5687 18.7262 90.54 17.0506 93.8177 15.9068C97.0954 14.763 100.614 14.1739 104.168 14.1739C107.722 14.1739 111.241 14.763 114.518 15.9068C117.796 17.0506 120.767 18.7262 123.259 20.8359C125.751 22.9456 127.713 25.4472 129.03 28.1947C130.348 30.9422 130.996 33.8806 130.935 36.8385H130.927Z" fill="#FBBEBE"/>
<path opacity="0.1" d="M108.397 85.7428C98.07 82.4022 84.7862 71.3645 88.1033 66.2071C88.8399 64.9057 89.2777 63.501 89.3941 62.0656L103.531 71.7357L112.277 77.7071L118.927 63.6154C119.49 66.5718 120.053 68.8249 120.053 68.8249C120.053 68.8249 118.082 71.1236 116.924 71.2473C115.766 71.3711 123.214 90.503 108.397 85.7428Z" fill="black"/>
<path d="M144.954 128.48L133.149 293.557L117.753 294.397L77.8862 198.679L84.4264 85.0395L85.8033 61.0302L103.531 73.1488L112.285 79.1202L119.13 64.6182L131.858 73.8521L144.954 128.48Z" fill="#40A3F8"/>
<path opacity="0.1" d="M94.0019 294.39C93.4776 295.47 93.0793 296.588 92.8128 297.731C81.61 296.291 70.7296 293.462 60.5345 289.337L60.3232 289.246L60.3936 288.198L60.4328 287.651L64.3444 281.581C64.3444 281.581 95.8795 290.568 94.0019 294.39Z" fill="black"/>
<path opacity="0.1" d="M121.782 297.757C118.918 298.163 116.03 298.436 113.13 298.578C112.957 295.322 112.856 293.082 112.856 293.082L121.555 291.623L121.782 297.757Z" fill="black"/>
<path opacity="0.1" d="M144.626 293.85C139.063 295.055 130.474 296.409 122.783 295.563L122.674 291.434L143.656 287.931C143.656 287.931 144.234 291.154 144.626 293.85Z" fill="black"/>
<path opacity="0.1" d="M122.643 296.318C90.5677 300.876 61.1917 287.807 61.1917 287.807L61.4733 283.379C61.4733 283.379 62.2009 233.179 60.1825 229.33C58.1642 225.482 56.5917 205.965 57.7339 202.97C58.8761 199.974 53.5641 155.055 53.5641 155.055L52.7036 136.822L21.2075 126.201L35.2892 101.769C37.1912 98.343 38.827 94.8193 40.1865 91.2193C42.6352 84.8767 54.0022 78.6448 54.0022 78.6448C54.0022 78.6448 65.6587 72.4195 70.2666 72.6539C74.8744 72.8883 80.9139 67.1448 80.9139 67.1448C85.3731 57.683 89.4099 61.9679 89.4099 61.9679C89.4099 62.4172 89.4099 61.9679 89.1908 63.3679C87.6262 73.7544 114.491 106.574 114.874 107.154L117.432 159.028L120.022 224.674L122.643 296.318Z" fill="black"/>
<path d="M121.782 296.318C89.7071 300.876 60.3233 287.807 60.3233 287.807L60.6128 283.379C60.6128 283.379 61.3403 233.179 59.3141 229.33C57.2879 225.481 55.7233 205.965 56.8733 202.97C58.0233 199.974 52.7036 155.055 52.7036 155.055L51.8352 136.822L20.3235 126.162L34.4052 101.729C36.303 98.3024 37.9387 94.779 39.3025 91.1802C41.7433 84.8376 53.1182 78.6057 53.1182 78.6057C53.1182 78.6057 64.7747 72.3803 69.3747 72.6147C73.9747 72.8492 80.022 67.1057 80.022 67.1057C84.4891 57.6439 89.4098 61.9287 89.4098 61.9287C89.4098 62.378 88.9404 62.5799 89.1908 63.3288C92.633 73.4027 113.63 106.535 114.014 107.115L116.603 158.989L119.193 224.635L121.782 296.318Z" fill="white"/>
<path opacity="0.1" d="M113.137 108.593C109.687 107.395 91.4125 90.0275 91.4125 90.0275V86.0748C90.7475 84.7724 86.7969 85.5669 83.5894 86.4786L84.9662 62.4692L86.5309 63.5502C89.9574 73.6176 112.738 108.013 113.137 108.593Z" fill="black"/>
<path d="M114.006 107.154C110.548 105.956 92.2731 88.5885 92.2731 88.5885V84.6358C91.6081 83.3334 87.6574 84.1279 84.45 85.0395L85.8346 61.0302L87.3993 62.1111C90.8336 72.1785 113.623 106.581 114.006 107.154Z" fill="white"/>
<path opacity="0.1" d="M61.1916 193.769C61.6219 193.769 83.4955 191.854 83.4955 191.854C83.4955 191.854 96.7401 213.532 95.8717 218.807C95.0033 224.081 93.4309 228.751 88.1033 227.923C82.7757 227.096 59.4314 228.575 59.4314 228.575L61.1916 193.769Z" fill="black"/>
<path d="M60.3232 192.33C60.7535 192.33 82.627 190.415 82.627 190.415C82.627 190.415 95.8638 212.1 95.0033 217.368C94.1427 222.636 92.5546 227.311 87.2349 226.484C81.9151 225.657 58.563 227.136 58.563 227.136L60.3232 192.33Z" fill="white"/>
<path d="M76.8066 182.151C76.8066 182.151 96.8808 191.131 97.3111 193.873C97.7414 196.614 87.094 192.675 84.794 192.199C83.2802 191.896 81.7392 191.695 80.1862 191.6L64.845 191.945L76.8066 182.151Z" fill="#FBBEBE"/>
<path opacity="0.1" d="M107.536 109.713C108.703 109.713 109.648 108.926 109.648 107.955C109.648 106.984 108.703 106.197 107.536 106.197C106.37 106.197 105.424 106.984 105.424 107.955C105.424 108.926 106.37 109.713 107.536 109.713Z" fill="black"/>
<path d="M107.536 108.997C108.703 108.997 109.648 108.209 109.648 107.238C109.648 106.267 108.703 105.48 107.536 105.48C106.37 105.48 105.424 106.267 105.424 107.238C105.424 108.209 106.37 108.997 107.536 108.997Z" fill="#3F3D56"/>
<path opacity="0.1" d="M111.424 185.824C112.591 185.824 113.536 185.037 113.536 184.066C113.536 183.095 112.591 182.308 111.424 182.308C110.257 182.308 109.312 183.095 109.312 184.066C109.312 185.037 110.257 185.824 111.424 185.824Z" fill="black"/>
<path d="M111.424 185.101C112.591 185.101 113.536 184.314 113.536 183.343C113.536 182.372 112.591 181.585 111.424 181.585C110.257 181.585 109.312 182.372 109.312 183.343C109.312 184.314 110.257 185.101 111.424 185.101Z" fill="#3F3D56"/>
<path opacity="0.1" d="M109.64 147.769C110.807 147.769 111.753 146.981 111.753 146.01C111.753 145.039 110.807 144.252 109.64 144.252C108.474 144.252 107.528 145.039 107.528 146.01C107.528 146.981 108.474 147.769 109.64 147.769Z" fill="black"/>
<path d="M109.64 147.052C110.807 147.052 111.753 146.265 111.753 145.294C111.753 144.323 110.807 143.536 109.64 143.536C108.474 143.536 107.528 144.323 107.528 145.294C107.528 146.265 108.474 147.052 109.64 147.052Z" fill="#3F3D56"/>
<path d="M158.332 191.235C158.332 191.235 159.771 193.033 158.332 193.873C156.892 194.713 158.473 196.744 158.473 196.744C158.473 196.744 154.882 198.496 156.462 200.072C158.042 201.648 157.041 208.765 157.041 208.765L152.723 214.717C152.723 214.717 152.981 218.553 152.996 223.736C152.996 231.824 152.425 243.194 149.265 248.377L149.703 290.906C149.703 290.906 134.581 295.504 121.923 294.104L120.045 225.859C120.045 225.859 122.783 187.159 123.793 179.735C124.383 175.881 124.624 171.996 124.512 168.112C124.512 168.112 124.082 156.494 122.635 151.103C122.635 151.103 121.07 127.744 120.914 121.278C120.843 118.185 121.039 109.159 121.258 100.577C121.5 91.1931 121.774 82.3435 121.774 82.3435L118.919 63.5371C118.919 63.5371 121.774 63.2962 122.635 64.2534C123.02 64.5532 123.439 64.8214 123.886 65.0544C128.815 67.8285 146.229 76.359 146.229 76.359C146.229 76.359 155.867 79.5499 158.175 84.1212C160.483 88.6926 162.087 91.9355 163.206 93.2379C164.324 94.5403 164.935 100.661 164.935 100.661C164.935 100.661 168.252 111.927 170.841 113.835C173.431 115.743 175.324 127.881 175.324 127.881L152.441 142.859C152.441 142.859 150.43 167.773 150 168.737C149.57 169.701 158.332 191.235 158.332 191.235Z" fill="white"/>
<path d="M159.2 191.235C159.2 191.235 160.632 193.033 159.2 193.873C157.769 194.713 159.333 196.744 159.333 196.744C159.333 196.744 155.766 198.516 157.331 200.092C158.895 201.667 157.909 208.785 157.909 208.785L153.591 214.737C153.591 214.737 153.849 218.572 153.873 223.756C153.873 231.844 153.302 243.213 150.141 248.397L150.571 290.926C150.571 290.926 135.426 295.523 122.783 294.123L120.914 225.879C120.914 225.879 123.652 187.178 124.661 179.755C125.252 175.901 125.49 172.015 125.373 168.131C125.373 168.131 124.943 156.514 123.503 151.122C123.503 151.122 121.939 127.764 121.774 121.298C121.704 118.204 121.907 109.179 122.118 100.596C122.361 91.2127 122.635 82.363 122.635 82.363L118.864 63.3027C118.864 63.3027 122.635 63.3027 123.503 64.273C123.885 64.5762 124.305 64.8447 124.755 65.0739C129.683 67.848 147.106 76.3786 147.106 76.3786C147.106 76.3786 156.736 79.5694 159.044 84.1408C161.352 88.7121 162.955 91.955 164.082 93.2574C165.208 94.5598 165.803 100.681 165.803 100.681C165.803 100.681 169.12 111.947 171.709 113.855C174.299 115.763 176.169 127.875 176.169 127.875L153.286 142.852C153.286 142.852 151.275 167.767 150.837 168.73C150.399 169.694 159.2 191.235 159.2 191.235Z" fill="white"/>
<path opacity="0.1" d="M131.795 87.8916L133.861 92.9058L122.987 102.022C123.229 92.6453 123.503 83.7891 123.503 83.7891L119.732 64.7288C119.732 64.7288 123.503 64.7288 124.371 65.6991C124.752 66.0015 125.172 66.268 125.623 66.4936L134.87 88.6991L131.795 87.8916Z" fill="black"/>
<path d="M130.927 86.4526L133 91.4668L122.126 100.583C122.369 91.1998 122.643 82.3501 122.643 82.3501L118.864 63.2898C118.864 63.2898 122.643 63.2898 123.503 64.2601C123.887 64.5615 124.306 64.8299 124.755 65.061L134.01 87.2601L130.927 86.4526Z" fill="white"/>
<path opacity="0.1" d="M130.927 36.8385C130.933 39.1851 130.49 41.5175 129.613 43.7477C129.465 43.7669 129.314 43.7612 129.169 43.731C129.024 43.7008 128.888 43.6467 128.768 43.5718C128.565 37.7111 125.099 32.2086 120.835 27.5265C119.638 26.1129 118.187 24.861 116.533 23.8147C114.86 22.769 112.779 22.2792 110.697 22.4407C108.35 22.7077 106.276 24.0361 103.906 24.2055C100.777 24.4203 97.9761 22.6165 94.8703 22.5254C93.6077 22.5354 92.3621 22.7694 91.2168 23.2118C90.0715 23.6542 89.0527 24.2949 88.2284 25.0911C86.5968 26.6977 85.3846 28.5694 84.6689 30.5871C83.4388 33.6467 82.7689 36.8429 82.6818 40.0684C82.6426 41.8918 82.4314 44.1774 80.3974 44.8417C80.5505 43.5007 80.3674 42.1479 79.8598 40.8689C79.3521 39.5899 78.5309 38.4126 77.4481 37.4116L77.4011 37.3725C77.4011 37.1902 77.4011 37.0209 77.4011 36.8385C77.3404 33.8806 77.9878 30.9422 79.3057 28.1947C80.6236 25.4472 82.5856 22.9456 85.0771 20.8359C87.5687 18.7262 90.54 17.0506 93.8177 15.9068C97.0954 14.763 100.614 14.1739 104.168 14.1739C107.722 14.1739 111.241 14.763 114.518 15.9068C117.796 17.0506 120.767 18.7262 123.259 20.8359C125.751 22.9456 127.713 25.4472 129.03 28.1947C130.348 30.9422 130.996 33.8806 130.935 36.8385H130.927Z" fill="black"/>
<path d="M115.25 1.45925C111.184 -0.132497 106.561 -0.433541 102.248 0.612704C100.081 1.14668 98.0387 2.01276 95.8404 2.44905C91.1465 3.39328 85.6703 2.37091 81.6414 4.65659C79.4039 5.95896 78.0584 8.01673 76.8066 10.0159L73.6774 14.9779C71.9719 17.6934 70.2508 20.4544 69.5389 23.4434C68.827 26.4324 69.2573 29.7795 71.5338 32.1824C73.1923 33.9341 75.641 35.0346 77.4403 36.6821C78.5183 37.6842 79.3359 38.8608 79.8421 40.1383C80.3483 41.4157 80.532 42.7664 80.3818 44.1056C82.4237 43.4545 82.6193 41.1623 82.6662 39.3389C82.7534 36.1134 83.4232 32.9172 84.6533 29.8576C85.3673 27.8393 86.5797 25.9674 88.2128 24.3616C89.0377 23.5661 90.0567 22.9258 91.2019 22.4835C92.347 22.0411 93.5923 21.8067 94.8547 21.7959C97.984 21.8871 100.792 23.6843 103.89 23.4694C106.237 23.3067 108.318 21.9717 110.681 21.7112C112.764 21.5472 114.846 22.0372 116.517 23.0852C118.171 24.1299 119.62 25.3821 120.812 26.797C125.083 31.4791 128.549 36.9686 128.752 42.8423C129.636 43.3828 130.912 42.6795 131.35 41.846C131.788 41.0125 131.803 40.0357 132.359 39.2413C133 38.3231 134.229 37.8347 135.191 37.1444C137.632 35.3927 138.242 32.4428 138.148 29.7665C138.054 27.0901 137.428 24.3746 138.039 21.7438C138.406 20.1289 139.235 18.6181 139.689 17.0227C140.143 15.4273 140.198 13.6365 139.126 12.2625C137.561 10.2438 134.268 9.84657 131.397 9.65773C128.134 9.4233 125.216 9.72284 123.135 7.43717C122.159 6.24442 121.059 5.12451 119.85 4.09005C119.435 3.75144 115.25 1.60251 115.25 1.45925Z" fill="#808080"/>
<path opacity="0.1" d="M30.2197 138.782L22.0445 126.201L19.4551 145.613C19.4551 145.613 20.8945 154.235 20.6051 155.557C20.3156 156.879 26.5037 168.73 26.5037 168.73C26.5037 168.73 46.9457 199.037 55.293 200.6L83.4955 183.825L76.0165 175.92C76.0165 175.92 73.4271 175.079 72.7778 175.92C72.7778 175.92 58.8916 156.032 57.4522 154.593C56.0127 153.154 56.2943 150.282 56.2943 150.282C56.2943 150.282 54.1352 148.368 54.8549 146.57C55.5746 144.773 50.6851 138.541 50.6851 138.541L55.1443 135.07L30.2197 138.782Z" fill="black"/>
<path d="M22.4747 124.769L20.3155 126.201L17.7261 145.613C17.7261 145.613 19.1655 154.235 18.8761 155.557C18.5866 156.879 24.7826 168.73 24.7826 168.73C24.7826 168.73 45.2167 199.037 53.564 200.6L81.7743 183.825L74.2876 175.92C74.2876 175.92 71.6981 175.08 71.0487 175.92C71.0487 175.92 57.1626 156.032 55.7232 154.593C54.2837 153.154 54.5732 150.282 54.5732 150.282C54.5732 150.282 52.414 148.368 53.1337 146.57C53.8534 144.773 48.9561 138.541 48.9561 138.541L53.4154 135.07L22.4747 124.769Z" fill="white"/>
<path opacity="0.1" d="M156.462 200.815C158.027 202.397 157.041 209.501 157.041 209.501L152.723 215.453C152.723 215.453 152.981 219.295 152.996 224.472L145.736 226.361C145.08 226.531 144.385 226.569 143.708 226.47C143.031 226.371 142.392 226.139 141.844 225.793C141.297 225.447 140.857 224.997 140.561 224.481C140.265 223.964 140.122 223.397 140.143 222.825L141.395 189.217L158.332 194.609C156.892 195.442 158.473 197.487 158.473 197.487C158.473 197.487 154.882 199.232 156.462 200.815Z" fill="black"/>
<path d="M157.331 200.092C158.895 201.674 157.909 208.785 157.909 208.785L153.591 214.737C153.591 214.737 153.849 218.572 153.873 223.756L146.48 225.677C145.837 225.843 145.156 225.879 144.494 225.782C143.831 225.685 143.206 225.457 142.67 225.119C142.134 224.78 141.704 224.339 141.414 223.834C141.124 223.328 140.983 222.772 141.004 222.213L142.263 188.501L159.208 193.892C157.761 194.726 159.341 196.764 159.341 196.764C159.341 196.764 155.766 198.516 157.331 200.092Z" fill="white"/>
<path d="M162.94 184.072C162.94 184.072 161.79 190.187 158.911 190.545C156.032 190.903 154.741 200.437 151.87 200.098C148.999 199.76 150.9 191.236 151.001 189.581C151.103 187.927 147.872 181.077 150.29 179.521C152.707 177.964 160.358 179.521 160.358 179.521L162.94 184.072Z" fill="#FBBEBE"/>
<path opacity="0.1" d="M169.065 136.985L174.495 127.868C174.495 127.868 176.654 134.816 176.654 138.528C176.654 142.24 179.673 142.605 179.673 142.605C179.673 142.605 182.983 145.861 181.238 148.231C179.494 150.601 178.789 156.501 178.789 156.501C178.789 156.501 179.361 167.76 176.771 169.316C174.182 170.873 173.642 174.591 173.642 174.591C173.642 174.591 168.885 181.656 169.034 183.336C169.183 185.017 162.416 196.393 162.416 196.393C162.416 196.393 165.725 182.256 146.441 176.147C146.441 176.147 146.292 171.348 147.731 170.033C149.171 168.717 151.416 168.118 150.008 161.47C148.6 154.821 149.601 146.876 149.601 145.281C149.601 143.686 153.92 133.735 153.92 133.735L169.065 136.985Z" fill="black"/>
<path d="M171.412 126.566L176.153 127.868C176.153 127.868 178.32 134.816 178.32 138.528C178.32 142.24 181.34 142.605 181.34 142.605C181.34 142.605 184.649 145.861 182.905 148.231C181.16 150.601 180.464 156.501 180.464 156.501C180.464 156.501 181.035 167.76 178.445 169.316C175.856 170.873 175.277 174.591 175.277 174.591C175.277 174.591 170.528 181.657 170.677 183.337C170.826 185.017 164.051 196.393 164.051 196.393C164.051 196.393 167.368 182.256 148.076 176.147C148.076 176.147 147.935 171.348 149.374 170.033C150.814 168.717 153.059 168.118 151.651 161.47C150.243 154.821 151.244 146.876 151.244 145.281C151.244 143.686 155.563 133.735 155.563 133.735L171.412 126.566Z" fill="white"/>
<path opacity="0.1" d="M66.699 362.863C66.699 362.863 74.2561 358.91 79.216 361.782C84.1759 364.654 66.699 362.863 66.699 362.863Z" fill="black"/>
<path opacity="0.1" d="M125.42 350.64C125.42 350.64 132.108 349.924 137.726 354.958C143.343 359.991 125.42 350.64 125.42 350.64Z" fill="black"/>
<g opacity="0.1">
<path opacity="0.1" d="M135.207 35.7184C134.244 36.4087 133.008 36.9036 132.367 37.8218C131.819 38.6097 131.803 39.58 131.365 40.4265C130.927 41.2731 129.652 41.9634 128.768 41.4294C128.565 35.5687 125.091 30.0661 120.828 25.3775C119.636 23.9626 118.187 22.7104 116.533 21.6658C114.858 20.6179 112.774 20.1279 110.689 20.2918C108.342 20.5588 106.276 21.8872 103.906 22.05C100.777 22.2714 97.9683 20.4676 94.8625 20.3764C93.6003 20.3869 92.3555 20.6218 91.2113 21.0654C90.0671 21.509 89.0501 22.1511 88.2284 22.9486C86.5953 24.552 85.3828 26.4218 84.6689 28.4381C83.4395 31.4979 82.7697 34.694 82.6818 37.9195C82.6349 39.7363 82.4315 42.0024 80.4131 42.6797C80.4601 43.1607 80.4601 43.6442 80.4131 44.1253C82.4471 43.4741 82.6505 41.1819 82.6975 39.3586C82.7846 36.1331 83.4545 32.9368 84.6845 29.8773C85.3986 27.859 86.6109 25.987 88.2441 24.3812C89.0675 23.5859 90.085 22.9457 91.2289 22.5033C92.3728 22.0609 93.6169 21.8265 94.8781 21.8155C98.0074 21.9067 100.824 23.704 103.922 23.4891C106.269 23.3263 108.35 21.9914 110.704 21.7309C112.79 21.5671 114.874 22.057 116.548 23.1049C118.202 24.1495 119.651 25.4017 120.843 26.8167C125.107 31.4987 128.58 36.9883 128.784 42.862C129.668 43.4025 130.943 42.6992 131.381 41.8657C131.819 41.0321 131.835 40.0554 132.382 39.2609C133.024 38.3427 134.26 37.8543 135.222 37.1641C137.663 35.4124 138.273 32.4625 138.179 29.7861C138.179 29.7015 138.179 29.6168 138.179 29.5387C138.031 31.8569 137.287 34.2207 135.207 35.7184Z" fill="black"/>
<path opacity="0.1" d="M77.4559 35.2561C75.6565 33.6086 73.2001 32.5081 71.5494 30.7629C70.1594 29.2179 69.3656 27.3582 69.2728 25.4296C69.0266 27.8396 69.8351 30.2425 71.5494 32.1955C73.2001 33.9472 75.6565 35.0477 77.4559 36.6952C79.1834 38.3067 80.2206 40.3494 80.4052 42.5038C80.525 41.1927 80.3255 39.8749 79.8187 38.6295C79.3119 37.3841 78.5082 36.2367 77.4559 35.2561Z" fill="black"/>
<path opacity="0.1" d="M139.705 15.5967C139.243 17.1921 138.422 18.7094 138.046 20.3178C137.824 21.3926 137.743 22.4843 137.804 23.5738C137.83 22.9532 137.911 22.3351 138.046 21.7244C138.422 20.1094 139.243 18.5987 139.705 17.0033C139.974 16.1233 140.061 15.2117 139.963 14.3073C139.914 14.7417 139.828 15.1727 139.705 15.5967Z" fill="black"/>
</g>
</svg>
