<svg width="100" height="100" viewBox="0 0 100 100" fill="none" xmlns="http://www.w3.org/2000/svg">
<path d="M73.0788 0H72.8389C63.2959 0 54.8562 5.25125 50.0016 13.0001C45.1469 5.25125 36.7073 0 27.1643 0H26.9244C19.7627 0.0709731 12.9172 3.07826 7.87566 8.36833C2.83411 13.6584 0.0038878 20.8038 0 28.2517C0 37.5004 3.89523 50.6236 11.4906 61.4221C25.9618 81.9981 50.0016 100 50.0016 100C50.0016 100 74.0414 82.0014 88.5094 61.4221C96.1079 50.6236 100 37.5004 100 28.2517C99.9961 20.8044 97.1663 13.6595 92.1255 8.36949C87.0846 3.07951 80.24 0.0718438 73.0788 0ZM69.6472 63.0051C68.5604 63.0008 67.5002 62.6548 66.6059 62.0127C65.7115 61.3705 65.0248 60.4621 64.6359 59.4067H58.9306C58.5549 59.4043 58.1893 59.2799 57.8848 59.0509C57.5804 58.822 57.3523 58.4999 57.2324 58.1296L55.4799 52.6389L49.9344 72.7893C49.8264 73.1772 49.6004 73.5182 49.2901 73.761C48.9799 74.0039 48.6022 74.1355 48.2139 74.1362H48.1019C47.6968 74.1158 47.3106 73.9514 47.0079 73.6706C46.7052 73.3897 46.5044 73.0094 46.439 72.593L40.724 36.8486L36.5474 57.9999C36.4516 58.4017 36.2292 58.7586 35.9156 59.0136C35.602 59.2686 35.2153 59.407 34.8172 59.4067H26.7805C26.5396 59.4173 26.2991 59.3771 26.0735 59.2886C25.8479 59.2 25.6419 59.0649 25.4678 58.8914C25.2937 58.7178 25.1552 58.5095 25.0606 58.2789C24.966 58.0482 24.9172 57.8001 24.9172 57.5493C24.9172 57.2985 24.966 57.0504 25.0606 56.8198C25.1552 56.5891 25.2937 56.3808 25.4678 56.2072C25.6419 56.0337 25.8479 55.8986 26.0735 55.8101C26.2991 55.7215 26.5396 55.6813 26.7805 55.6919H33.4101L39.3265 27.254C39.4236 26.8335 39.6582 26.4612 39.99 26.2007C40.3219 25.9402 40.7305 25.8076 41.1459 25.8257C41.5614 25.8438 41.9579 26.0113 42.2677 26.2998C42.5775 26.5882 42.7813 26.9796 42.8443 27.407L48.6808 63.8698L53.6506 45.8412C53.754 45.4615 53.9728 45.1268 54.2743 44.8871C54.5757 44.6473 54.9437 44.5154 55.3232 44.511H55.3583C55.7342 44.5111 56.1004 44.6346 56.4048 44.8639C56.7091 45.0933 56.9361 45.4167 57.0533 45.788L60.2226 55.7019H64.5655C64.8743 54.7263 65.4363 53.8585 66.1894 53.1941C66.9425 52.5297 67.8576 52.0946 68.8335 51.9368C69.8094 51.7791 70.8082 51.9048 71.7197 52.3001C72.6313 52.6954 73.4201 53.3449 73.9991 54.1769C74.578 55.0089 74.9247 55.9912 75.0008 57.0151C75.0769 58.0391 74.8794 59.0651 74.4302 59.9797C73.981 60.8944 73.2975 61.6622 72.4552 62.1984C71.6129 62.7346 70.6445 63.0184 69.6568 63.0184L69.6472 63.0051Z" fill="#DDEFEF"/>
</svg>
