<svg width="200" height="150" viewBox="0 0 200 150" fill="none" xmlns="http://www.w3.org/2000/svg">
<path d="M143.333 140H50C48.1602 140 46.6668 141.12 46.6668 142.5V147.5C46.6668 148.88 48.1602 150 50 150C51.8399 150 53.3332 148.88 53.3332 147.5V145H143.333C145.173 145 146.666 143.88 146.666 142.5C146.666 141.12 145.173 140 143.333 140Z" fill="#F56E5D"/>
<path d="M73.3332 62.4999C73.3332 63.8798 74.8266 64.9998 76.6664 64.9998H90C91.8398 64.9998 93.3332 63.8798 93.3332 62.4999V47.4999C93.3332 46.12 91.8398 45 90 45H76.6668C74.8269 45 73.3336 46.12 73.3336 47.4999V62.4999H73.3332ZM80 50.0001H86.6668V60H80V50.0001Z" fill="#F56E5D"/>
<path d="M43.3332 30H3.3332C1.49336 30 0 31.12 0 32.4999V82.5C0 83.8799 1.49336 84.9999 3.3332 84.9999C5.17305 84.9999 6.66641 83.8799 6.66641 82.5V35.0001H43.3332C45.173 35.0001 46.6664 33.8801 46.6664 32.5002C46.6664 31.1203 45.1734 30 43.3332 30Z" fill="#F56E5D"/>
<path d="M160 122.5C160 123.88 161.493 125 163.333 125H176.666C178.506 125 180 123.88 180 122.5V107.5C180 106.12 178.506 105 176.666 105H163.333C161.493 105 160 106.12 160 107.5V122.5ZM166.667 110H173.334V120H166.667V110Z" fill="#F56E5D"/>
<path d="M16.6668 90C0.189844 90 0 122.175 0 122.5C0 128.537 5.73672 133.585 13.3332 134.747V147.5C13.3332 148.88 14.8266 150 16.6664 150C18.5063 150 19.9996 148.88 19.9996 147.5V134.747C27.5961 133.585 33.3328 128.537 33.3328 122.5C33.3332 122.175 33.1434 90 16.6668 90ZM16.6668 130C11.1535 130 6.6668 126.635 6.6668 122.5C6.6668 110.045 11.127 94.9998 16.6668 94.9998C22.2066 94.9998 26.6668 110.045 26.6668 122.5C26.6668 126.635 22.1801 130 16.6668 130Z" fill="#F56E5D"/>
<path d="M36.6668 75H23.3332C21.4934 75 20 76.12 20 77.4999V82.5C20 83.8799 21.4934 84.9999 23.3332 84.9999C25.173 84.9999 26.6664 83.8799 26.6664 82.5V80.0001H33.3332V92.5002C33.3332 93.8801 34.8266 95.0001 36.6664 95.0001C38.5062 95.0001 39.9996 93.8801 39.9996 92.5002V77.5002C40 76.12 38.5066 75 36.6668 75Z" fill="#F56E5D"/>
<path d="M163.333 65.0001H176.666C178.506 65.0001 180 63.8801 180 62.5002V47.5002C180 46.1203 178.506 45.0003 176.666 45.0003H163.333C161.493 45.0003 160 46.1203 160 47.5002V62.5002C160 63.8801 161.493 65.0001 163.333 65.0001ZM166.667 50.0001H173.334V60H166.667V50.0001Z" fill="#F56E5D"/>
<path d="M36.6668 45H23.3332C21.4934 45 20 46.12 20 47.4999V62.4999C20 63.8798 21.4934 64.9998 23.3332 64.9998H36.6664C38.5062 64.9998 39.9996 63.8798 39.9996 62.4999V47.4999C40 46.12 38.5066 45 36.6668 45ZM33.3332 60H26.6668V50.0001H33.3336V60H33.3332Z" fill="#F56E5D"/>
<path d="M106.667 62.4999C106.667 63.8798 108.16 64.9998 110 64.9998H123.333C125.173 64.9998 126.666 63.8798 126.666 62.4999V47.4999C126.666 46.12 125.173 45 123.333 45H110C108.16 45 106.667 46.12 106.667 47.4999V62.4999ZM113.333 50.0001H120V60H113.333V50.0001Z" fill="#F56E5D"/>
<path d="M196.667 30H156.667C154.827 30 153.334 31.12 153.334 32.4999C153.334 33.8798 154.827 34.9998 156.667 34.9998H193.334V135.46C192.287 135.18 191.177 135 190 135C189.424 135 188.85 135.038 188.287 135.113C185.987 132.005 181.611 130 176.667 130C171.724 130 167.347 132.005 165.047 135.113C164.484 135.038 163.911 135 163.334 135C157.821 135 153.334 138.365 153.334 142.5C153.334 146.635 157.821 150 163.334 150H190C195.513 150 200 146.635 200 142.5V32.4999C200 31.12 198.507 30 196.667 30ZM190 145H163.333C161.496 145 160 143.878 160 142.5C160 141.122 161.496 140 163.333 140C163.973 140 164.58 140.138 165.14 140.408C166.053 140.848 167.193 140.928 168.2 140.623C169.207 140.318 169.95 139.663 170.193 138.87C170.897 136.593 173.56 135 176.667 135C179.773 135 182.437 136.593 183.14 138.87C183.384 139.663 184.127 140.318 185.134 140.623C186.137 140.928 187.28 140.848 188.194 140.408C190.364 139.358 193.334 140.643 193.334 142.5C193.333 143.878 191.837 145 190 145Z" fill="#F56E5D"/>
<path d="M110 35.0001H123.333C125.173 35.0001 126.666 33.8801 126.666 32.5002V17.5002C126.666 16.1203 125.173 15.0003 123.333 15.0003H110C108.16 15.0003 106.667 16.1203 106.667 17.5002V32.5002C106.667 33.8801 108.16 35.0001 110 35.0001ZM113.333 20.0001H120V30H113.333V20.0001Z" fill="#F56E5D"/>
<path d="M106.667 92.4999C106.667 93.8798 108.16 94.9998 110 94.9998H123.333C125.173 94.9998 126.666 93.8798 126.666 92.4999V77.4999C126.666 76.12 125.173 75 123.333 75H110C108.16 75 106.667 76.12 106.667 77.4999V92.4999ZM113.333 80.0001H120V90H113.333V80.0001Z" fill="#F56E5D"/>
<path d="M76.6668 35.0001H90C91.8398 35.0001 93.3332 33.8801 93.3332 32.5002V17.5002C93.3332 16.1203 91.8398 15.0003 90 15.0003H76.6668C74.8269 15.0003 73.3336 16.1203 73.3336 17.5002V32.5002C73.3332 33.8801 74.8266 35.0001 76.6668 35.0001ZM80 20.0001H86.6668V30H80V20.0001Z" fill="#F56E5D"/>
<path d="M97.6332 120.725C97.0332 121.2 96.6664 121.85 96.6664 122.5C96.6664 123.15 97.0332 123.8 97.6332 124.275C98.2664 124.725 99.1332 125 100 125C100.867 125 101.733 124.725 102.367 124.275C102.967 123.8 103.334 123.15 103.334 122.5C103.334 121.85 102.967 121.2 102.367 120.725C101.1 119.8 98.9 119.8 97.6332 120.725Z" fill="#F56E5D"/>
<path d="M73.3332 92.4999C73.3332 93.8798 74.8266 94.9998 76.6664 94.9998H90C91.8398 94.9998 93.3332 93.8798 93.3332 92.4999V77.4999C93.3332 76.12 91.8398 75 90 75H76.6668C74.8269 75 73.3336 76.12 73.3336 77.4999V92.4999H73.3332ZM80 80.0001H86.6668V90H80V80.0001Z" fill="#F56E5D"/>
<path d="M66.6668 107.5C66.6668 108.88 68.1602 110 70 110H80V132.5C80 133.88 81.4934 135 83.3332 135C85.1731 135 86.6664 133.88 86.6664 132.5V110H113.333V132.5C113.333 133.88 114.827 135 116.666 135C118.506 135 120 133.88 120 132.5V110H130C131.839 110 133.333 108.88 133.333 107.5C133.333 106.12 131.839 105 130 105H70C68.1602 105 66.6668 106.12 66.6668 107.5Z" fill="#F56E5D"/>
<path d="M160 92.4999C160 93.8798 161.493 94.9998 163.333 94.9998H176.666C178.506 94.9998 180 93.8798 180 92.4999V77.4999C180 76.12 178.506 75 176.666 75H163.333C161.493 75 160 76.12 160 77.4999V92.4999ZM166.667 80.0001H173.334V90H166.667V80.0001Z" fill="#F56E5D"/>
<path d="M143.333 0H56.6668C54.8269 0 53.3336 1.12002 53.3336 2.4999V132.5C53.3336 133.88 54.8269 135 56.6668 135C58.5066 135 60 133.88 60 132.5V4.9998H140V132.5C140 133.88 141.493 135 143.333 135C145.173 135 146.666 133.88 146.666 132.5V2.4999C146.667 1.12002 145.173 0 143.333 0Z" fill="#F56E5D"/>
</svg>
