<svg width="400" height="400" viewBox="0 0 400 400" fill="none" xmlns="http://www.w3.org/2000/svg">
<g clip-path="url(#clip1)">
<path d="M48.3371 400L47.6507 399.746C55.3044 343.911 74.539 293.207 101.811 256.975C122.43 229.625 146.953 211.333 173.07 203.822C199.188 196.31 226.041 199.827 251.102 214.04C276.163 228.252 298.606 252.694 316.319 285.064C334.031 317.433 346.431 356.665 352.349 399.065L351.664 399.321C335.462 282.625 273.115 201.122 200.047 201.122C127.937 201.122 64.1335 284.762 48.3371 400Z" fill="#3F3D56"/>
<path d="M146.749 71.3988C157.302 71.3988 165.857 57.3649 165.857 40.0531C165.857 22.7414 157.302 8.70746 146.749 8.70746C136.196 8.70746 127.641 22.7414 127.641 40.0531C127.641 57.3649 136.196 71.3988 146.749 71.3988Z" fill="#F56E5D"/>
<path d="M64.4259 392.879C65.0218 396.493 67.063 398.731 67.063 398.731C67.063 398.731 68.138 395.11 67.5421 391.496C66.9462 387.883 64.9049 385.644 64.9049 385.644C64.9049 385.644 63.8299 389.265 64.4259 392.879Z" fill="#3F3D56"/>
<path d="M65.3016 392.103C66.9368 394.714 67.1366 398.728 67.1366 398.728C67.1366 398.728 64.685 398.508 63.0498 395.897C61.4145 393.286 61.2148 389.272 61.2148 389.272C61.2148 389.272 63.6663 389.491 65.3016 392.103Z" fill="#458FF6"/>
<path d="M109.808 392.879C110.404 396.493 112.446 398.731 112.446 398.731C112.446 398.731 113.521 395.11 112.925 391.496C112.329 387.883 110.288 385.644 110.288 385.644C110.288 385.644 109.213 389.265 109.808 392.879Z" fill="#3F3D56"/>
<path d="M110.684 392.103C112.319 394.714 112.519 398.728 112.519 398.728C112.519 398.728 110.068 398.508 108.432 395.897C106.797 393.286 106.597 389.272 106.597 389.272C106.597 389.272 109.049 389.491 110.684 392.103Z" fill="#458FF6"/>
<path d="M118.807 105.027L111.622 95.5967L151.859 36.6631H253.889V88.5248L187.785 161.603L118.807 105.027Z" fill="#3F3D56"/>
<path d="M272.491 69.7215V37.8404H258.945V45.6481L253.889 36.6631L220.837 95.5967L207.904 109.741L187.85 350.085L218.093 399.696H288.378V97.9542L272.491 69.7215Z" fill="#CCCCCC"/>
<path d="M220.837 95.5969H111.622V399.696H220.837V95.5969Z" fill="#F2F2F2"/>
<path d="M174.133 325.439H154.015V399.696H174.133V325.439Z" fill="#CCCCCC"/>
<path d="M132.459 346.655V334.868H123.837V346.655H131.741H132.459Z" fill="#3F3D56"/>
<path d="M131.741 356.084H123.837V367.871H132.459V356.084H131.741Z" fill="#3F3D56"/>
<path d="M146.83 334.869H138.207V346.655H146.83V334.869Z" fill="#3F3D56"/>
<path d="M146.83 356.085H138.207V367.872H146.83V356.085Z" fill="#3F3D56"/>
<path d="M191.378 346.655V334.868H182.756V346.655H190.659H191.378Z" fill="#3F3D56"/>
<path d="M190.659 356.084H182.756V367.871H191.378V356.084H190.659Z" fill="#3F3D56"/>
<path d="M205.748 334.869H197.126V346.655H205.748V334.869Z" fill="#3F3D56"/>
<path d="M205.748 356.085H197.126V367.872H205.748V356.085Z" fill="#3F3D56"/>
<path d="M251.733 110.919V99.1332H243.111V110.919H251.015H251.733Z" fill="#3F3D56"/>
<path d="M251.015 120.349H243.111V132.136H251.733V120.349H251.015Z" fill="#3F3D56"/>
<path d="M266.104 99.1329H257.482V110.92H266.104V99.1329Z" fill="#3F3D56"/>
<path d="M266.104 120.349H257.482V132.136H266.104V120.349Z" fill="#3F3D56"/>
<path d="M251.733 176.926V165.139H243.111V176.926H251.015H251.733Z" fill="#3F3D56"/>
<path d="M251.015 186.355H243.111V198.142H251.733V186.355H251.015Z" fill="#3F3D56"/>
<path d="M266.104 165.139H257.482V176.926H266.104V165.139Z" fill="#3F3D56"/>
<path d="M266.104 186.355H257.482V198.142H266.104V186.355Z" fill="#3F3D56"/>
<path d="M251.733 242.932V231.145H243.111V242.932H251.015H251.733Z" fill="#3F3D56"/>
<path d="M251.015 252.361H243.111V264.148H251.733V252.361H251.015Z" fill="#3F3D56"/>
<path d="M266.104 231.145H257.482V242.932H266.104V231.145Z" fill="#3F3D56"/>
<path d="M266.104 252.361H257.482V264.148H266.104V252.361Z" fill="#3F3D56"/>
<path d="M251.733 308.938V297.151H243.111V308.938H251.015H251.733Z" fill="#3F3D56"/>
<path d="M251.015 318.367H243.111V330.154H251.733V318.367H251.015Z" fill="#3F3D56"/>
<path d="M266.104 297.151H257.482V308.938H266.104V297.151Z" fill="#3F3D56"/>
<path d="M266.104 318.367H257.482V330.154H266.104V318.367Z" fill="#3F3D56"/>
<path d="M207.185 110.92H123.837V139.208H207.185V110.92Z" fill="#3F3D56"/>
<path d="M207.185 167.496H123.837V195.785H207.185V167.496Z" fill="#3F3D56"/>
<path d="M207.185 224.073H123.837V252.361H207.185V224.073Z" fill="#3F3D56"/>
<path d="M207.185 280.649H123.837V308.938H207.185V280.649Z" fill="#3F3D56"/>
<path d="M400 398.509H0V399.663H400V398.509Z" fill="#3F3D56"/>
<path d="M69.0518 265.247H66.985V399.167H69.0518V265.247Z" fill="#3F3D56"/>
<path d="M88.1257 282.314C88.2572 329.142 68.1733 367.257 68.1733 367.257C68.1733 367.257 47.876 329.447 47.7444 282.619C47.6129 235.79 67.6968 197.676 67.6968 197.676C67.6968 197.676 87.9941 235.485 88.1257 282.314Z" fill="#458FF6"/>
<path opacity="0.1" d="M88.1257 282.314C88.2572 329.142 68.1733 367.257 68.1733 367.257C68.1733 367.257 47.876 329.447 47.7444 282.619C47.6129 235.79 67.6968 197.676 67.6968 197.676C67.6968 197.676 87.9941 235.485 88.1257 282.314Z" fill="black"/>
<path d="M42.1839 265.247H40.1171V399.167H42.1839V265.247Z" fill="#3F3D56"/>
<path d="M61.2577 282.314C61.3893 329.142 41.3054 367.257 41.3054 367.257C41.3054 367.257 21.0081 329.447 20.8765 282.619C20.745 235.79 40.8289 197.676 40.8289 197.676C40.8289 197.676 61.1262 235.485 61.2577 282.314Z" fill="#458FF6"/>
<path d="M332.649 95.4076C316.369 95.5306 303.117 95.9252 303.117 95.9252C303.117 95.9252 318.869 61.6985 332.59 74.3793C346.311 87.06 362.073 95.4794 362.073 95.4794C362.073 95.4794 348.929 95.2845 332.649 95.4076Z" fill="#F2F2F2"/>
<path d="M61.4088 161.198C45.1285 161.321 31.877 161.716 31.877 161.716C31.877 161.716 47.6285 127.489 61.3497 140.17C75.0709 152.85 90.8331 161.27 90.8331 161.27C90.8331 161.27 77.6891 161.075 61.4088 161.198Z" fill="#F2F2F2"/>
<path d="M120.512 23.8462C104.231 23.9693 90.9799 24.3639 90.9799 24.3639C90.9799 24.3639 106.731 -9.8628 120.453 2.81793C134.174 15.4987 149.936 23.9181 149.936 23.9181C149.936 23.9181 136.792 23.7231 120.512 23.8462Z" fill="#F2F2F2"/>
<path d="M366.194 265.247H364.128V399.167H366.194V265.247Z" fill="#3F3D56"/>
<path d="M385.268 282.314C385.4 329.142 365.316 367.257 365.316 367.257C365.316 367.257 345.019 329.447 344.887 282.619C344.756 235.79 364.839 197.676 364.839 197.676C364.839 197.676 385.137 235.485 385.268 282.314Z" fill="#458FF6"/>
<path d="M290.12 316.041H310.978V307.782H322.486V316.041H344.063V352.617H322.486V398.631H310.978V352.617H290.12L279.332 332.559L290.12 316.041Z" fill="#3F3D56"/>
</g>
<defs>
<clipPath id="clip0">
<rect width="400" height="400" fill="white"/>
</clipPath>
</defs>
</svg>
