<svg width="111" height="157" viewBox="0 0 111 157" fill="none" xmlns="http://www.w3.org/2000/svg">
<g id="bulb">
<path id="Vector" d="M42.8659 147.138H67.3264C67.3264 149.577 66.3091 151.916 64.4984 153.641C62.6876 155.365 60.2317 156.334 57.6709 156.334H52.5213C49.9605 156.334 47.5046 155.365 45.6939 153.641C43.8831 151.916 42.8658 149.577 42.8658 147.138H42.8659Z" fill="#3F3D56"/>
<path id="Vector_2" d="M73.0417 126.547V118.001C73.0417 107.674 84.8334 97.9062 92.4827 90.9373C103.265 81.1197 108.933 67.9298 108.933 52.4786C108.933 38.9034 103.281 25.8822 93.217 16.2698C83.153 6.65742 69.4979 1.23827 55.2455 1.20051C40.9931 1.16275 27.3065 6.50946 17.1865 16.0684C7.06647 25.6273 1.33889 38.6184 1.25949 52.1933C1.25921 52.2884 1.25921 52.3835 1.25949 52.4786C1.25949 67.3778 7.1703 81.4616 17.7096 90.9373C25.3177 97.778 37.1506 107.567 37.1506 118.001V126.547" fill="url(#paint4_linear)"/>
<path id="Vector_3" d="M73.0417 127.747C72.8764 127.747 72.7126 127.716 72.5598 127.655C72.407 127.595 72.2681 127.507 72.1512 127.395C72.0342 127.284 71.9415 127.152 71.8782 127.006C71.8149 126.861 71.7823 126.705 71.7823 126.547V118.001C71.7823 107.954 82.1848 98.5758 89.7804 91.7279C90.4107 91.1593 91.0236 90.6068 91.6121 90.0707C102.119 80.5031 107.673 67.5041 107.673 52.4787C107.673 24.3971 84.5788 2.39986 55.0962 2.39986C55.0468 2.39967 54.9972 2.39967 54.9478 2.39967C41.073 2.4145 27.7689 7.66127 17.9442 16.9928C8.11944 26.3243 2.57347 38.9814 2.51883 52.1967V52.4761C2.51883 67.1915 8.37067 80.8912 18.5741 90.0652C19.091 90.5302 19.6279 91.009 20.1791 91.5002C27.8729 98.3614 38.41 107.758 38.41 118.001V126.547C38.41 126.865 38.2773 127.17 38.0411 127.395C37.8049 127.62 37.4846 127.747 37.1506 127.747C36.8166 127.747 36.4962 127.62 36.26 127.395C36.0239 127.17 35.8912 126.865 35.8912 126.547V118.001C35.8912 108.798 25.8149 99.8128 18.4576 93.2515C17.9038 92.7579 17.3645 92.2769 16.845 91.8099C6.13984 82.1845 0 67.8489 0 52.4787V52.1909C0.0844561 23.3834 24.72 0.000509709 54.9441 0.000509709C54.9978 0.000509709 55.0461 0.000509021 55.0996 0.00070495C62.3453 -0.0351595 69.5266 1.29777 76.2279 3.92237C82.9293 6.54698 89.0178 10.4112 94.1412 15.2914C99.2645 20.1716 103.321 25.971 106.076 32.3541C108.831 38.7372 110.23 45.5773 110.192 52.4787C110.192 68.1749 104.369 81.7737 93.353 91.8048C92.7616 92.3433 92.1454 92.8989 91.5118 93.4702C84.2485 100.019 74.3011 108.987 74.3011 118.001V126.547C74.3012 126.705 74.2686 126.861 74.2053 127.006C74.142 127.152 74.0492 127.284 73.9323 127.395C73.8154 127.507 73.6765 127.595 73.5237 127.655C73.3709 127.716 73.2071 127.747 73.0417 127.747Z" fill="#3F3D56"/>
<path id="Vector_4" d="M67.0597 143.139H43.1323C42.5756 143.139 42.0417 142.929 41.6481 142.554C41.2545 142.179 41.0333 141.67 41.0333 141.14C41.0333 140.61 41.2545 140.101 41.6481 139.726C42.0417 139.351 42.5756 139.141 43.1323 139.141H67.0597C67.6164 139.141 68.1503 139.351 68.5439 139.726C68.9376 140.101 69.1587 140.61 69.1587 141.14C69.1587 141.67 68.9376 142.179 68.5439 142.554C68.1503 142.929 67.6164 143.139 67.0597 143.139V143.139Z" fill="url(#paint1_linear)"/>
<path id="Vector_5" d="M73.0418 136.043H37.1506C36.5939 136.043 36.06 135.832 35.6664 135.457C35.2727 135.082 35.0516 134.574 35.0516 134.044C35.0516 133.513 35.2727 133.005 35.6664 132.63C36.06 132.255 36.5939 132.044 37.1506 132.044H73.0418C73.5984 132.044 74.1323 132.255 74.526 132.63C74.9196 133.005 75.1408 133.513 75.1408 134.044C75.1408 134.574 74.9196 135.082 74.526 135.457C74.1323 135.832 73.5984 136.043 73.0418 136.043Z" fill="url(#paint2_linear)"/>
<path id="Vector_6" d="M55.0962 128.546C54.8206 128.546 54.5476 128.495 54.2929 128.394C54.0383 128.294 53.8069 128.147 53.612 127.961C53.4171 127.775 53.2624 127.555 53.157 127.312C53.0515 127.07 52.9972 126.81 52.9972 126.547V80.9665C52.9972 80.4362 53.2183 79.9277 53.612 79.5528C54.0056 79.1778 54.5395 78.9672 55.0962 78.9672C55.6529 78.9672 56.1868 79.1778 56.5804 79.5528C56.9741 79.9277 57.1952 80.4362 57.1952 80.9665V126.547C57.1952 126.81 57.1409 127.07 57.0355 127.312C56.93 127.555 56.7754 127.775 56.5804 127.961C56.3855 128.147 56.1541 128.294 55.8995 128.394C55.6448 128.495 55.3719 128.546 55.0962 128.546V128.546Z" fill="white"/>
<path id="Vector_7" d="M55.0962 82.9658C48.3141 82.9658 39.9875 77.1218 39.6364 76.8731C39.4152 76.7163 39.2287 76.5197 39.0873 76.2943C38.9459 76.0689 38.8525 75.8192 38.8125 75.5594C38.7724 75.2997 38.7865 75.0349 38.8539 74.7803C38.9212 74.5257 39.0406 74.2863 39.2051 74.0756C39.3697 73.865 39.5761 73.6873 39.8128 73.5526C40.0494 73.418 40.3116 73.329 40.5843 73.2909C40.857 73.2527 41.135 73.2661 41.4023 73.3303C41.6695 73.3945 41.9209 73.5081 42.1421 73.6649C44.2282 75.1391 50.6243 78.9672 55.0962 78.9672C59.5681 78.9672 65.9641 75.1391 68.0512 73.6641C68.2725 73.5074 68.5239 73.3938 68.7912 73.3297C69.0585 73.2656 69.3365 73.2523 69.6092 73.2906C69.8819 73.3288 70.1441 73.4178 70.3807 73.5525C70.6173 73.6872 70.8237 73.865 70.9881 74.0757C71.1526 74.2864 71.2719 74.5259 71.3392 74.7805C71.4064 75.0352 71.4204 75.2999 71.3803 75.5597C71.3401 75.8194 71.2467 76.0691 71.1052 76.2944C70.9638 76.5198 70.7771 76.7164 70.5559 76.8731C70.2048 77.1218 61.8782 82.9658 55.0962 82.9658Z" fill="white"/>
</g>
<defs>
<linearGradient id="paint4_linear" x1="1" y1="64" x2="109" y2="64" gradientUnits="userSpaceOnUse">
<stop offset="0.28125" stop-color="#F76059"/>
<stop offset="1" stop-color="#35FCEF"/>
</linearGradient>
<linearGradient id="paint1_linear" x1="55.096" y1="139.141" x2="55.096" y2="143.139" gradientUnits="userSpaceOnUse">
<stop offset="0.317708" stop-color="#F76059"/>
<stop offset="1" stop-color="#35FCEF"/>
</linearGradient>
<linearGradient id="paint2_linear" x1="55.0962" y1="132.044" x2="55.0962" y2="136.043" gradientUnits="userSpaceOnUse">
<stop offset="0.317708" stop-color="#F76059"/>
<stop offset="1" stop-color="#35FCEF"/>
</linearGradient>
</defs>
</svg>
