<svg width="201" height="150" viewBox="0 0 201 150" fill="none" xmlns="http://www.w3.org/2000/svg">
<g clip-path="url(#clip0)">
<path d="M53.8271 41.6255C52.0734 41.6255 50.6386 42.7016 50.6386 44.0168V45.3321C50.6784 46.8865 49.0443 48.142 46.9718 48.2018H46.9319C44.8195 48.2018 43.1057 46.9164 43.0658 45.3321V44.0168C43.0658 42.7016 41.631 41.6255 39.8773 41.6255C38.1236 41.6255 36.6888 42.7016 36.6888 44.0168V45.3321C36.7286 47.3648 37.8048 49.3078 39.7577 50.7426C41.631 52.1775 44.2217 52.9846 46.892 52.9846C52.5118 52.9846 57.0156 49.5768 57.0156 45.3321V44.0168C57.0156 42.7016 55.5808 41.6255 53.8271 41.6255Z" fill="url(#paint4_linear)"/>
<path d="M88.9008 41.6553C87.1471 41.6553 85.7123 42.7314 85.7123 44.0467V45.362C85.7123 46.9164 83.9985 48.2017 81.9259 48.2017C79.8534 48.2017 78.1396 46.9164 78.1396 45.362V44.0467C78.1396 42.7314 76.7047 41.6553 74.951 41.6553C73.1973 41.6553 71.7625 42.7314 71.7625 44.0467V45.362C71.7625 49.5768 76.346 52.9845 81.9658 52.9845C87.5855 52.9845 92.1292 49.5469 92.0893 45.362V44.0467C92.0893 42.7314 90.6545 41.6553 88.9008 41.6553Z" fill="url(#paint4_linear)"/>
<path d="M153.349 79.1404C138.721 79.1105 124.931 84.2221 116.123 92.9806C111.141 90.5892 105.362 89.3038 99.4628 89.3038H82.5237V85.1189C89.8175 82.6677 96.075 78.8116 100.658 73.9092C105.362 68.9172 108.112 63.0583 108.59 56.9603C113.731 56.0635 117.398 52.6259 117.438 48.6801C117.438 46.4082 116.242 44.2261 114.09 42.6119C112.615 41.5358 110.822 40.7586 108.829 40.3999V26.5298H115.366C117.119 26.5298 118.554 25.4537 118.554 24.1384C118.514 11.2847 104.644 0.852249 87.466 0.822357H58.7693C54.2256 0.792464 49.8813 2.13762 46.6529 4.55891C45.776 5.21654 44.9789 5.93396 44.3412 6.74105C30.1124 7.24922 22.739 15.2903 20.5867 22.8829C20.5867 22.9128 20.5867 22.9128 20.5867 22.9427C20.4671 23.5107 20.3874 24.0786 20.3874 24.6466V40.2803C18.0758 40.5493 15.9634 41.3863 14.3292 42.6418C9.86531 45.9599 9.86531 51.3704 14.2894 54.7183C15.9634 55.9738 18.1156 56.8108 20.4671 57.1097C21.623 69.8439 32.464 80.934 48.287 85.657V89.3038H31.348C14.13 89.3038 0.0606079 99.9455 0.0606079 112.829V142.094C0.100464 143.439 1.49544 144.545 3.32884 144.605H128.558C128.957 144.575 129.395 144.515 129.754 144.366C136.928 147.534 145.098 149.178 153.389 149.178C179.136 149.178 200.061 133.455 200.061 114.174C200.061 94.8937 179.096 79.1404 153.349 79.1404ZM20.3476 52.1177C18.3547 51.5497 17.3185 50.2046 17.3185 48.6801C17.3185 47.6936 17.8366 46.7371 18.7932 46.0196C19.2316 45.6609 19.7497 45.3919 20.3476 45.2126V52.1177ZM109.626 46.0495C110.583 46.7371 111.141 47.6936 111.141 48.6801C111.141 49.9953 109.985 51.1611 108.789 51.8188V45.5414C108.829 45.6609 109.387 45.8403 109.626 46.0495ZM49.0841 10.1189C49.6023 9.2819 50.3197 8.56449 51.1567 7.93675C53.1893 6.44213 55.8996 5.57525 58.7693 5.60514H87.466C99.9012 5.54535 110.423 12.4804 111.938 21.747H58.7693C58.6497 21.747 58.57 21.7171 58.4504 21.7171C58.3308 21.7171 58.2511 21.6872 58.1316 21.6872C52.4321 21.4481 48.008 17.9208 48.008 13.6462C48.008 12.4206 48.3667 11.2249 49.0841 10.1189ZM26.7246 24.6466C26.7246 24.3776 26.7645 24.1085 26.8043 23.8694C27.163 22.584 28.3189 19.3556 31.2683 16.5458C33.8589 14.0049 37.6054 12.301 41.8302 11.763C40.6744 17.592 44.939 23.2715 52.2328 25.5135C42.5078 33.2855 31.5074 34.2719 26.7246 34.242V24.6466ZM37.8047 74.8957C30.6704 69.5748 26.6848 62.3409 26.7246 54.808V39.0846C33.4205 39.0846 47.729 37.59 59.4867 26.5298H102.452V54.808C102.372 66.6454 92.6074 77.1974 77.8207 81.3823C69.6899 83.6542 60.7621 83.7737 52.5516 81.7112C47.0116 80.3361 41.9498 77.9746 37.8047 74.8957ZM61.3998 139.822H6.39779V112.829C6.43765 102.935 16.7605 94.7741 29.9131 94.2361V100.663C26.9638 101.111 24.2137 102.217 22.1411 103.861C19.1917 106.073 17.5178 109.093 17.5576 112.231V125.414C17.5576 126.729 18.833 127.865 20.5867 127.865H25.6086C27.3623 127.865 28.7972 126.789 28.7972 125.474C28.7972 124.158 27.3623 123.082 25.6086 123.082H23.9347V112.231C23.8948 110.378 24.8514 108.555 26.605 107.239C28.279 105.924 30.5907 105.177 33.0219 105.147H33.1415C38.3627 105.177 42.5875 108.315 42.6672 112.231V123.082H39.4388C37.6852 123.082 36.2503 124.158 36.2503 125.474C36.2503 126.789 37.6852 127.865 39.4388 127.865H45.7362C47.5297 127.835 49.0044 126.759 49.0443 125.414V112.231C49.0044 106.582 43.6636 101.739 36.2902 100.633V94.0866H50.0407L61.3998 103.293V139.822ZM54.6242 90.8881V87.1217C57.8924 87.6896 61.2005 87.9886 64.5485 87.9886C68.4544 87.9886 72.3603 87.6 76.1467 86.8228V90.7984L64.8274 98.9292L54.6242 90.8881ZM67.7768 139.822V103.353L80.5708 94.0866H86.5094V106.701C80.8099 107.777 76.7844 111.633 76.7445 116.058C76.7844 121.378 82.6035 125.653 89.6581 125.623C96.7525 125.593 102.452 121.229 102.412 115.938C102.372 113.427 101.057 111.036 98.7055 109.242C97.0714 108.046 95.0785 107.179 92.8466 106.701V94.0866H99.4229C104.086 94.0866 108.67 95.103 112.615 96.9862C102.173 111.095 105.8 128.762 121.503 139.822H67.7768ZM89.5385 111.185C91.2523 111.185 92.9263 111.693 94.1618 112.62C96.6728 114.533 96.6728 117.582 94.1618 119.495C91.611 121.408 87.5058 121.408 84.955 119.495C82.4042 117.582 82.4042 114.503 84.955 112.59C86.1507 111.693 87.8247 111.185 89.5385 111.185ZM153.349 144.366C131.109 144.366 113.054 130.854 113.054 114.174C113.054 108.315 115.326 102.576 119.59 97.6737C131.747 83.6841 156.697 79.7383 175.31 88.8554C193.963 97.9726 199.224 116.685 187.067 130.645C179.694 139.194 166.98 144.366 153.349 144.366Z" fill="url(#paint4_linear)"/>
<path d="M168.773 94.9535C167.777 94.8638 166.82 94.8339 165.824 94.8937C163.233 95.0432 160.682 95.372 158.171 95.9101C156.458 96.2389 155.461 97.5541 155.9 98.8395C156.338 100.125 158.092 100.872 159.806 100.543C161.918 100.095 164.11 99.8259 166.302 99.6765C171.563 99.3776 176.147 102.337 176.545 106.253C176.585 106.701 176.585 107.12 176.505 107.568C175.708 113.128 173.078 121.767 165.306 131.871L158.809 122.903C157.972 121.707 156.338 120.99 154.545 120.99C152.711 120.99 151.077 121.767 150.24 122.993L144.421 131.721C136.729 121.677 134.098 113.098 133.301 107.568C132.743 103.622 136.569 100.095 141.83 99.6765C142.269 99.6466 142.667 99.6167 143.106 99.6466C143.704 100.155 144.262 100.693 144.82 101.231C147.809 104.22 153.389 109.75 164.11 108.734C165.864 108.584 167.099 107.389 166.86 106.073C166.621 104.758 165.067 103.832 163.313 104.011C156.258 104.669 152.711 101.171 149.921 98.3612C148.128 96.5677 146.573 95.0432 144.102 94.8937C135.334 94.3855 127.641 99.2879 126.964 105.894C126.884 106.641 126.884 107.359 127.004 108.106C127.92 114.443 130.989 124.457 140.435 136.056C141.352 137.191 143.026 137.849 144.78 137.789C146.533 137.729 148.088 136.952 148.845 135.786L154.584 127.148L160.961 135.936C161.759 137.072 163.313 137.789 165.067 137.849C165.106 137.849 165.146 137.849 165.226 137.849C166.9 137.849 168.494 137.191 169.371 136.115C178.857 124.487 181.926 114.473 182.882 108.106C183.839 101.56 177.502 95.6709 168.773 94.9535Z" fill="url(#paint4_linear)"/>
</g>
<defs>
<clipPath id="clip0">
<rect width="200" height="150" fill="white" transform="translate(0.0606079)"/>
</clipPath>
</defs>
<linearGradient id="paint4_linear" x1="1" y1="64" x2="109" y2="64" gradientUnits="userSpaceOnUse">
<stop offset="0.28125" stop-color="#F76059"/>
<stop offset="1" stop-color="#35FCEF"/>
</linearGradient>
</svg>
