<svg width="250" height="500" viewBox="0 0 250 500" fill="none" xmlns="http://www.w3.org/2000/svg">
<path d="M246.872 178.878C246.872 178.878 242.31 178.431 242.31 173.767C242.31 169.102 239.045 160.392 239.045 160.392C239.045 160.351 236.22 145.221 232.318 142.816C228.416 140.411 223.403 126.289 223.403 126.289C223.403 126.289 222.546 118.626 220.798 116.977C219.05 115.327 216.688 111.289 213.202 105.528C209.717 99.7668 195.187 95.7772 195.187 95.7772C195.187 95.7772 168.916 85.0839 161.471 81.598C160.794 81.3116 160.162 80.9767 159.583 80.5986C158.287 79.4041 152.636 79.3797 152.636 79.3797C152.046 76.7633 151.479 73.7568 151.293 71.0347C151.293 70.7422 151.293 70.4497 151.236 70.1572C159.537 66.7134 165.79 61.2837 168.846 54.8648C168.985 54.5561 169.101 54.231 169.228 53.9223C169.726 53.8073 170.183 53.6207 170.572 53.3744C170.961 53.1282 171.272 52.8277 171.486 52.4922C172.157 51.444 172.169 50.217 173.003 49.2419C173.975 48.0881 175.828 47.4706 177.287 46.6011C180.969 44.4072 181.918 40.7101 181.744 37.3461C181.628 34.624 181.003 31.8776 181.246 29.1717L181.316 28.4892C181.385 28.0829 181.466 27.6766 181.571 27.2866C182.138 25.2715 183.377 23.3701 184.072 21.3712C184.766 19.3723 184.836 17.1215 183.215 15.3989C180.841 12.8718 175.897 12.368 171.555 12.108C166.635 11.8155 162.235 12.1974 159.086 9.32907C157.612 7.82992 155.953 6.42424 154.13 5.12814C153.482 4.70561 147.183 2.00792 147.183 1.82916C141.036 -0.168993 134.068 -0.544053 127.558 0.77283C124.293 1.43913 121.213 2.52796 117.902 3.07237C110.758 4.25871 102.537 2.97487 96.4702 5.8432C93.0894 7.46832 91.0632 10.0523 89.1644 12.5712C87.6206 14.6459 86.0537 16.7179 84.4636 18.7872C81.9048 22.1919 79.2996 25.6534 78.2229 29.4236C77.9964 30.2441 77.8571 31.0752 77.8061 31.9101V31.9507C77.8061 32.2514 77.8061 32.552 77.8061 32.8526V33.2345C77.8061 33.5189 77.8061 33.7952 77.8755 34.0471C77.945 34.299 77.9334 34.3802 77.9681 34.5509C78.0029 34.7215 78.0608 35.1034 78.1302 35.3634C78.1997 35.6235 78.3386 36.0785 78.4776 36.436C78.5355 36.5904 78.6165 36.7367 78.686 36.8829C78.8018 37.1592 78.9407 37.4273 79.0912 37.6955C79.1723 37.8336 79.2533 37.9799 79.346 38.118C79.5196 38.4024 79.7281 38.6787 79.9365 38.9306C80.0291 39.0443 80.0986 39.15 80.1912 39.2556C80.5142 39.6335 80.8699 39.9971 81.2564 40.3444C83.7341 42.514 87.3813 43.8953 90.079 45.9267C90.079 46.0079 90.079 46.0892 90.079 46.1623C90.079 46.3899 90.079 46.6092 90.079 46.8368C90.2221 51.3672 91.9404 55.8045 95.0843 59.7626C98.2281 63.7208 102.702 67.0799 108.118 69.5478C108.118 69.8566 108.176 70.1734 108.199 70.4822C108.425 72.8942 108.382 75.3148 108.072 77.7221C107.6 77.3324 107.01 77.022 106.345 76.8139C105.679 76.6057 104.956 76.5051 104.228 76.5195C103.73 76.5025 103.232 76.5325 102.746 76.6089L102.641 76.552V76.6252C100.094 77.0639 96.9565 78.9247 93.9577 84.2144C93.9577 84.2144 84.8341 91.43 77.8871 91.1293C70.9401 90.8287 53.3527 98.6374 53.3527 98.6374C53.3527 98.6374 36.1937 106.454 32.5118 114.417C30.4538 118.933 27.9865 123.351 25.1249 127.646L3.91346 158.32L0 182.656C0 182.656 2.16514 193.479 1.73674 195.129C1.30835 196.778 10.6404 211.656 10.6404 211.656C10.6404 211.656 41.4734 249.676 54.0706 251.626L54.9737 251.179C55.5127 251.377 56.0843 251.527 56.6757 251.626L59.2692 250.342C59.425 251.773 59.359 253.211 59.0724 254.632C57.3357 258.386 59.7208 282.885 62.7543 287.687C65.7878 292.489 64.711 355.455 64.711 355.455L64.2826 361.012C64.2826 361.012 64.2826 361.191 64.3868 361.5L64.2826 362.816L64.5952 362.93C64.9199 364.693 64.8142 366.482 64.2826 368.22C63.1943 370.658 62.7543 377.548 62.7543 377.548C62.7543 377.548 54.0822 416.453 58.1925 424.27C62.3027 432.087 65.7994 440.651 65.7994 440.651C65.7994 440.651 70.1412 450.402 66.0078 452.068C61.8743 453.734 50.1224 456.529 52.5422 460.592C54.7421 464.346 63.09 474.405 64.3289 475.876L64.2247 476.648L62.5227 489.592C62.7983 491.301 63.4588 492.968 64.4794 494.532C66.3436 497.352 69.9676 500.277 76.8566 499.96C78.0145 499.903 79.3575 499.806 80.6543 499.684C93.2631 498.497 108.79 494.548 108.79 494.548C107.983 494.189 107.244 493.76 106.59 493.273C105.97 492.851 105.479 492.346 105.146 491.787C104.814 491.228 104.647 490.628 104.656 490.022C104.841 487.666 98.5544 476.436 96.9913 473.674C96.7481 473.276 96.6208 473.048 96.6208 473.048C96.6208 473.048 110.955 462.534 108.57 453.213C108.57 453.213 92.7073 446.713 97.9291 443.146C103.151 439.579 112.483 429.332 112.483 429.332C112.483 429.332 112.911 391.02 112.483 385.3C112.036 381.329 112.305 377.335 113.282 373.412C113.456 372.819 113.664 372.242 113.884 371.673C121.106 372.43 128.396 372.818 135.697 372.835C138.36 372.835 141.07 372.835 143.802 372.721C143.802 373.263 143.837 373.848 143.906 374.477C144.509 383.967 145.632 400.608 146.546 406.792C147.843 415.657 155.01 439.546 155.01 439.546C155.01 439.546 141.336 445.705 157.395 460.884C157.395 460.884 157.395 466.385 156.33 467.181C155.193 469.785 154.276 472.433 153.586 475.112C152.914 477.972 152.637 480.865 153.725 482.368C156.33 485.96 171.961 485.667 171.961 485.667L172.343 485.618C175.294 485.404 178.276 485.604 181.116 486.205C183.956 486.806 186.598 487.797 188.888 489.12C194.828 492.468 217.371 490.997 229.574 489.933C234.356 489.51 237.552 489.12 237.552 489.12C237.707 488.741 237.761 488.344 237.714 487.95C237.586 485.846 235.236 481.231 219.304 477.111C219.304 477.111 204.322 470.042 204.53 463.882H204.218H202.481C203.743 463.834 204.553 463.882 204.553 463.882C204.553 463.882 198.683 448.85 201.08 447.631C203.477 446.412 196.298 429.755 196.298 429.755C196.298 429.755 192.188 401.803 191.968 399.845C191.977 398.164 192.34 396.494 193.045 394.888L191.968 379.563C191.968 379.563 191.76 374.468 191.968 372.811C191.933 371.372 191.766 369.936 191.47 368.512C191.366 367.944 191.262 367.35 191.146 366.765C196.761 365.766 200.408 364.84 200.408 364.84L199.76 311.495C204.53 304.995 205.41 290.734 205.387 280.618C205.387 274.117 204.97 269.307 204.97 269.307L211.489 261.84C211.489 261.84 212.994 252.902 210.609 250.943C209.555 250.058 210.03 249.139 210.898 248.384C211.349 248.133 211.825 247.905 212.323 247.701C212.323 247.701 212.253 247.628 212.172 247.522C212.627 247.256 213.111 247.014 213.619 246.799C213.619 246.799 211.304 244.28 213.376 243.216C215.321 244.142 217.058 244.841 218.378 245.41C218.285 246.003 218.193 246.344 218.193 246.344L218.748 245.532C220.022 246.035 220.798 246.344 220.798 246.344C220.798 246.344 231.01 232.068 230.79 229.963C230.57 227.859 237.737 218.994 237.737 218.994C237.737 218.994 238.605 214.338 242.519 212.387C246.432 210.437 245.552 196.307 245.552 196.307C245.552 196.307 246.641 188.945 249.246 185.939C251.851 182.932 246.872 178.878 246.872 178.878ZM51.477 172.613L51.6739 176.017C50.516 174.709 49.6824 173.767 49.6824 173.767L51.477 172.613Z" fill="url(#paint0_linear)"/>
<path d="M221.354 240.177L218.853 247.652C218.853 247.652 198.822 240.478 195.21 231.361C191.597 222.244 201.254 218.782 201.254 218.782L219.918 224.332L221.354 240.177Z" fill="white"/>
<path opacity="0.1" d="M221.354 240.177L218.853 247.652C218.853 247.652 198.822 240.478 195.21 231.361C191.597 222.244 201.254 218.782 201.254 218.782L219.918 224.332L221.354 240.177Z" fill="black"/>
<path d="M108.94 494.597C108.94 494.597 90.4148 499.375 77.6787 499.976C70.917 500.293 67.3625 497.384 65.5331 494.581C64.5337 493.022 63.8891 491.364 63.6227 489.665L65.2784 476.786L66.1583 469.928L93.2168 464.996L97.0492 473.219L97.4081 473.844C98.948 476.591 105.119 487.764 104.934 490.096C104.926 490.693 105.091 491.285 105.417 491.836C105.743 492.388 106.225 492.887 106.833 493.305C107.454 493.797 108.162 494.231 108.94 494.597Z" fill="white"/>
<path d="M235.479 488.048C235.525 488.439 235.471 488.833 235.317 489.21C235.317 489.21 195.696 493.85 187.591 489.21C185.306 487.854 182.643 486.849 179.771 486.259C176.9 485.668 173.885 485.505 170.919 485.781C170.919 485.781 155.589 486.073 153.03 482.531C151.965 481.044 152.243 478.159 152.903 475.315C153.576 472.65 154.473 470.016 155.589 467.425L156.203 467.084L159.85 465.028L202.55 464.142H202.875C202.666 470.269 217.371 477.298 217.371 477.298C232.99 481.361 235.294 485.951 235.479 488.048Z" fill="white"/>
<path opacity="0.1" d="M235.479 488.048C235.52 488.439 235.461 488.833 235.305 489.21C235.305 489.21 195.696 493.85 187.591 489.21C185.308 487.855 182.646 486.851 179.777 486.26C176.908 485.67 173.894 485.507 170.93 485.781C170.93 485.781 155.589 486.073 153.042 482.531C151.976 481.035 152.243 478.159 152.903 475.315C158.808 475.729 168.128 476.761 171.787 479.223C177.321 482.969 186.7 486.707 192.454 487C196.958 487.203 223.901 487.804 235.479 488.048Z" fill="black"/>
<path opacity="0.1" d="M108.94 494.597C108.94 494.597 90.4148 499.375 77.6787 499.976C70.917 500.293 67.3625 497.384 65.5447 494.573C70.257 495.686 76.7988 496.856 80.2375 495.783C84.3131 494.516 98.7628 493.695 106.868 493.346C107.484 493.82 108.18 494.24 108.94 494.597Z" fill="black"/>
<path d="M136.427 109.566C121.144 105.398 101.484 91.625 106.393 85.1895C107.483 83.5655 108.131 81.8128 108.303 80.0217C108.619 77.5902 108.666 75.1452 108.442 72.7086C108.098 68.7182 107.414 64.7458 106.393 60.8128C106.393 60.8128 154.107 61.5685 151.328 66.5007C150.518 67.947 150.39 70.4578 150.61 73.2693C150.83 76.0807 151.409 79.2579 152.011 81.9474C152.845 85.6364 153.679 88.4479 153.679 88.4479C153.679 88.4479 150.761 91.3162 149.047 91.4706C147.334 91.625 158.356 115.506 136.427 109.566Z" fill="#FBBEBE"/>
<path opacity="0.1" d="M97.3734 473.844L97.0145 474.121C82.75 462.014 65.4984 477.103 65.4984 477.103L65.2437 476.786L66.1236 469.928L93.182 464.996L97.0145 473.219L97.3734 473.844Z" fill="black"/>
<path opacity="0.1" d="M202.886 464.996C202.886 464.996 192.466 464.841 186.908 468.286C181.351 471.732 154.489 469.034 155.647 468.286C155.99 467.916 156.197 467.492 156.249 467.051L159.896 464.996L202.597 464.11C202.759 464.654 202.886 464.996 202.886 464.996Z" fill="black"/>
<path d="M115.123 369.918C114.347 371.265 113.757 372.661 113.363 374.087C112.397 377.992 112.129 381.966 112.564 385.917C112.992 391.605 112.564 429.722 112.564 429.722C112.564 429.722 103.406 439.888 98.2996 443.471C93.1936 447.054 108.72 453.49 108.72 453.49C111.036 462.753 97.0029 473.219 97.0029 473.219C82.7384 461.112 65.4868 476.209 65.4868 476.209C65.4868 476.209 56.1084 464.833 53.7696 460.77C51.4308 456.708 62.928 453.896 66.9688 452.247C71.0096 450.597 66.772 440.871 66.772 440.871C66.772 440.871 63.3564 432.347 59.304 424.571C55.2516 416.795 63.7732 378.084 63.7732 378.084C63.7732 378.084 64.2132 371.21 65.2668 368.813C65.7984 367.083 65.9042 365.303 65.5794 363.548C65.51 362.955 65.4289 362.459 65.371 362.126C65.3131 361.793 65.2668 361.638 65.2668 361.638L65.4289 361.443L71.218 353.87C71.218 353.87 117.902 365.148 115.123 369.918Z" fill="#40A3F8"/>
<path d="M202.886 464.102C202.886 464.102 192.466 463.947 186.908 467.352C181.351 470.757 154.489 468.1 155.647 467.352C156.805 466.605 156.712 461.071 156.712 461.071C140.954 445.974 154.396 439.847 154.396 439.847C154.396 439.847 147.357 416.08 146.083 407.263C145.192 401.104 144.092 384.552 143.501 375.102C143.247 371.04 143.096 368.244 143.096 368.244L155.971 366.424L157.627 366.189L188.68 361.817C188.68 361.817 189.537 365.88 190.115 369.203C190.404 370.622 190.566 372.052 190.602 373.485C190.393 375.11 190.602 380.197 190.602 380.197L191.655 395.449C190.967 397.049 190.612 398.71 190.602 400.381C190.81 402.323 194.851 430.129 194.851 430.129C194.851 430.129 201.879 446.721 199.482 447.916C197.086 449.11 202.886 464.102 202.886 464.102Z" fill="#40A3F8"/>
<path opacity="0.1" d="M151.328 66.5007C150.518 67.947 150.39 70.4578 150.61 73.2693C144.219 75.9702 136.872 77.3512 129.413 77.2534C121.954 77.1557 114.685 75.5832 108.442 72.7168C108.099 68.7236 107.414 64.7485 106.393 60.8128C106.393 60.8128 154.107 61.5522 151.328 66.5007Z" fill="black"/>
<path d="M169.772 48.5431C169.782 51.4712 169.125 54.3816 167.827 57.1644C164.926 63.3997 158.978 68.7145 151.034 72.1696C143.089 75.6248 133.66 76.9977 124.413 76.0457C115.165 75.0937 106.695 71.8782 100.499 66.9674C94.3034 62.0566 90.7806 55.7667 90.5537 49.2094C90.5537 48.9819 90.5537 48.7707 90.5537 48.5431C90.4638 44.8522 91.4221 41.1856 93.3725 37.7573C95.323 34.3289 98.2267 31.2075 101.914 28.575C105.602 25.9425 109.999 23.8516 114.85 22.4244C119.701 20.9971 124.909 20.2621 130.169 20.2621C135.429 20.2621 140.636 20.9971 145.487 22.4244C150.338 23.8516 154.736 25.9425 158.423 28.575C162.111 31.2075 165.015 34.3289 166.965 37.7573C168.916 41.1856 169.874 44.8522 169.784 48.5431H169.772Z" fill="#FBBEBE"/>
<path opacity="0.1" d="M136.427 109.566C121.144 105.398 101.484 91.625 106.393 85.1895C107.483 83.5655 108.131 81.8128 108.303 80.0217L129.225 92.0881L142.17 99.5393L152.011 81.9555C152.845 85.6446 153.679 88.456 153.679 88.456C153.679 88.456 150.761 91.3243 149.047 91.4787C147.334 91.6331 158.356 115.506 136.427 109.566Z" fill="black"/>
<path d="M190.532 162.895L173.061 368.878L150.275 369.926L91.2716 250.488L100.951 108.689L102.989 78.7297L129.225 93.8514L142.181 101.303L152.312 83.2069L171.15 94.729L190.532 162.895Z" fill="#40A3F8"/>
<path opacity="0.1" d="M115.123 369.918C114.347 371.265 113.757 372.661 113.363 374.087C96.7827 372.29 80.6798 368.759 65.591 363.613L65.2784 363.499L65.3826 362.191L65.4405 361.508L71.2296 353.935C71.2296 353.935 117.902 365.148 115.123 369.918Z" fill="black"/>
<path opacity="0.1" d="M156.237 374.119C151.999 374.625 147.724 374.967 143.432 375.143C143.177 371.08 143.027 368.285 143.027 368.285L155.902 366.465L156.237 374.119Z" fill="black"/>
<path opacity="0.1" d="M190.046 369.244C181.814 370.747 169.101 372.437 157.719 371.381L157.557 366.229L188.61 361.858C188.61 361.858 189.467 365.88 190.046 369.244Z" fill="black"/>
<path opacity="0.1" d="M157.511 372.323C110.04 378.011 66.5635 361.703 66.5635 361.703L66.9804 356.178C66.9804 356.178 68.0572 293.538 65.07 288.735C62.0828 283.933 59.7555 259.581 61.446 255.843C63.1364 252.105 55.2747 196.055 55.2747 196.055L54.0011 173.303L7.38696 160.051L28.2279 129.563C31.0428 125.289 33.4638 120.892 35.4759 116.4C39.0999 108.486 55.9231 100.709 55.9231 100.709C55.9231 100.709 73.1748 92.9414 79.9944 93.2339C86.814 93.5264 95.7524 86.3596 95.7524 86.3596C102.352 74.5532 108.326 79.8998 108.326 79.8998C108.326 80.4605 108.326 79.8998 108.002 81.6468C105.687 94.6071 145.446 135.56 146.014 136.283L149.8 201.012L153.632 282.926L157.511 372.323Z" fill="black"/>
<path d="M156.237 372.323C108.766 378.011 65.2784 361.703 65.2784 361.703L65.7068 356.178C65.7068 356.178 66.7835 293.538 63.7848 288.735C60.786 283.933 58.4703 259.581 60.1723 255.843C61.8744 252.105 54.0011 196.055 54.0011 196.055L52.7159 173.303L6.07861 160.002L26.9195 129.515C29.7283 125.238 32.1492 120.842 34.1675 116.351C37.78 108.437 54.6148 100.661 54.6148 100.661C54.6148 100.661 71.8664 92.8926 78.6744 93.1851C85.4825 93.4776 94.4325 86.3109 94.4325 86.3109C101.044 74.5044 108.326 79.851 108.326 79.851C108.326 80.4117 107.632 80.6636 108.002 81.598C113.097 94.1683 144.173 135.511 144.74 136.234L148.573 200.963L152.405 282.877L156.237 372.323Z" fill="white"/>
<path opacity="0.1" d="M143.443 138.079C138.337 136.584 111.29 114.913 111.29 114.913V109.981C110.306 108.356 104.459 109.347 99.7122 110.484L101.75 80.5255L104.066 81.8743C109.137 94.4365 142.853 137.356 143.443 138.079Z" fill="black"/>
<path d="M144.729 136.283C139.611 134.788 112.564 113.117 112.564 113.117V108.185C111.58 106.56 105.733 107.551 100.986 108.689L103.035 78.7297L105.351 80.0785C110.434 92.6407 144.161 135.568 144.729 136.283Z" fill="white"/>
<path opacity="0.1" d="M66.5635 244.362C67.2003 244.362 99.5732 241.973 99.5732 241.973C99.5732 241.973 119.175 269.023 117.89 275.604C116.605 282.186 114.278 288.012 106.393 286.98C98.508 285.948 63.9584 287.793 63.9584 287.793L66.5635 244.362Z" fill="black"/>
<path d="M65.2784 242.566C65.9152 242.566 98.2881 240.177 98.2881 240.177C98.2881 240.177 117.878 267.235 116.605 273.809C115.331 280.382 112.981 286.216 105.108 285.185C97.2344 284.153 62.6732 285.997 62.6732 285.997L65.2784 242.566Z" fill="white"/>
<path d="M89.6738 229.866C89.6738 229.866 119.384 241.071 120.02 244.492C120.657 247.912 104.899 242.996 101.495 242.403C99.2548 242.024 96.974 241.774 94.6756 241.656L71.9706 242.086L89.6738 229.866Z" fill="#FBBEBE"/>
<path opacity="0.1" d="M135.153 139.477C136.88 139.477 138.279 138.494 138.279 137.283C138.279 136.071 136.88 135.089 135.153 135.089C133.427 135.089 132.027 136.071 132.027 137.283C132.027 138.494 133.427 139.477 135.153 139.477Z" fill="black"/>
<path d="M135.153 138.583C136.88 138.583 138.279 137.601 138.279 136.389C138.279 135.177 136.88 134.195 135.153 134.195C133.427 134.195 132.027 135.177 132.027 136.389C132.027 137.601 133.427 138.583 135.153 138.583Z" fill="#3F3D56"/>
<path opacity="0.1" d="M140.908 234.448C142.634 234.448 144.034 233.466 144.034 232.255C144.034 231.043 142.634 230.061 140.908 230.061C139.181 230.061 137.782 231.043 137.782 232.255C137.782 233.466 139.181 234.448 140.908 234.448Z" fill="black"/>
<path d="M140.908 233.546C142.634 233.546 144.034 232.564 144.034 231.353C144.034 230.141 142.634 229.159 140.908 229.159C139.181 229.159 137.782 230.141 137.782 231.353C137.782 232.564 139.181 233.546 140.908 233.546Z" fill="#3F3D56"/>
<path opacity="0.1" d="M138.268 186.962C139.994 186.962 141.394 185.98 141.394 184.769C141.394 183.557 139.994 182.575 138.268 182.575C136.541 182.575 135.142 183.557 135.142 184.769C135.142 185.98 136.541 186.962 138.268 186.962Z" fill="black"/>
<path d="M138.268 186.069C139.994 186.069 141.394 185.086 141.394 183.875C141.394 182.663 139.994 181.681 138.268 181.681C136.541 181.681 135.142 182.663 135.142 183.875C135.142 185.086 136.541 186.069 138.268 186.069Z" fill="#3F3D56"/>
<path d="M210.331 241.201C210.331 241.201 212.461 243.443 210.331 244.492C208.201 245.54 210.539 248.075 210.539 248.075C210.539 248.075 205.225 250.261 207.564 252.227C209.903 254.194 208.421 263.075 208.421 263.075L202.029 270.502C202.029 270.502 202.412 275.288 202.435 281.756C202.435 291.847 201.589 306.035 196.912 312.503L197.56 365.571C197.56 365.571 175.179 371.308 156.446 369.561L153.667 284.404C153.667 284.404 157.719 236.114 159.213 226.851C160.087 222.042 160.443 217.193 160.278 212.347C160.278 212.347 159.641 197.851 157.499 191.123C157.499 191.123 155.184 161.976 154.952 153.908C154.848 150.048 155.137 138.786 155.462 128.076C155.821 116.367 156.226 105.325 156.226 105.325L152 81.858C152 81.858 156.226 81.5574 157.499 82.7519C158.07 83.1259 158.69 83.4606 159.352 83.7513C166.646 87.2128 192.419 97.8573 192.419 97.8573C192.419 97.8573 206.684 101.839 210.099 107.543C213.515 113.247 215.889 117.294 217.544 118.919C219.2 120.544 220.103 128.182 220.103 128.182C220.103 128.182 225.012 142.239 228.845 144.62C232.677 147.001 235.479 162.147 235.479 162.147L201.613 180.836C201.613 180.836 198.637 211.924 198 213.127C197.363 214.329 210.331 241.201 210.331 241.201Z" fill="white"/>
<path d="M211.616 241.201C211.616 241.201 213.735 243.443 211.616 244.492C209.497 245.54 211.813 248.075 211.813 248.075C211.813 248.075 206.533 250.285 208.849 252.252C211.165 254.218 209.706 263.099 209.706 263.099L203.315 270.526C203.315 270.526 203.697 275.312 203.731 281.78C203.731 291.872 202.886 306.059 198.209 312.527L198.845 365.595C198.845 365.595 176.43 371.332 157.719 369.585L154.952 284.429C154.952 284.429 159.005 236.139 160.498 226.875C161.373 222.066 161.725 217.218 161.552 212.371C161.552 212.371 160.915 197.875 158.785 191.147C158.785 191.147 156.469 162.001 156.226 153.932C156.122 150.072 156.423 138.81 156.735 128.101C157.094 116.392 157.499 105.349 157.499 105.349L151.919 81.5656C151.919 81.5656 157.499 81.5655 158.785 82.7763C159.35 83.1547 159.971 83.4897 160.637 83.7757C167.931 87.2372 193.716 97.8817 193.716 97.8817C193.716 97.8817 207.969 101.863 211.385 107.567C214.8 113.272 217.174 117.318 218.841 118.943C220.508 120.568 221.388 128.206 221.388 128.206C221.388 128.206 226.298 142.264 230.13 144.644C233.962 147.025 236.73 162.139 236.73 162.139L202.863 180.828C202.863 180.828 199.888 211.916 199.239 213.119C198.591 214.321 211.616 241.201 211.616 241.201Z" fill="white"/>
<path opacity="0.1" d="M171.057 112.248L174.114 118.504L158.02 129.88C158.379 118.179 158.785 107.129 158.785 107.129L153.204 83.345C153.204 83.345 158.785 83.345 160.07 84.5557C160.633 84.9331 161.255 85.2655 161.922 85.547L175.608 113.255L171.057 112.248Z" fill="black"/>
<path d="M169.772 110.452L172.841 116.709L156.747 128.085C157.106 116.376 157.511 105.333 157.511 105.333L151.919 81.5493C151.919 81.5493 157.511 81.5493 158.785 82.76C159.353 83.1362 159.973 83.471 160.637 83.7594L174.334 111.46L169.772 110.452Z" fill="white"/>
<path opacity="0.1" d="M169.772 48.5431C169.782 51.4712 169.125 54.3816 167.827 57.1644C167.608 57.1884 167.385 57.1813 167.17 57.1436C166.956 57.1059 166.754 57.0384 166.577 56.945C166.276 49.632 161.147 42.7659 154.836 36.9236C153.065 35.1596 150.917 33.5975 148.468 32.292C145.993 30.9871 142.914 30.3759 139.831 30.5775C136.357 30.9106 133.289 32.5682 129.781 32.7795C125.15 33.0477 121.005 30.7969 116.408 30.6831C114.539 30.6956 112.696 30.9876 111.001 31.5396C109.306 32.0917 107.798 32.8911 106.578 33.8846C104.163 35.8894 102.369 38.2249 101.31 40.7426C99.4895 44.5603 98.4981 48.5486 98.3691 52.5734C98.3112 54.8486 97.9986 57.7007 94.9882 58.5295C95.2148 56.8562 94.9439 55.1682 94.1925 53.5723C93.4411 51.9764 92.2257 50.5073 90.6232 49.2582L90.5537 49.2094C90.5537 48.9819 90.5537 48.7707 90.5537 48.5431C90.4638 44.8522 91.4221 41.1856 93.3725 37.7573C95.323 34.3289 98.2267 31.2075 101.914 28.575C105.602 25.9425 109.999 23.8516 114.85 22.4244C119.701 20.9971 124.909 20.2621 130.169 20.2621C135.429 20.2621 140.636 20.9971 145.487 22.4244C150.338 23.8516 154.736 25.9425 158.423 28.575C162.111 31.2075 165.015 34.3289 166.965 37.7573C168.916 41.1856 169.874 44.8522 169.784 48.5431H169.772Z" fill="black"/>
<path d="M146.569 4.39685C140.553 2.41066 133.71 2.03501 127.326 3.34052C124.119 4.00682 121.097 5.08752 117.844 5.63193C110.897 6.81014 102.792 5.53443 96.8292 8.38651C93.5178 10.0116 91.5263 12.5793 89.6738 15.0739L85.0425 21.2656C82.5184 24.6539 79.9712 28.0992 78.9176 31.8288C77.864 35.5584 78.5008 39.735 81.87 42.7333C84.3246 44.9191 87.9486 46.2924 90.6117 48.3481C92.207 49.5986 93.4172 51.0668 94.1663 52.6608C94.9154 54.2547 95.1874 55.9401 94.9651 57.6113C97.987 56.7987 98.2765 53.9385 98.3459 51.6634C98.475 47.6385 99.4664 43.6503 101.287 39.8325C102.344 37.3141 104.138 34.9783 106.555 32.9745C107.776 31.9819 109.284 31.183 110.979 30.631C112.674 30.079 114.517 29.7865 116.385 29.773C121.016 29.8868 125.173 32.1295 129.758 31.8613C133.231 31.6582 136.311 29.9924 139.808 29.6674C142.891 29.4627 145.972 30.0742 148.445 31.3819C150.893 32.6854 153.037 34.2479 154.802 36.0135C161.123 41.8558 166.253 48.7057 166.554 56.0349C167.862 56.7094 169.749 55.8318 170.398 54.7917C171.046 53.7516 171.069 52.5328 171.891 51.5415C172.841 50.3958 174.658 49.7864 176.083 48.925C179.695 46.7393 180.598 43.0584 180.459 39.7188C180.32 36.3792 179.394 32.9908 180.297 29.708C180.841 27.6929 182.068 25.8078 182.74 23.817C183.412 21.8262 183.493 19.5917 181.906 17.8772C179.591 15.3583 174.716 14.8626 170.467 14.627C165.639 14.3344 161.32 14.7082 158.24 11.8561C156.795 10.3678 155.168 8.97038 153.378 7.67958C152.764 7.25705 146.569 4.57562 146.569 4.39685Z" fill="#808080"/>
<path opacity="0.1" d="M20.7251 175.749L8.62583 160.051L4.79343 184.273C4.79343 184.273 6.92383 195.031 6.49544 196.681C6.06704 198.33 15.2254 213.119 15.2254 213.119C15.2254 213.119 45.4795 250.935 57.8335 252.885L99.5732 231.954L88.5044 222.089C88.5044 222.089 84.672 221.041 83.711 222.089C83.711 222.089 63.1595 197.274 61.0291 195.478C58.8987 193.682 59.3155 190.099 59.3155 190.099C59.3155 190.099 56.1199 187.71 57.1851 185.467C58.2504 183.225 51.0139 175.449 51.0139 175.449L57.6135 171.118L20.7251 175.749Z" fill="black"/>
<path d="M9.26263 158.263L6.06701 160.051L2.2346 184.273C2.2346 184.273 4.36501 195.031 3.93661 196.681C3.50822 198.33 12.6782 213.119 12.6782 213.119C12.6782 213.119 42.9207 250.935 55.2747 252.885L97.026 231.954L85.9456 222.089C85.9456 222.089 82.1132 221.041 81.1522 222.089C81.1522 222.089 60.6007 197.274 58.4703 195.478C56.3399 193.682 56.7683 190.099 56.7683 190.099C56.7683 190.099 53.5727 187.71 54.6379 185.467C55.7031 183.225 48.4551 175.449 48.4551 175.449L55.0548 171.118L9.26263 158.263Z" fill="white"/>
<path opacity="0.1" d="M207.564 253.154C209.88 255.128 208.421 263.993 208.421 263.993L202.029 271.42C202.029 271.42 202.411 276.214 202.435 282.674L191.69 285.03C190.719 285.243 189.689 285.29 188.687 285.167C187.685 285.043 186.74 284.754 185.93 284.322C185.12 283.89 184.468 283.329 184.03 282.684C183.592 282.04 183.38 281.332 183.412 280.618L185.264 238.682L210.331 245.41C208.201 246.45 210.539 249.001 210.539 249.001C210.539 249.001 205.225 251.179 207.564 253.154Z" fill="black"/>
<path d="M208.849 252.252C211.165 254.226 209.706 263.099 209.706 263.099L203.315 270.526C203.315 270.526 203.697 275.312 203.731 281.78L192.79 284.177C191.839 284.384 190.831 284.429 189.85 284.308C188.87 284.187 187.944 283.903 187.151 283.48C186.359 283.057 185.721 282.508 185.292 281.877C184.863 281.246 184.655 280.553 184.685 279.854L186.549 237.788L211.628 244.516C209.486 245.556 211.825 248.099 211.825 248.099C211.825 248.099 206.533 250.285 208.849 252.252Z" fill="white"/>
<path d="M217.151 232.263C217.151 232.263 215.449 239.892 211.188 240.339C206.927 240.786 205.017 252.682 200.767 252.26C196.518 251.837 199.332 241.201 199.482 239.137C199.633 237.073 194.851 228.525 198.429 226.583C202.006 224.641 213.33 226.583 213.33 226.583L217.151 232.263Z" fill="#FBBEBE"/>
<path opacity="0.1" d="M226.217 173.506L234.252 162.131C234.252 162.131 237.447 170.801 237.447 175.432C237.447 180.064 241.917 180.519 241.917 180.519C241.917 180.519 246.814 184.582 244.232 187.539C241.65 190.497 240.608 197.859 240.608 197.859C240.608 197.859 241.454 211.908 237.621 213.85C233.789 215.792 232.99 220.432 232.99 220.432C232.99 220.432 225.95 229.248 226.17 231.344C226.39 233.441 216.375 247.636 216.375 247.636C216.375 247.636 221.273 229.996 192.732 222.374C192.732 222.374 192.512 216.385 194.643 214.744C196.773 213.102 200.096 212.355 198.012 204.059C195.928 195.762 197.41 185.849 197.41 183.858C197.41 181.868 203.801 169.452 203.801 169.452L226.217 173.506Z" fill="black"/>
<path d="M229.69 160.506L236.706 162.131C236.706 162.131 239.914 170.801 239.914 175.432C239.914 180.064 244.383 180.519 244.383 180.519C244.383 180.519 249.28 184.582 246.698 187.539C244.116 190.497 243.086 197.859 243.086 197.859C243.086 197.859 243.931 211.908 240.099 213.85C236.266 215.792 235.41 220.432 235.41 220.432C235.41 220.432 228.382 229.248 228.602 231.344C228.822 233.441 218.795 247.636 218.795 247.636C218.795 247.636 223.704 229.996 195.152 222.374C195.152 222.374 194.944 216.385 197.074 214.744C199.204 213.102 202.527 212.355 200.443 204.059C198.359 195.763 199.841 185.849 199.841 183.859C199.841 181.868 206.232 169.452 206.232 169.452L229.69 160.506Z" fill="white"/>
<path opacity="0.1" d="M74.7147 455.359C74.7147 455.359 85.8993 450.426 93.2399 454.01C100.581 457.593 74.7147 455.359 74.7147 455.359Z" fill="black"/>
<path opacity="0.1" d="M161.621 440.107C161.621 440.107 171.521 439.213 179.834 445.494C188.147 451.775 161.621 440.107 161.621 440.107Z" fill="black"/>
<g opacity="0.1">
<path opacity="0.1" d="M176.106 47.1455C174.682 48.0069 172.852 48.6244 171.903 49.7701C171.092 50.7533 171.069 51.964 170.421 53.0203C169.772 54.0767 167.885 54.938 166.577 54.2717C166.276 46.9587 161.135 40.0925 154.825 34.2421C153.061 32.4765 150.916 30.914 148.468 29.6105C145.99 28.303 142.906 27.6916 139.819 27.896C136.346 28.2292 133.289 29.8868 129.781 30.09C125.15 30.3662 120.993 28.1154 116.396 28.0017C114.529 28.0147 112.686 28.3078 110.993 28.8614C109.299 29.415 107.794 30.2162 106.578 31.2113C104.161 33.212 102.367 35.5452 101.31 38.0611C99.4906 41.8791 98.4992 45.8672 98.3691 49.892C98.2996 52.159 97.9986 54.9867 95.0114 55.8318C95.0809 56.4321 95.0809 57.0354 95.0114 57.6357C98.0218 56.8231 98.3228 53.9629 98.3923 51.6877C98.5213 47.6629 99.5127 43.6746 101.333 39.8569C102.39 37.3385 104.184 35.0026 106.601 32.9989C107.82 32.0065 109.326 31.2076 111.019 30.6556C112.712 30.1036 114.553 29.811 116.42 29.7974C121.051 29.9112 125.219 32.1538 129.804 31.8857C133.278 31.6826 136.357 30.0168 139.843 29.6918C142.929 29.4874 146.013 30.0988 148.491 31.4063C150.939 32.7098 153.084 34.2723 154.848 36.0379C161.158 41.8802 166.299 48.73 166.6 56.0593C167.908 56.7337 169.796 55.8562 170.444 54.8161C171.092 53.776 171.115 52.5572 171.926 51.5659C172.875 50.4202 174.705 49.8107 176.129 48.9494C179.741 46.7636 180.644 43.0828 180.505 39.7431C180.505 39.6375 180.505 39.5319 180.505 39.4344C180.285 42.3271 179.186 45.2767 176.106 47.1455Z" fill="black"/>
<path opacity="0.1" d="M90.6348 46.5686C87.9718 44.5129 84.3362 43.1396 81.8932 40.962C79.8361 39.0342 78.6612 36.7136 78.5239 34.3071C78.1595 37.3144 79.3561 40.3127 81.8932 42.7496C84.3362 44.9354 87.9718 46.3086 90.6348 48.3644C93.1916 50.3753 94.7267 52.9242 94.9998 55.6124C95.1771 53.9764 94.8818 52.3321 94.1318 50.778C93.3817 49.224 92.1923 47.7923 90.6348 46.5686Z" fill="black"/>
<path opacity="0.1" d="M182.763 22.0375C182.08 24.0282 180.864 25.9215 180.309 27.9285C179.979 29.2697 179.859 30.6319 179.95 31.9913C179.988 31.217 180.108 30.4457 180.309 29.6837C180.864 27.6685 182.08 25.7834 182.763 23.7926C183.161 22.6946 183.291 21.557 183.145 20.4286C183.073 20.9707 182.946 21.5084 182.763 22.0375Z" fill="black"/>
</g>
<defs>
<linearGradient id="paint0_linear" x1="124.988" y1="500.001" x2="124.988" y2="0.000894069" gradientUnits="userSpaceOnUse">
<stop stop-color="#808080" stop-opacity="0.25"/>
<stop offset="0.54" stop-color="#808080" stop-opacity="0.12"/>
<stop offset="1" stop-color="#808080" stop-opacity="0.1"/>
</linearGradient>
</defs>
</svg>
