<svg width="200" height="150" viewBox="0 0 200 150" fill="none" xmlns="http://www.w3.org/2000/svg">
<path d="M182.422 0H17.5781C7.89766 0 0 7.76769 0 17.3077V132.692C0 142.2 7.8625 150 17.5781 150H182.422C192.078 150 200 142.258 200 132.692V17.3077C200 7.8 192.137 0 182.422 0ZM179.995 11.5385L100.373 89.9358L20.0621 11.5385H179.995ZM11.7188 130.303V19.6419L68.1559 74.7342L11.7188 130.303ZM20.0051 138.462L76.4777 82.8577L96.2656 102.174C98.5563 104.41 102.253 104.403 104.534 102.156L123.828 83.1589L179.995 138.462H20.0051ZM188.281 130.303L132.114 75L188.281 19.6969V130.303Z" fill="#40A3F8"/>
</svg>
