<svg width="60" height="60" viewBox="0 0 60 60" fill="none" xmlns="http://www.w3.org/2000/svg">
<g clip-path="url(#clip33)">
<path d="M56.6875 0H3.3125C1.4825 0 0 1.4825 0 3.3125V56.69C0 58.5175 1.4825 60 3.3125 60H32.05V36.765H24.23V27.71H32.05V21.0325C32.05 13.2825 36.7825 9.0625 43.6975 9.0625C47.01 9.0625 49.855 9.31 50.685 9.42V17.52L45.89 17.5225C42.13 17.5225 41.4025 19.31 41.4025 21.93V27.7125H50.37L49.2025 36.7675H41.4025V60H56.6925C58.5175 60 60 58.5175 60 56.6875V3.3125C60 1.4825 58.5175 0 56.6875 0V0Z" fill="#3D7FDB"/>
</g>
<defs>
<clipPath id="clip33">
<rect width="60" height="60" fill="white"/>
</clipPath>
</defs>
</svg>
