<svg width="200" height="150" viewBox="0 0 200 150" fill="none" xmlns="http://www.w3.org/2000/svg">
<path d="M178.571 0H21.4286C9.59388 0 0 7.19541 0 16.0714V133.929C0 142.805 9.59388 150 21.4286 150H178.571C190.406 150 200 142.805 200 133.929V16.0714C200 7.19541 190.406 0 178.571 0ZM185.714 133.929C185.714 136.887 182.516 139.286 178.571 139.286H21.4286C17.4835 139.286 14.2856 136.887 14.2856 133.929V16.0714C14.2856 13.1126 17.4835 10.7142 21.4286 10.7142H178.571C182.516 10.7142 185.714 13.1126 185.714 16.0714V133.929H185.714Z" fill="url(#paint4_linear)"/>
<path d="M64.2859 32.1429H42.8573C38.9123 32.1429 35.7144 34.5413 35.7144 37.5001C35.7144 40.4589 38.9123 42.8573 42.8573 42.8573H64.2859C68.2309 42.8573 71.4289 40.4589 71.4289 37.5001C71.4289 34.5413 68.2309 32.1429 64.2859 32.1429Z" fill="url(#paint4_linear)"/>
<path d="M157.143 32.1429H92.8573C88.9123 32.1429 85.7144 34.5413 85.7144 37.5001C85.7144 40.4589 88.9123 42.8573 92.8573 42.8573H157.143C161.088 42.8573 164.286 40.4589 164.286 37.5001C164.286 34.5413 161.088 32.1429 157.143 32.1429Z" fill="url(#paint4_linear)"/>
<path d="M64.2859 69.6429H42.8573C38.9123 69.6429 35.7144 72.0414 35.7144 75.0002C35.7144 77.9589 38.9123 80.3571 42.8573 80.3571H64.2859C68.2309 80.3571 71.4289 77.9586 71.4289 74.9998C71.4289 72.0411 68.2309 69.6429 64.2859 69.6429Z" fill="url(#paint4_linear)"/>
<path d="M157.143 69.6429H92.8573C88.9123 69.6429 85.7144 72.0414 85.7144 75.0002C85.7144 77.9589 88.9123 80.3571 92.8573 80.3571H157.143C161.088 80.3571 164.286 77.9586 164.286 74.9998C164.286 72.0411 161.088 69.6429 157.143 69.6429Z" fill="url(#paint4_linear)"/>
<path d="M64.2859 107.143H42.8573C38.9123 107.143 35.7144 109.541 35.7144 112.5C35.7144 115.459 38.9123 117.857 42.8573 117.857H64.2859C68.2309 117.857 71.4289 115.459 71.4289 112.5C71.4289 109.541 68.2309 107.143 64.2859 107.143Z" fill="url(#paint4_linear)"/>
<path d="M157.143 107.143H92.8573C88.9123 107.143 85.7144 109.541 85.7144 112.5C85.7144 115.459 88.9123 117.857 92.8573 117.857H157.143C161.088 117.857 164.286 115.459 164.286 112.5C164.286 109.541 161.088 107.143 157.143 107.143Z" fill="url(#paint4_linear)"/>

<linearGradient id="paint4_linear" x1="1" y1="64" x2="109" y2="64" gradientUnits="userSpaceOnUse">
<stop offset="0.28125" stop-color="#F76059"/>
<stop offset="1" stop-color="#35FCEF"/>
</linearGradient>
</svg>
