<svg width="300" height="400" viewBox="0 0 300 400" fill="none" xmlns="http://www.w3.org/2000/svg">
<path d="M261.284 95.0549H258.405V34.8468C258.405 30.2707 257.224 25.7393 254.93 21.5115C252.636 17.2837 249.273 13.4422 245.034 10.2064C240.795 6.97053 235.763 4.40374 230.224 2.65253C224.685 0.901314 218.749 -1.69658e-05 212.754 2.39512e-10H45.6501C39.6552 -1.10646e-05 33.7191 0.901325 28.1805 2.65254C22.642 4.40375 17.6096 6.97055 13.3706 10.2064C9.13159 13.4422 5.76904 17.2837 3.47491 21.5115C1.18078 25.7393 -6.76435e-06 30.2707 0 34.8468V365.153C-6.76437e-06 369.729 1.18078 374.261 3.47491 378.488C5.76904 382.716 9.13159 386.558 13.3706 389.794C17.6096 393.029 22.642 395.596 28.1806 397.347C33.7191 399.099 39.6552 400 45.6501 400H212.754C218.749 400 224.686 399.099 230.224 397.347C235.763 395.596 240.795 393.029 245.034 389.794C249.273 386.558 252.636 382.716 254.93 378.488C257.224 374.261 258.405 369.729 258.405 365.153V137.912H261.284V95.0549Z" fill="#3F3D56"/>
<path opacity="0.2" d="M248.689 35.0916V364.912C248.693 368.331 247.814 371.716 246.102 374.875C244.39 378.034 241.879 380.904 238.713 383.321C235.546 385.738 231.786 387.655 227.648 388.962C223.51 390.268 219.075 390.939 214.597 390.936H46.69C42.2121 390.939 37.7775 390.267 33.6398 388.96C29.5021 387.653 25.7426 385.736 22.5762 383.319C19.4098 380.902 16.8988 378.033 15.1866 374.874C13.4744 371.716 12.5948 368.33 12.5979 364.912V35.0916C12.5948 31.6734 13.4744 28.2883 15.1866 25.1298C16.8988 21.9713 19.4098 19.1015 22.5762 16.6844C25.7426 14.2674 29.5021 12.3506 33.6398 11.0436C37.7775 9.73659 42.2121 9.0651 46.69 9.06752H67.0584C66.0553 10.9448 65.6724 12.9815 65.9435 14.9983C66.2147 17.0152 67.1314 18.9501 68.613 20.6328C70.0947 22.3154 72.0957 23.694 74.4398 24.6472C76.7839 25.6004 79.3991 26.0988 82.0551 26.0986H177.79C180.445 26.0988 183.061 25.6004 185.405 24.6472C187.749 23.694 189.75 22.3154 191.232 20.6328C192.713 18.9501 193.63 17.0152 193.901 14.9983C194.172 12.9815 193.789 10.9448 192.786 9.06752H214.597C219.075 9.06445 223.51 9.73549 227.648 11.0422C231.786 12.349 235.546 14.2658 238.713 16.683C241.879 19.1001 244.39 21.9702 246.102 25.129C247.814 28.2878 248.693 31.6732 248.689 35.0916V35.0916Z" fill="black"/>
<path d="M54.961 9.06753V390.936H46.69C44.5267 390.939 42.3681 390.783 40.2439 390.47V9.53376C42.3681 9.2211 44.5267 9.06498 46.69 9.06754L54.961 9.06753Z" fill="#3F3D56"/>
<path d="M134.433 26.0986H119.716V390.936H134.433V26.0986Z" fill="#3F3D56"/>
<path d="M226.415 10.674V389.33C222.632 390.396 218.63 390.94 214.597 390.936H211.698V9.06753H214.597C218.63 9.06356 222.632 9.60754 226.415 10.674Z" fill="#3F3D56"/>
<path d="M248.689 72.6534H12.5979V83.8877H248.689V72.6534Z" fill="#3F3D56"/>
<path d="M248.689 200.162H12.5979V211.396H248.689V200.162Z" fill="#3F3D56"/>
<path d="M241.132 263.074H122.659V274.308H241.132V263.074Z" fill="#3F3D56"/>
<path d="M248.689 120.399H119.716V131.633H248.689V120.399Z" fill="#3F3D56"/>
<path d="M130.349 83.1351L128.642 83.8878L119.716 87.8198L54.9613 116.36L40.2443 122.848L12.5983 135.032V122.056L40.2443 109.873L54.9613 103.39L99.2082 83.8878L119.716 74.8499L122.991 73.4062L130.349 83.1351Z" fill="#3F3D56"/>
<path d="M248.689 323.177H12.5979V334.411H248.689V323.177Z" fill="#3F3D56"/>
<path d="M300 120.961C300 156.637 215.377 236.112 215.377 236.112C215.377 236.112 130.754 156.637 130.754 120.961C130.754 103.829 139.669 87.398 155.539 75.2838C171.409 63.1695 192.933 56.3638 215.377 56.3638C237.82 56.3638 259.345 63.1695 275.214 75.2838C291.084 87.398 300 103.829 300 120.961V120.961Z" fill="#35FCEF"/>
<path opacity="0.2" d="M215.377 156.349C243.012 156.349 265.415 139.247 265.415 118.152C265.415 97.0568 243.012 79.9557 215.377 79.9557C187.742 79.9557 165.339 97.0568 165.339 118.152C165.339 139.247 187.742 156.349 215.377 156.349Z" fill="black"/>
<path d="M213.732 133.23C224.027 133.23 232.374 126.859 232.374 119C232.374 111.141 224.027 104.77 213.732 104.77C203.437 104.77 195.09 111.141 195.09 119C195.09 126.859 203.437 133.23 213.732 133.23Z" fill="#35FCEF"/>
<path d="M242.835 160.281C243.614 157.192 243.49 154.01 242.47 150.963C241.451 147.915 239.562 145.077 236.938 142.652C234.315 140.227 231.022 138.274 227.294 136.934C223.567 135.593 219.497 134.898 215.377 134.898C211.257 134.898 207.187 135.593 203.46 136.934C199.732 138.274 196.439 140.227 193.815 142.652C191.192 145.077 189.303 147.915 188.284 150.963C187.264 154.01 187.14 157.192 187.919 160.281H242.835Z" fill="#35FCEF"/>
<path d="M222.735 282.734C235.334 282.734 245.547 274.938 245.547 265.321C245.547 255.704 235.334 247.908 222.735 247.908C210.137 247.908 199.924 255.704 199.924 265.321C199.924 274.938 210.137 282.734 222.735 282.734Z" fill="#35FCEF"/>
</svg>
