<svg width="200" height="150" viewBox="0 0 200 150" fill="none" xmlns="http://www.w3.org/2000/svg">
<path d="M102.97 0.031264C62.3546 -0.995319 29 23.3924 29 53.6224C29 87.9301 72.8982 112.828 97.5031 148.635C98.7524 150.453 102.242 150.456 103.495 148.638C125.754 116.419 163.797 94.8142 170.847 63.7749C178.147 31.6553 146.389 1.12911 102.97 0.031264ZM100.496 81.7099C79.813 81.7099 63.0458 69.1342 63.0458 53.6224C63.0458 38.1106 79.8134 25.5349 100.496 25.5349C121.178 25.5349 137.946 38.1106 137.946 53.6224C137.946 69.1342 121.178 81.7099 100.496 81.7099Z" fill="#334DDE"/>
</svg>
