<svg width="290" height="128" viewBox="0 0 290 128" fill="none" xmlns="http://www.w3.org/2000/svg">
<g filter="url(#filter0_d)">
<path d="M81.3759 117.952L6.55954 11.882C4.22325 8.56973 6.59211 4 10.6454 4H34.6986C36.4079 4 37.9988 4.87324 38.9167 6.3153L80.9543 72.3631C83.0293 75.6232 87.8605 75.3975 89.6224 71.9581L123.043 6.72031C123.898 5.05042 125.616 4 127.493 4H154.043C158.005 4 160.393 8.3879 158.242 11.7148L89.6605 117.785C87.7376 120.759 83.4173 120.846 81.3759 117.952Z" fill="#42929D" stroke="black"/>
<path d="M91.1192 83.7348L97.1087 86.6546C99.5677 87.8532 101.086 90.0869 101.086 92.5064C101.086 96.2272 97.5567 99.2434 93.2035 99.2431L85.9374 99.2424C85.9374 99.2424 90.489 96.8331 90.489 91.3713L90.4898 91.3706L91.1192 83.7348Z" fill="#E5011E"/>
<path d="M78.0686 80.1581L78.6023 101.935C78.6619 104.362 81.2473 106.304 84.416 106.304C87.5848 106.304 90.1703 104.362 90.2297 101.935L90.2953 99.2434L91.9293 32.7814L92.0156 29.0891C92.0196 29.0077 92.0216 28.928 92.0216 28.8466C92.0216 25.6495 88.6326 23.0292 84.416 23.0292C80.0943 23.0292 76.6398 25.7836 76.8164 29.0891L76.864 31.0124L78.0686 80.1581Z" fill="#E5011E"/>
<path d="M77.428 54.0123C72.418 52.1314 68.8125 47.9507 68.5367 42.961C68.2687 38.1137 71.2113 33.7736 75.7612 31.4416C76.1184 31.2584 76.4894 31.1159 76.8644 31.0125C77.4021 30.8615 77.9518 30.7902 78.4955 30.7902C80.9677 30.7902 83.3111 32.2658 83.845 34.5452C84.3193 36.5752 83.1643 38.6224 81.0194 39.5857C81.0036 39.5925 80.9857 39.6009 80.9699 39.6077C78.5848 40.6949 77.1561 42.8692 77.2118 45.1791L77.3506 50.8353L77.428 54.0123Z" fill="#E5011E"/>
<path d="M91.4082 53.8743L91.2119 61.8835L74.4823 65.0615C70.3933 65.8383 67.4841 68.9384 67.4841 72.5186C67.4841 76.7375 71.4854 80.1576 76.4213 80.1576H78.0687L77.8647 71.839L94.1654 68.6352C98.137 67.8547 100.951 64.833 100.951 61.3498C100.951 57.2211 97.0357 53.8743 92.2056 53.8743H91.4082Z" fill="#E5011E"/>
<path d="M92.4642 42.0016C93.4814 41.6576 93.9796 40.6739 93.5772 39.8045C93.1747 38.935 92.0238 38.5091 91.0067 38.8532C89.9895 39.1972 89.4912 40.1809 89.8937 41.0503C90.2962 41.9197 91.447 42.3456 92.4642 42.0016Z" fill="black"/>
<path d="M77.5986 37.3998C78.6924 37.3998 79.579 36.6419 79.579 35.7071C79.579 34.7722 78.6924 34.0143 77.5986 34.0143C76.5049 34.0143 75.6183 34.7722 75.6183 35.7071C75.6183 36.6419 76.5049 37.3998 77.5986 37.3998Z" fill="black"/>
<path d="M98.092 85.1811L92.6908 82.5482L92.9833 70.6081L94.6104 70.2883C99.5123 69.3248 102.936 65.6493 102.936 61.35C102.936 56.6478 98.7739 52.7628 93.4336 52.2401L93.537 48.018C93.5598 47.0814 92.6904 46.3063 91.5947 46.2869C90.4954 46.2606 89.5922 47.0107 89.5694 47.9471L89.4252 53.832C89.4252 53.8343 89.4246 53.8365 89.4246 53.8389L89.2608 60.517L79.6169 62.349L79.1957 45.1445C79.1551 43.4585 80.2182 41.8728 81.9036 41.1045L81.9161 41.0989C81.925 41.095 81.9337 41.0911 81.9425 41.0874C84.8488 39.782 86.4313 36.9553 85.7907 34.2126C85.1164 31.333 82.2043 29.2205 78.8018 29.1003C78.8012 29.0709 78.8006 29.0414 78.799 29.0121C78.7452 28.006 79.1965 27.0217 80.07 26.2403C81.146 25.2778 82.73 24.7257 84.4165 24.7257C87.5162 24.7257 90.0379 26.5744 90.0379 28.8469C90.0379 28.9166 89.946 32.7479 89.946 32.7479C89.9243 33.6794 90.8216 34.4672 91.9106 34.4777C92.9841 34.488 93.8925 33.7322 93.9139 32.8158C93.9139 32.8158 94.0066 28.9458 94.0066 28.8471C94.0064 24.7038 89.7044 21.3333 84.4165 21.3333C81.6517 21.3333 79.0216 22.2677 77.2007 23.8969C75.5776 25.3491 74.7375 27.2118 74.8336 29.1443C74.8372 29.2914 74.8409 29.4387 74.8445 29.5858C74.8465 29.6663 74.851 29.851 74.851 29.851C74.851 29.851 74.872 29.9197 74.7407 29.9869C69.3977 32.7256 66.261 37.7275 66.5545 43.0408C66.8383 48.178 70.2178 52.6995 75.4695 55.0846L75.6659 63.0992L74.0519 63.4057C69.0167 64.3623 65.5 68.1096 65.5 72.5184C65.5 77.581 70.24 81.712 76.1254 81.847L76.6187 101.97C76.7005 105.295 80.1984 108 84.4165 108C88.6347 108 92.1326 105.295 92.2141 101.97L92.2393 100.939H93.2037H93.2047C95.8396 100.939 98.317 100.062 100.18 98.4692C102.044 96.8765 103.07 94.7588 103.07 92.5061C103.07 89.4846 101.163 86.6779 98.092 85.1811V85.1811ZM70.5188 42.881C70.2942 38.8173 72.694 34.9913 76.7821 32.896C77.2966 32.6321 77.8952 32.4864 78.4957 32.4864C79.9088 32.4864 81.5317 33.308 81.8993 34.8773C82.2025 36.1753 81.4781 37.4641 80.0966 38.0845L80.0738 38.0948C80.0611 38.1003 80.0486 38.1059 80.0364 38.1114C76.9985 39.4962 75.1562 42.2178 75.2283 45.2151L75.3701 50.9931C72.4904 49.0457 70.698 46.1237 70.5188 42.881V42.881ZM69.4686 72.5186C69.4686 69.7118 71.7074 67.3261 74.913 66.7172L78.1243 66.1071H78.1245L91.6426 63.5393C92.5354 63.3699 93.1768 62.7007 93.196 61.9192L93.3495 55.6531C96.5351 56.119 98.9673 58.4962 98.9673 61.35C98.9673 64.0591 96.8099 66.3753 93.721 66.9824L90.6724 67.5817C90.6394 67.5867 90.6077 67.5944 90.5752 67.6008L77.4201 70.1862C76.5038 70.3663 75.8612 71.0712 75.881 71.8747L76.0422 78.4531C72.3843 78.2838 69.4686 75.6867 69.4686 72.5186V72.5186ZM88.2465 101.899C88.2099 103.393 86.4917 104.608 84.4165 104.608C82.3413 104.608 80.6231 103.393 80.5865 101.899L79.8825 73.1827L88.9947 71.3918L88.5063 91.3297C88.5047 91.3571 88.5063 91.3021 88.5063 91.3297C88.5063 93.1664 87.9065 94.8402 86.7254 96.223C85.8218 97.2811 84.8926 97.8002 84.893 97.8002C84.1391 98.1994 83.7864 98.9773 84.0292 99.7062C84.2717 100.435 85.0506 100.938 85.9374 100.938L88.2697 100.938L88.2465 101.899ZM97.3743 96.0706C96.2606 97.0226 94.7799 97.5468 93.2049 97.5468C93.2047 97.5468 93.2045 97.5468 93.2043 97.5468L90.4659 97.5467C91.5468 96.0688 92.4623 94.0448 92.4738 91.4214C92.474 91.4163 92.474 91.4113 92.4742 91.4062L92.5965 86.4071L96.1261 88.1276C97.9617 89.0223 99.1018 90.7002 99.1018 92.5063C99.1018 93.8527 98.4883 95.1186 97.3743 96.0706V96.0706Z" fill="black"/>
<path d="M137.36 59.76V54.88H144.36V59.76H137.36ZM137.36 91V61.72H144.36V91H137.36ZM153.167 91.32C151.327 91.32 150.06 90.9333 149.367 90.16C148.673 89.3867 148.327 88.1467 148.327 86.44V68.16H146.367V62.84H148.327V56.64H155.127V62.84H157.127V68.16H155.127V84.6C155.127 85.1067 155.167 85.48 155.247 85.72C155.327 85.96 155.54 86.08 155.887 86.08C156.153 86.08 156.407 86.0667 156.647 86.04C156.887 86.0133 157.047 86 157.127 86V90.8C156.727 90.9067 156.14 91.0133 155.367 91.12C154.62 91.2533 153.887 91.32 153.167 91.32ZM164.634 91.32C162.367 91.32 160.807 90.5733 159.954 89.08C159.127 87.56 158.714 85.4 158.714 82.6C158.714 80.3067 159.007 78.5467 159.594 77.32C160.207 76.0933 161.047 75.2 162.114 74.64C163.181 74.0533 164.807 73.4133 166.994 72.72L168.914 72.08V72V69.08C168.914 68.3067 168.754 67.72 168.434 67.32C168.141 66.8933 167.781 66.68 167.354 66.68C166.981 66.68 166.647 66.8533 166.354 67.2C166.087 67.5467 165.954 68.0133 165.954 68.6V70.36H159.154V69.4C159.154 66.52 159.821 64.4667 161.154 63.24C162.514 62.0133 164.714 61.4 167.754 61.4C170.181 61.4 172.154 62.04 173.674 63.32C175.194 64.5733 175.954 66.36 175.954 68.68V91H168.994V87.52C168.647 88.72 168.087 89.6533 167.314 90.32C166.567 90.9867 165.674 91.32 164.634 91.32ZM167.394 85.88C167.927 85.88 168.301 85.6667 168.514 85.24C168.754 84.7867 168.874 84.24 168.874 83.6V75.44C167.834 75.84 167.061 76.3467 166.554 76.96C166.074 77.5733 165.834 78.4267 165.834 79.52V83.28C165.834 85.0133 166.354 85.88 167.394 85.88ZM178.41 81.04V76.52H188.49V81.04H178.41ZM191.192 56.64H200.672C203.125 56.64 204.965 57.32 206.192 58.68C207.419 60.04 208.045 62.0533 208.072 64.72L208.152 80.8C208.179 84.1867 207.592 86.7333 206.392 88.44C205.192 90.1467 203.205 91 200.432 91H191.192V56.64ZM199.312 84.92C200.565 84.92 201.192 84.3067 201.192 83.08V65.36C201.192 64.5867 201.125 64.0133 200.992 63.64C200.885 63.24 200.672 62.9733 200.352 62.84C200.032 62.7067 199.539 62.64 198.872 62.64H198.112V84.92H199.312ZM218.998 91.32C215.985 91.32 213.825 90.4933 212.518 88.84C211.212 87.1867 210.558 84.72 210.558 81.44V69.68C210.558 66.9867 211.332 64.9333 212.878 63.52C214.425 62.1067 216.585 61.4 219.358 61.4C224.985 61.4 227.798 64.16 227.798 69.68V71.8C227.798 73.9333 227.772 75.6667 227.718 77H217.558V82.68C217.558 83.6933 217.665 84.4933 217.878 85.08C218.092 85.64 218.545 85.92 219.238 85.92C219.772 85.92 220.145 85.76 220.358 85.44C220.598 85.12 220.732 84.76 220.758 84.36C220.812 83.9333 220.838 83.32 220.838 82.52V79.68H227.798V81.36C227.798 84.7733 227.132 87.2933 225.798 88.92C224.492 90.52 222.225 91.32 218.998 91.32ZM220.838 73.52V69.76C220.838 67.6533 220.318 66.6 219.278 66.6C218.105 66.6 217.518 67.6533 217.518 69.76V73.52H220.838ZM230.33 61.72H237.33V65.44C237.623 64.24 238.13 63.2667 238.85 62.52C239.57 61.7733 240.53 61.4 241.73 61.4C243.703 61.4 245.156 62.0133 246.09 63.24C247.05 64.44 247.53 66.16 247.53 68.4V91H240.65V69.12C240.65 68.48 240.516 67.9333 240.25 67.48C240.01 67.0267 239.623 66.8 239.09 66.8C238.37 66.8 237.89 67.1333 237.65 67.8C237.436 68.44 237.33 69.3067 237.33 70.4V91H230.33V61.72ZM256.331 91.32C254.491 91.32 253.224 90.9333 252.531 90.16C251.837 89.3867 251.491 88.1467 251.491 86.44V68.16H249.531V62.84H251.491V56.64H258.291V62.84H260.291V68.16H258.291V84.6C258.291 85.1067 258.331 85.48 258.411 85.72C258.491 85.96 258.704 86.08 259.051 86.08C259.317 86.08 259.571 86.0667 259.811 86.04C260.051 86.0133 260.211 86 260.291 86V90.8C259.891 90.9067 259.304 91.0133 258.531 91.12C257.784 91.2533 257.051 91.32 256.331 91.32Z" fill="#42929D"/>
<path d="M113.56 114V100.176H116.408V114H113.56ZM120.809 114.128C119.603 114.128 118.739 113.797 118.217 113.136C117.694 112.475 117.433 111.488 117.433 110.176V105.472C117.433 104.395 117.742 103.573 118.361 103.008C118.979 102.443 119.843 102.16 120.953 102.16C123.203 102.16 124.329 103.264 124.329 105.472V106.32C124.329 107.173 124.318 107.867 124.297 108.4H120.233V110.672C120.233 111.077 120.275 111.397 120.361 111.632C120.446 111.856 120.627 111.968 120.905 111.968C121.118 111.968 121.267 111.904 121.353 111.776C121.449 111.648 121.502 111.504 121.513 111.344C121.534 111.173 121.545 110.928 121.545 110.608V109.472H124.329V110.144C124.329 111.509 124.062 112.517 123.529 113.168C123.006 113.808 122.099 114.128 120.809 114.128ZM121.545 107.008V105.504C121.545 104.661 121.337 104.24 120.921 104.24C120.451 104.24 120.217 104.661 120.217 105.504V107.008H121.545ZM125.341 114V100.176H128.109V106.32L129.453 102.288H132.349L130.589 107.376L132.829 114H129.853L128.109 108.48V114H125.341ZM133.073 114V111.664H135.873V114H133.073ZM140.073 114.128C137.758 114.128 136.601 112.955 136.601 110.608L136.617 109.68H139.417L139.433 111.056C139.433 111.333 139.486 111.547 139.593 111.696C139.7 111.835 139.876 111.904 140.121 111.904C140.494 111.904 140.681 111.6 140.681 110.992C140.681 110.544 140.59 110.192 140.409 109.936C140.238 109.68 139.961 109.408 139.577 109.12L138.089 107.968C137.577 107.573 137.209 107.168 136.985 106.752C136.761 106.325 136.649 105.728 136.649 104.96C136.649 104.363 136.804 103.856 137.113 103.44C137.433 103.013 137.854 102.693 138.377 102.48C138.9 102.267 139.481 102.16 140.121 102.16C142.393 102.16 143.529 103.291 143.529 105.552V105.776H140.633V105.328C140.633 105.051 140.585 104.816 140.489 104.624C140.404 104.421 140.254 104.32 140.041 104.32C139.849 104.32 139.7 104.379 139.593 104.496C139.497 104.603 139.449 104.752 139.449 104.944C139.449 105.371 139.614 105.701 139.945 105.936L141.673 107.2C142.292 107.659 142.766 108.16 143.097 108.704C143.428 109.237 143.593 109.915 143.593 110.736C143.593 111.824 143.284 112.661 142.665 113.248C142.046 113.835 141.182 114.128 140.073 114.128ZM146.867 114.128C146.131 114.128 145.624 113.973 145.347 113.664C145.069 113.355 144.931 112.859 144.931 112.176V104.864H144.147V102.736H144.931V100.256H147.651V102.736H148.451V104.864H147.651V111.44C147.651 111.643 147.667 111.792 147.699 111.888C147.731 111.984 147.816 112.032 147.955 112.032C148.061 112.032 148.163 112.027 148.259 112.016C148.355 112.005 148.419 112 148.451 112V113.92C148.291 113.963 148.056 114.005 147.747 114.048C147.448 114.101 147.155 114.128 146.867 114.128ZM152.734 114.128C150.398 114.128 149.23 112.917 149.23 110.496V105.792C149.23 104.683 149.539 103.803 150.158 103.152C150.787 102.491 151.646 102.16 152.734 102.16C153.822 102.16 154.675 102.491 155.294 103.152C155.923 103.803 156.238 104.683 156.238 105.792V110.496C156.238 112.917 155.07 114.128 152.734 114.128ZM152.734 111.968C152.958 111.968 153.123 111.888 153.23 111.728C153.336 111.568 153.39 111.349 153.39 111.072V105.344C153.39 104.661 153.171 104.32 152.734 104.32C152.296 104.32 152.078 104.661 152.078 105.344V111.072C152.078 111.349 152.131 111.568 152.238 111.728C152.344 111.888 152.51 111.968 152.734 111.968ZM157.279 102.288H160.015V103.648C160.143 103.147 160.361 102.773 160.671 102.528C160.98 102.283 161.417 102.16 161.983 102.16C162.441 102.16 162.836 102.267 163.167 102.48C163.508 102.683 163.748 102.965 163.887 103.328C164.121 102.923 164.383 102.629 164.671 102.448C164.959 102.256 165.359 102.16 165.871 102.16C166.788 102.16 167.423 102.443 167.775 103.008C168.137 103.563 168.319 104.373 168.319 105.44L168.287 114H165.471V105.392C165.471 104.635 165.279 104.256 164.895 104.256C164.628 104.256 164.436 104.389 164.319 104.656C164.201 104.912 164.143 105.221 164.143 105.584V114H161.343V105.392C161.343 105.061 161.305 104.795 161.231 104.592C161.167 104.389 161.023 104.288 160.799 104.288C160.511 104.288 160.308 104.432 160.191 104.72C160.073 104.997 160.015 105.333 160.015 105.728V114H157.279V102.288ZM169.276 114V111.664H172.076V114H169.276ZM177.93 114L176.458 100.256H179.146L179.914 108.928L180.682 100.256H183.242L183.978 108.928L184.714 100.256H187.434L185.93 114H182.634L181.946 107.376L181.29 114H177.93ZM188.185 101.504V99.552H190.985V101.504H188.185ZM188.185 114V102.288H190.985V114H188.185ZM194.507 114.128C193.771 114.128 193.265 113.973 192.987 113.664C192.71 113.355 192.571 112.859 192.571 112.176V104.864H191.787V102.736H192.571V100.256H195.291V102.736H196.091V104.864H195.291V111.44C195.291 111.643 195.307 111.792 195.339 111.888C195.371 111.984 195.457 112.032 195.595 112.032C195.702 112.032 195.803 112.027 195.899 112.016C195.995 112.005 196.059 112 196.091 112V113.92C195.931 113.963 195.697 114.005 195.387 114.048C195.089 114.101 194.795 114.128 194.507 114.128ZM200.374 114.128C198.038 114.128 196.87 112.917 196.87 110.496V105.792C196.87 104.683 197.18 103.803 197.798 103.152C198.428 102.491 199.286 102.16 200.374 102.16C201.462 102.16 202.316 102.491 202.934 103.152C203.564 103.803 203.878 104.683 203.878 105.792V110.496C203.878 112.917 202.71 114.128 200.374 114.128ZM200.374 111.968C200.598 111.968 200.764 111.888 200.87 111.728C200.977 111.568 201.03 111.349 201.03 111.072V105.344C201.03 104.661 200.812 104.32 200.374 104.32C199.937 104.32 199.718 104.661 199.718 105.344V111.072C199.718 111.349 199.772 111.568 199.878 111.728C199.985 111.888 200.15 111.968 200.374 111.968ZM204.919 114V100.176H207.767V114H204.919ZM211.192 114.128C210.509 114.128 209.992 113.968 209.64 113.648C209.299 113.317 209.069 112.885 208.952 112.352C208.845 111.808 208.792 111.115 208.792 110.272L208.824 104.992C208.824 104.16 209.032 103.483 209.448 102.96C209.875 102.427 210.472 102.16 211.24 102.16C211.997 102.16 212.563 102.411 212.936 102.912V100.176H215.736V114H212.936V112.752C212.776 113.211 212.557 113.557 212.28 113.792C212.013 114.016 211.651 114.128 211.192 114.128ZM212.264 111.936C212.541 111.936 212.723 111.803 212.808 111.536C212.893 111.259 212.936 110.891 212.936 110.432V109.936V105.536C212.936 105.195 212.888 104.907 212.792 104.672C212.696 104.437 212.525 104.32 212.28 104.32C212.003 104.32 211.816 104.432 211.72 104.656C211.635 104.869 211.592 105.163 211.592 105.536V110.464C211.592 111.445 211.816 111.936 212.264 111.936ZM220.655 114V100.256H223.375V105.76L224.655 100.256H227.423L225.887 106.544L227.743 114H224.895L223.391 107.344V114H220.655ZM231.562 114.128C229.226 114.128 228.058 112.917 228.058 110.496V105.792C228.058 104.683 228.367 103.803 228.986 103.152C229.615 102.491 230.474 102.16 231.562 102.16C232.65 102.16 233.503 102.491 234.122 103.152C234.751 103.803 235.066 104.683 235.066 105.792V110.496C235.066 112.917 233.898 114.128 231.562 114.128ZM231.562 111.968C231.786 111.968 231.951 111.888 232.058 111.728C232.164 111.568 232.218 111.349 232.218 111.072V105.344C232.218 104.661 231.999 104.32 231.562 104.32C231.124 104.32 230.906 104.661 230.906 105.344V111.072C230.906 111.349 230.959 111.568 231.066 111.728C231.172 111.888 231.338 111.968 231.562 111.968ZM235.771 114V112.288L238.683 104.496H235.899V102.288H241.579V104.192L238.827 111.904H241.611V114H235.771ZM244.407 114.128C243.5 114.128 242.876 113.829 242.535 113.232C242.204 112.624 242.039 111.76 242.039 110.64C242.039 109.723 242.156 109.019 242.391 108.528C242.636 108.037 242.972 107.68 243.399 107.456C243.825 107.221 244.476 106.965 245.351 106.688L246.119 106.432V106.4V105.232C246.119 104.923 246.055 104.688 245.927 104.528C245.809 104.357 245.665 104.272 245.495 104.272C245.345 104.272 245.212 104.341 245.095 104.48C244.988 104.619 244.935 104.805 244.935 105.04V105.744H242.215V105.36C242.215 104.208 242.481 103.387 243.015 102.896C243.559 102.405 244.439 102.16 245.655 102.16C246.625 102.16 247.415 102.416 248.023 102.928C248.631 103.429 248.935 104.144 248.935 105.072V114H246.151V112.608C246.012 113.088 245.788 113.461 245.479 113.728C245.18 113.995 244.823 114.128 244.407 114.128ZM245.511 111.952C245.724 111.952 245.873 111.867 245.959 111.696C246.055 111.515 246.103 111.296 246.103 111.04V107.776C245.687 107.936 245.377 108.139 245.175 108.384C244.983 108.629 244.887 108.971 244.887 109.408V110.912C244.887 111.605 245.095 111.952 245.511 111.952ZM250.013 102.288H252.813V103.776C252.93 103.296 253.133 102.907 253.421 102.608C253.709 102.309 254.093 102.16 254.573 102.16C255.362 102.16 255.944 102.405 256.317 102.896C256.701 103.376 256.893 104.064 256.893 104.96V114H254.141V105.248C254.141 104.992 254.088 104.773 253.981 104.592C253.885 104.411 253.73 104.32 253.517 104.32C253.229 104.32 253.037 104.453 252.941 104.72C252.856 104.976 252.813 105.323 252.813 105.76V114H250.013V102.288ZM261.278 114.128C260.072 114.128 259.208 113.797 258.686 113.136C258.163 112.475 257.902 111.488 257.902 110.176V105.472C257.902 104.395 258.211 103.573 258.83 103.008C259.448 102.443 260.312 102.16 261.422 102.16C263.672 102.16 264.798 103.264 264.798 105.472V106.32C264.798 107.173 264.787 107.867 264.766 108.4H260.702V110.672C260.702 111.077 260.744 111.397 260.83 111.632C260.915 111.856 261.096 111.968 261.374 111.968C261.587 111.968 261.736 111.904 261.822 111.776C261.918 111.648 261.971 111.504 261.982 111.344C262.003 111.173 262.014 110.928 262.014 110.608V109.472H264.798V110.144C264.798 111.509 264.531 112.517 263.998 113.168C263.475 113.808 262.568 114.128 261.278 114.128ZM262.014 107.008V105.504C262.014 104.661 261.806 104.24 261.39 104.24C260.92 104.24 260.686 104.661 260.686 105.504V107.008H262.014ZM269.33 114.128C268.05 114.128 267.127 113.803 266.562 113.152C265.997 112.501 265.714 111.504 265.714 110.16V106.544C265.714 105.531 265.821 104.709 266.034 104.08C266.258 103.44 266.626 102.96 267.138 102.64C267.661 102.32 268.381 102.16 269.298 102.16C270.301 102.16 271.117 102.421 271.746 102.944C272.375 103.467 272.69 104.197 272.69 105.136V106.928H269.842V105.28C269.842 104.971 269.799 104.736 269.714 104.576C269.629 104.405 269.463 104.32 269.218 104.32C268.759 104.32 268.53 104.645 268.53 105.296V110.976C268.53 111.243 268.583 111.472 268.69 111.664C268.807 111.845 268.978 111.936 269.202 111.936C269.426 111.936 269.591 111.845 269.698 111.664C269.815 111.483 269.869 111.248 269.858 110.96L269.842 108.992H272.69V111.04C272.69 112 272.375 112.757 271.746 113.312C271.127 113.856 270.322 114.128 269.33 114.128ZM273.669 114V100.176H276.437V106.32L277.781 102.288H280.677L278.917 107.376L281.157 114H278.181L276.437 108.48V114H273.669ZM281.513 101.504V99.552H284.313V101.504H281.513ZM281.513 114V102.288H284.313V114H281.513Z" fill="#42929D"/>
</g>
<defs>
<filter id="filter0_d" x="0.135742" y="0.5" width="289.177" height="127.07" filterUnits="userSpaceOnUse" color-interpolation-filters="sRGB">
<feFlood flood-opacity="0" result="BackgroundImageFix"/>
<feColorMatrix in="SourceAlpha" type="matrix" values="0 0 0 0 0 0 0 0 0 0 0 0 0 0 0 0 0 0 127 0"/>
<feOffset dy="2"/>
<feGaussianBlur stdDeviation="2.5"/>
<feColorMatrix type="matrix" values="0 0 0 0 0 0 0 0 0 0 0 0 0 0 0 0 0 0 0.15 0"/>
<feBlend mode="normal" in2="BackgroundImageFix" result="effect1_dropShadow"/>
<feBlend mode="normal" in="SourceGraphic" in2="effect1_dropShadow" result="shape"/>
</filter>
</defs>
</svg>
