<svg width="433" height="371" viewBox="0 0 433 371" fill="none" xmlns="http://www.w3.org/2000/svg">
<path d="M367.461 200.66L320.681 246.83L214.961 351.15L212.821 353.26L200.901 365.02L175.911 340.33L173.711 338.16L128.021 293.03H128.011L113.371 278.56L104.721 270.01L78.9611 244.57L75.4816 241.13L34.4215 200.57C26.2642 192.415 19.3502 183.106 13.9015 172.94C13.4015 172.03 12.9313 171.11 12.4713 170.19C2.7341 150.776 -1.43214 129.043 0.435156 107.405C2.30245 85.7665 10.1302 65.069 23.0494 47.6104C35.9685 30.1518 53.4735 16.6153 73.6207 8.50376C93.7679 0.392273 115.769 -1.97675 137.181 1.65968H137.192C137.571 1.71968 137.942 1.77966 138.321 1.85966C142.338 2.56851 146.314 3.4932 150.232 4.62968C160.482 7.5928 170.279 11.9431 179.351 17.5597C180.301 18.1497 181.242 18.7497 182.172 19.3597C188.821 23.7539 195.009 28.8097 200.641 34.4497L200.991 34.0997L201.341 34.4497C204.753 31.0389 208.37 27.8397 212.172 24.8697C213.001 24.2197 213.841 23.5797 214.681 22.9597C227.542 13.4771 242.202 6.71847 257.765 3.0973C273.328 -0.523866 289.466 -0.93138 305.192 1.89967C309.213 2.60822 313.192 3.53627 317.111 4.67967C318.422 5.04973 319.721 5.44974 321.011 5.87968C322.051 6.21968 323.091 6.56966 324.121 6.94966C332.697 10.0152 340.883 14.0763 348.511 19.0497C350.181 20.1396 351.828 21.2796 353.451 22.4697C367.193 32.4585 378.605 45.3072 386.904 60.1307C395.202 74.9541 400.189 91.4002 401.52 108.336C402.852 125.272 400.496 142.295 394.617 158.234C388.737 174.172 379.472 188.646 367.461 200.66Z" fill="#458FF6"/>
<path opacity="0.15" d="M320.681 246.83L214.961 351.15L212.821 353.26L200.901 365.02L175.911 340.33L173.711 338.16L128.021 293.03C135.361 291.32 146.641 293.67 150.771 295.71C160.561 300.54 168.611 308.47 178.551 312.99C187.428 316.997 197.344 318.092 206.881 316.12C224.701 312.38 238.491 298.6 250.651 285.04C262.811 271.47 275.241 256.91 292.331 250.62C301.341 247.3 311.021 246.55 320.681 246.83Z" fill="black"/>
<path d="M397.541 36.3796C382.994 21.7908 364.885 11.2591 345.011 5.82956C343.691 5.45956 342.381 5.12955 341.051 4.81955C335.333 3.45332 329.52 2.52069 323.661 2.02957C322.641 1.92957 321.621 1.85957 320.591 1.80957C315.452 1.48456 310.297 1.5046 305.161 1.86956C277.027 3.7521 250.489 15.6135 230.321 35.3195L229.961 34.9596L229.601 35.3195C216.424 22.4623 200.436 12.8486 182.901 7.23956C181.911 6.91956 180.911 6.60955 179.911 6.31955C166.407 2.40269 152.318 0.896341 138.291 1.86956C137.901 1.88956 137.511 1.91956 137.131 1.95956C111.411 3.93155 87.0407 14.2557 67.7312 31.3596C65.9109 32.9596 64.1209 34.6396 62.3811 36.3796C46.0342 52.7566 34.81 73.5394 30.0792 96.19C25.3483 118.841 27.3157 142.379 35.7409 163.93C36.091 164.87 36.4709 165.8 36.8708 166.73C42.8219 180.92 51.4876 193.811 62.3811 204.68L101.301 243.1L104.361 246.13L188.581 329.26L190.751 331.41L212.871 353.25L229.961 370.12L397.541 204.67C419.826 182.336 432.341 152.075 432.341 120.525C432.341 88.9746 419.826 58.7131 397.541 36.3796ZM395.431 202.54L229.961 365.9L215.011 351.14L193.361 329.77L191.191 327.63L108.611 246.1L105.601 243.13L64.5007 202.55C53.9501 192.026 45.5415 179.556 39.7409 165.83C39.341 164.9 38.9607 163.97 38.6111 163.04C30.3441 142.013 28.3901 119.031 32.9887 96.9098C37.5872 74.7889 48.5385 54.4898 64.5007 38.4996C66.3611 36.6396 68.2644 34.8596 70.2107 33.1596H70.2209C88.7979 16.9029 112.099 7.03285 136.701 4.99957C139.971 4.71957 143.244 4.57956 146.521 4.57956C147.751 4.57956 148.971 4.59955 150.201 4.63955C160.25 4.94896 170.217 6.56248 179.851 9.43957C180.841 9.72957 181.831 10.0396 182.811 10.3696C193.232 13.7664 203.111 18.6465 212.141 24.8596C218.02 28.8906 223.513 33.4567 228.551 38.4996L229.611 39.5596L229.961 39.2096L230.311 39.5596L231.371 38.4996C242.575 27.2836 255.964 18.4904 270.708 12.6656C285.453 6.84087 301.237 4.10897 317.081 4.63955C318.351 4.67955 319.621 4.73956 320.891 4.82956C321.911 4.88956 322.931 4.95957 323.941 5.05957C330.387 5.63765 336.773 6.7583 343.031 8.40957C344.371 8.74957 345.701 9.11957 347.021 9.52957C366.207 15.3316 383.562 26.0079 397.391 40.5168C411.221 55.0257 421.054 72.8717 425.93 92.3138C430.807 111.756 430.56 132.13 425.215 151.448C419.869 170.767 409.608 188.37 395.431 202.54Z" fill="#3F3D56"/>
<path opacity="0.15" d="M163.081 9.16966C156.661 14.2397 149.771 18.9197 145.601 25.8497C142.531 30.9697 141.201 36.9197 140.211 42.7997C138.291 54.2397 137.471 65.9597 133.711 76.9296C129.961 87.8996 122.641 98.3796 111.791 102.47C105.061 105 97.6411 104.86 90.4712 104.37C72.7812 103.17 54.9712 99.9996 39.0512 92.2096C30.1513 87.8496 21.521 81.9696 11.6313 81.3196C9.61867 81.1902 7.59777 81.301 5.61133 81.6496C14.2406 54.7125 32.2977 31.7926 56.467 17.0985C80.6362 2.40444 109.295 -3.07737 137.181 1.65968H137.191C137.571 1.71968 137.941 1.77966 138.321 1.85966C142.338 2.56851 146.314 3.4932 150.231 4.62968C154.599 5.8931 158.889 7.40896 163.081 9.16966Z" fill="black"/>
</svg>
