<svg width="200" height="150" viewBox="0 0 200 150" fill="none" xmlns="http://www.w3.org/2000/svg">
<path d="M148.974 44.6402C150.592 44.6402 151.904 43.6564 151.904 42.443V38.6733C151.904 37.4599 150.592 36.4761 148.974 36.4761C147.355 36.4761 146.044 37.4599 146.044 38.6733V42.443C146.044 43.6564 147.355 44.6402 148.974 44.6402ZM123.844 36.4761C122.225 36.4761 120.914 37.4599 120.914 38.6733V42.443C120.914 43.6564 122.225 44.6402 123.844 44.6402C125.462 44.6402 126.773 43.6564 126.773 42.443V38.6733C126.773 37.4599 125.462 36.4761 123.844 36.4761ZM194.141 111.821V87.4541C194.141 79.9743 187.071 73.3816 177.332 71.7788L172.821 71.0347C175.526 68.8134 177.102 65.8764 177.102 62.7188V30.5186C177.102 22.3687 172.87 14.7047 165.184 8.93701C157.496 3.17373 147.277 0 136.41 0C113.973 0 95.7188 13.6904 95.7188 30.5186V62.7188C95.7188 65.8761 97.2937 68.8131 99.998 71.0344L95.484 71.7788C93.5035 72.1055 91.6137 72.6366 89.8594 73.3506V50.6133C89.8594 47.5893 86.5793 45.1289 82.5469 45.1289H7.30859C3.27891 45.1289 0 47.5893 0 50.6133V68.1891C0 69.4025 1.31133 70.3863 2.92969 70.3863C4.54805 70.3863 5.85938 69.4025 5.85938 68.1891V50.6133C5.85938 50.0124 6.50937 49.5234 7.30859 49.5234H82.5469C83.3481 49.5234 84 50.0121 84 50.6133V86.959C84 87.5599 83.3481 88.0488 82.5469 88.0488H55.7266V72.9281C55.7266 70.1013 52.6598 67.8012 48.8906 67.8012H40.9676C37.1984 67.8012 34.1316 70.1013 34.1316 72.9281V88.0488H7.30859C6.50937 88.0488 5.85938 87.5599 5.85938 86.959V78.443C5.85938 77.2295 4.54805 76.2457 2.92969 76.2457C1.31133 76.2457 0 77.2295 0 78.443V86.959C0 89.983 3.27891 92.4434 7.30859 92.4434H34.1316V100.05H30.1168C24.8781 100.05 20.6164 103.247 20.6164 107.176V111.763H6.83594C3.0668 111.763 0 114.063 0 116.89V127.295C0 130.122 3.0668 132.422 6.83594 132.422H11.7188V147.803C11.7188 149.016 13.0301 150 14.6484 150C16.2668 150 17.5781 149.016 17.5781 147.803V132.422H150.687C152.305 132.422 153.617 131.438 153.617 130.225C153.617 129.011 152.305 128.027 150.687 128.027H6.83594C6.29727 128.027 5.85938 127.699 5.85938 127.295V116.89C5.85938 116.486 6.29727 116.157 6.83594 116.157H193.164C193.703 116.157 194.141 116.486 194.141 116.89V127.295C194.141 127.699 193.703 128.027 193.164 128.027H164.359C162.741 128.027 161.429 129.011 161.429 130.225C161.429 131.438 162.741 132.422 164.359 132.422H182.422V147.803C182.422 149.016 183.733 150 185.352 150C186.97 150 188.281 149.016 188.281 147.803V132.422H193.164C196.933 132.422 200 130.122 200 127.295V116.89C200 114.312 197.448 112.179 194.141 111.821ZM39.991 90.2631C39.991 90.2572 39.9922 90.2517 39.9922 90.2461C39.9922 90.2405 39.991 90.2347 39.991 90.2291V72.9281C39.991 72.5244 40.4289 72.1957 40.9676 72.1957H48.8906C49.4293 72.1957 49.8672 72.5244 49.8672 72.9281V100.05H39.991V90.2631ZM63.3828 111.763H26.4754V107.176C26.4754 105.67 28.109 104.445 30.1164 104.445H59.741C61.7492 104.445 63.3824 105.67 63.3824 107.176V111.763H63.3828ZM78.6758 111.763H69.2422V107.176C69.2422 103.247 64.9801 100.05 59.7414 100.05H55.7266V92.4434H78.6758V111.763ZM101.578 30.5186C101.578 16.1139 117.204 4.39453 136.41 4.39453C145.712 4.39453 154.461 7.11152 161.041 12.0445C167.62 16.9813 171.242 23.5421 171.242 30.5186V62.7188C171.242 65.7548 168.98 68.4735 165.412 69.8127L154.646 68.037C153.181 67.7965 152.117 66.803 152.117 65.6748V63.6932C160.091 59.8178 165.381 53.0903 165.381 45.4491V31.7449C165.381 30.7658 164.838 29.8181 163.892 29.1448C162.948 28.4728 161.662 28.1168 160.361 28.1675C158.289 28.2486 155.15 28.0705 151.96 26.7592C149.925 25.9228 148.191 24.7676 146.805 23.3262C146.023 22.5123 144.812 21.9812 143.482 21.8684C142.141 21.7544 140.792 22.0734 139.779 22.7423C136.939 24.6149 133.741 26.0786 130.273 27.0929C123.46 29.0856 117.119 28.8838 112.997 28.3632C111.613 28.1889 110.203 28.4786 109.129 29.1592C108.053 29.8418 107.436 30.8396 107.436 31.897V45.4491C107.436 53.0912 112.728 59.8195 120.703 63.6943V65.6745C120.703 66.8027 119.638 67.7962 118.168 68.0373L107.407 69.8121C103.84 68.4727 101.578 65.7542 101.578 62.7185V30.5186ZM126.55 65.8816C129.629 66.7198 132.949 67.1786 136.409 67.1786C139.87 67.1786 143.19 66.7195 146.27 65.8811C146.391 69.0647 149.568 71.8518 153.787 72.3949C149.038 75.5748 142.92 77.3505 136.409 77.3505C129.898 77.3505 123.779 75.5748 119.03 72.3949C123.2 71.787 126.434 69.1187 126.55 65.8816ZM113.295 45.4491V32.8412C118.127 33.3302 125.017 33.3472 132.402 31.1871C136.155 30.0894 139.638 28.5495 142.771 26.6033C144.541 28.2539 146.681 29.6001 149.144 30.6129C152.979 32.1891 156.738 32.5781 159.514 32.5781H159.522V45.4488C159.522 55.0072 149.153 62.7838 136.409 62.7838C123.664 62.7838 113.295 55.0078 113.295 45.4491ZM101.77 111.763H84.5352V108.395H101.77V111.763ZM188.281 111.763H171.051V108.395H188.281V111.763ZM188.281 104.001H171.051V101.895C171.051 100.681 169.739 99.6973 168.121 99.6973C166.503 99.6973 165.191 100.681 165.191 101.895V106.187C165.191 106.19 165.191 106.194 165.191 106.198C165.191 106.202 165.191 106.206 165.191 106.209V111.763H107.629V101.895C107.629 100.681 106.318 99.6973 104.699 99.6973C103.081 99.6973 101.77 100.681 101.77 101.895V104.001H84.5352V92.2321C87.6027 91.5803 89.8594 89.4659 89.8594 86.959V78.67C91.8176 77.3874 94.175 76.4941 96.7422 76.0708L112.27 73.5097C118.362 78.7605 127.057 81.7447 136.409 81.7447C145.76 81.7447 154.455 78.7605 160.547 73.5097L176.075 76.0708C183.148 77.2351 188.281 82.0225 188.281 87.4541V104.001ZM142.844 55.4118C144.262 54.8282 144.782 53.4926 144.004 52.4285C143.225 51.3647 141.445 50.9748 140.026 51.5587C139.237 51.8833 137.972 52.2612 136.33 52.2548C134.774 52.2425 133.547 51.8695 132.792 51.559C131.373 50.9754 129.592 51.3645 128.814 52.4282C128.036 53.492 128.555 54.8276 129.973 55.4115C131.899 56.204 134.076 56.632 136.269 56.649C136.316 56.6493 136.362 56.6496 136.408 56.6496C139.235 56.6496 141.464 55.9793 142.844 55.4118Z" fill="#F56E5D"/>
</svg>
