<svg width="100" height="100" viewBox="0 0 100 100" fill="none" xmlns="http://www.w3.org/2000/svg">
<g clip-path="url(#clip0)">
<path d="M58.1336 24.4933C58.1334 24.4933 58.1333 24.4935 58.1333 24.4935C49.5127 29.0732 46.2237 39.8146 50.8016 48.4378C53.9797 54.4204 60.1243 57.8351 66.47 57.8351C69.2682 57.8351 72.1063 57.1708 74.7454 55.7697C83.3659 51.19 86.6549 40.4488 82.077 31.8253C77.4975 23.2048 66.7569 19.9158 58.1336 24.4933ZM73.3713 53.1826C71.1684 54.3521 68.8008 54.9064 66.4651 54.9064C61.1696 54.9062 56.0409 52.0564 53.3889 47.0642C49.5684 39.8675 52.3131 30.9031 59.5077 27.081C66.7043 23.2609 75.668 26.0056 79.4899 33.1998C83.3102 40.3962 80.5653 49.3607 73.3713 53.1826Z" fill="#334DDE"/>
<path d="M73.5908 35.6233H70.9424V32.9746C70.9424 31.1996 69.4984 29.7557 67.7234 29.7557H65.1553C63.3805 29.7557 61.9365 31.1996 61.9365 32.9746V35.6233H59.2879C57.51 35.6233 56.0635 37.0697 56.0635 38.8477V41.4102C56.0635 43.1881 57.51 44.6346 59.2879 44.6346H61.9365V47.2832C61.9365 49.0611 63.3805 50.5076 65.1553 50.5076H67.7234C69.4984 50.5076 70.9424 49.0611 70.9424 47.2832V44.6348H73.5908C75.3689 44.6348 76.8154 43.1883 76.8154 41.4104V38.8479C76.8152 37.0697 75.3689 35.6233 73.5908 35.6233ZM73.8857 41.4104C73.8857 41.5703 73.7508 41.7053 73.5906 41.7053H69.4775C68.6686 41.7053 68.0127 42.3611 68.0127 43.1701V47.2836C68.0127 47.4408 67.8775 47.5785 67.7232 47.5785H65.1551C64.9982 47.5785 64.8658 47.4436 64.8658 47.2836V43.1701C64.8658 42.3611 64.2102 41.7053 63.401 41.7053H59.2877C59.1279 41.7053 58.9928 41.5703 58.9928 41.4104V38.8479C58.9928 38.6879 59.1277 38.5529 59.2877 38.5529H63.401C64.21 38.5529 64.8658 37.8971 64.8658 37.0881V32.9746C64.8658 32.8178 64.9984 32.6852 65.1551 32.6852H67.7232C67.8775 32.6852 68.0127 32.8203 68.0127 32.9746V37.0881C68.0127 37.8971 68.6684 38.5529 69.4775 38.5529H73.5906C73.7506 38.5529 73.8857 38.6879 73.8857 38.8479V41.4104Z" fill="#334DDE"/>
<path d="M98.9423 82.0324L94.0993 72.9244C94.0968 72.9193 94.0948 72.9142 94.0923 72.9091C94.0895 72.9043 94.0864 72.8998 94.0837 72.8949L91.4393 67.9216C91.069 67.2179 90.4446 66.7003 89.6813 66.4644C88.9157 66.2279 88.1056 66.3031 87.3987 66.6777L86.2989 67.2625L81.8255 58.838C84.5739 56.5861 86.7856 53.7554 88.3306 50.4804C90.4966 45.8886 91.1751 40.6261 90.2405 35.6621C90.0909 34.8669 89.3253 34.3441 88.5302 34.4935C87.7352 34.6431 87.212 35.4089 87.3618 36.2039C89.0931 45.4017 84.6972 54.5343 76.4231 58.9291C72.911 60.7949 69.0376 61.624 65.1659 61.3843C65.1011 61.374 65.0352 61.3664 64.9677 61.365C64.9565 61.3648 64.9458 61.3646 64.9349 61.3646C64.9208 61.3646 64.9071 61.3664 64.8931 61.3668C63.3208 61.249 61.7503 60.955 60.2057 60.4818C54.7694 58.8158 50.3077 55.1326 47.6421 50.1099C44.9751 45.0917 44.4235 39.3339 46.0891 33.8972C47.7546 28.4613 51.436 23.9996 56.4557 21.3341C61.4772 18.6666 67.237 18.1142 72.6731 19.7791C78.1095 21.4437 82.5714 25.1259 85.236 30.1474C85.6153 30.8617 86.5018 31.1335 87.2165 30.7546C87.9311 30.3753 88.2028 29.4886 87.8237 28.774C84.7919 23.0611 79.7159 18.8718 73.5307 16.9779C73.4995 16.9683 73.4682 16.9599 73.437 16.9503C71.5266 11.831 67.747 8.10659 62.46 6.15444C56.9425 4.11694 50.1184 4.18237 42.7298 6.34292C41.3362 6.74624 40.3048 7.12768 39.4761 7.43413C38.5175 7.78862 37.8841 8.0228 37.4071 8.0228C36.9345 8.0228 36.3032 7.78921 35.3477 7.43569C34.5182 7.12886 33.486 6.74683 32.0936 6.3439C24.9583 4.25776 18.3235 4.12515 12.9063 5.96128C12.1401 6.22085 11.7296 7.05249 11.9891 7.8187C12.2489 8.58491 13.0804 8.99526 13.8466 8.73589C18.6911 7.09409 24.7167 7.2394 31.2755 9.15698C32.5694 9.53159 33.5464 9.89292 34.3313 10.1835C35.538 10.63 36.4099 10.9527 37.4073 10.9527C38.4087 10.9527 39.2827 10.6294 40.4925 10.182C41.2768 9.89194 42.253 9.53101 43.5483 9.15601C55.785 5.57808 65.7849 8.33569 69.8825 16.1587C64.8245 15.4216 59.6808 16.3039 55.0815 18.747C49.371 21.7792 45.1827 26.855 43.2882 33.0392C41.3932 39.2246 42.0208 45.7753 45.0548 51.4839C48.0868 57.1972 53.1626 61.3875 59.3472 63.2828C60.6958 63.696 62.0618 63.9855 63.4327 64.1601C63.2999 68.1281 62.8997 73.2726 61.4401 77.1261C59.8458 81.3351 57.3778 83.2955 53.6733 83.2955C49.8112 83.2955 47.2489 81.3939 45.6097 77.3111C44.0462 73.417 43.5481 68.1978 43.0667 63.1505C42.9434 61.8593 42.8161 60.524 42.6735 59.2558C42.3546 56.4326 41.786 54.3627 40.9356 52.9275C39.8079 51.0246 38.3944 50.6251 37.4071 50.6251C36.4214 50.6251 35.01 51.0248 33.8831 52.9281C33.0333 54.3636 32.4651 56.4334 32.1462 59.2566C32.0038 60.5242 31.8763 61.8595 31.753 63.1509C31.2716 68.1982 30.7735 73.4171 29.21 77.3113C27.5708 81.3941 25.0087 83.2957 21.1466 83.2957C16.8548 83.2957 14.1618 80.622 12.6716 74.8816C11.3054 69.6183 11.3054 62.8843 11.3054 57.4736C11.3054 49.8609 8.85634 44.363 6.6956 39.5125C5.36845 36.5334 4.11513 33.7195 3.51317 30.6789C1.89071 22.4533 3.69677 15.6833 8.59833 11.6162C9.22099 11.0996 9.30692 10.1761 8.79032 9.55366C8.27392 8.9312 7.35009 8.84526 6.72782 9.36167C0.961611 14.1457 -1.20069 21.9177 0.639151 31.2462C1.30536 34.6107 2.62392 37.5705 4.01962 40.7041C6.16122 45.5121 8.37587 50.4836 8.37587 57.4732C8.37587 63.0507 8.37587 69.9921 9.83622 75.6173C11.6634 82.6558 15.4688 86.2248 21.1468 86.2248C26.2173 86.2248 29.8448 83.5929 31.9288 78.4025C33.6499 74.116 34.1682 68.683 34.6694 63.4287C34.797 62.0906 34.9177 60.8265 35.0573 59.5843C35.5962 54.8146 36.83 53.5543 37.4071 53.5543C38.0288 53.5543 39.2247 54.8244 39.7624 59.5835C39.9022 60.8265 40.0227 62.0904 40.1505 63.4285C40.6516 68.6828 41.17 74.116 42.8911 78.4023C44.9751 83.5929 48.6028 86.2248 53.6733 86.2248C58.6188 86.2248 62.1536 83.5126 64.1798 78.1636C65.7684 73.9693 66.2095 68.7521 66.3577 64.3548C66.3958 64.355 66.4339 64.357 66.472 64.357C68.7847 64.3568 71.085 64.0189 73.3138 63.3541L77.7907 71.7851L76.6921 72.3693C76.6901 72.3703 76.6882 72.3714 76.6864 72.3724C75.2339 73.1529 74.6849 74.9654 75.4593 76.407L78.1087 81.3916C78.1112 81.3962 78.113 81.4011 78.1153 81.4058C78.1171 81.4091 78.1194 81.4121 78.1214 81.4154L82.9653 90.5285C84.0956 92.6558 85.9942 94.2173 88.311 94.9252C89.1899 95.1935 90.0874 95.3267 90.9794 95.3267C92.438 95.3267 93.8813 94.9707 95.2017 94.2693C99.6059 91.9293 101.284 86.4398 98.9423 82.0324ZM88.7718 69.2656C88.7845 69.2589 88.7995 69.2584 88.8165 69.2634C88.8386 69.2703 88.8446 69.2814 88.8497 69.2914L90.8175 72.992L80.0153 78.7369L78.0431 75.0265C78.0409 75.0224 78.0358 75.0128 78.0419 74.9925C78.0497 74.9673 78.0651 74.9576 78.0718 74.9541L88.7718 69.2656ZM76.0909 62.3378C76.6667 62.0865 77.2366 61.8144 77.7973 61.5166C78.3556 61.2201 78.8985 60.9031 79.427 60.5683L83.712 68.6376L80.3776 70.4103L76.0909 62.3378ZM93.827 91.6824C92.3899 92.4461 90.7349 92.6027 89.1671 92.1236C87.5989 91.6447 86.3151 90.59 85.5522 89.1539L81.3899 81.3234L92.1925 75.5783L96.3554 83.4072C97.9389 86.3878 96.805 90.1002 93.827 91.6824Z" fill="#334DDE"/>
</g>
<defs>
<clipPath id="clip0">
<rect width="100" height="100" fill="white"/>
</clipPath>
</defs>
</svg>
