<svg width="175" height="400" viewBox="0 0 175 400" fill="none" xmlns="http://www.w3.org/2000/svg">
<path d="M174.477 109.728C174.453 109.66 174.4 109.598 174.326 109.549C172.83 108.54 153.75 90.1002 153.75 90.1002C153.75 90.1002 152.746 88.0413 151.119 85.3648C151.641 84.9034 152.032 84.3798 152.274 83.8207C152.362 83.5838 152.426 83.343 152.465 83.1001C152.465 83.0246 152.545 82.9629 152.575 82.8874C152.924 81.9566 152.889 80.978 152.475 80.0599C152.363 80.2954 152.226 80.5249 152.063 80.7462C151.686 79.9467 151.18 79.1781 150.557 78.454C148.026 75.4755 144.411 72.9638 141.75 70.0608C137.721 65.5504 136.119 60.2208 137.221 54.9901C137.221 55.2577 137.221 55.5323 137.221 55.7999C137.322 54.7625 137.523 53.7308 137.824 52.7117C138.244 51.5516 138.805 50.4176 139.501 49.3214C141.891 45.5812 145.757 42.3214 148.107 38.5674C148.895 37.3012 149.494 35.9837 149.894 34.635C150.722 32.3826 151.024 30.0548 150.788 27.7379C150.788 28.2869 150.657 28.836 150.537 29.3781C150.283 23.8077 146.991 18.5034 141.308 14.5065C133.104 8.8721 121.325 6.68287 110.058 5.52992C105.324 5.15238 100.802 3.97291 96.9036 2.09852C92.5755 0.183802 86.9822 -0.276009 81.9212 0.142621C76.1042 0.572424 70.6991 2.39875 66.6676 5.29659C61.3153 9.31819 58.9957 15.0143 52.7497 18.4045C48.9639 20.4634 44.1639 21.4241 39.7556 22.8242C35.3472 24.2242 31.1798 26.2556 29.7639 29.2615C29.7639 29.2615 29.7639 29.2203 29.7639 29.1997V29.3713L29.7037 29.4811C28.2376 33.036 31.0694 36.6527 32.5455 40.2008C34.0819 43.8724 34.1824 47.7498 34.2627 51.545C34.3731 56.1842 34.4736 60.8303 34.3631 65.4764C34.3129 67.3019 34.2225 69.148 34.0217 70.9667C31.6449 71.4578 29.3363 72.0916 27.1229 72.8608C24.8736 73.8628 16.4585 80.0736 16.4585 80.0736L0 123.048L0.220921 123.22L0 123.803L0.833458 123.673C3.16316 125.389 10.1222 130.275 17.6334 133.322L18.3363 141.75C18.3363 141.75 19.1799 150.205 30.5573 153.698C30.8183 156.628 31.6317 168.528 27.8661 173.243C25.2584 176.687 24.0319 180.542 24.3112 184.416C24.3112 184.416 25.6267 191.567 24.1305 195.327C23.2564 197.841 23.1913 200.454 23.9397 202.986C23.9397 202.986 23.9397 203.817 23.9397 205.244C23.9397 212.855 24.0702 237.245 23.9397 240.004C23.7489 243.264 23.9397 291.475 23.9397 291.475C23.9397 291.475 23.0058 315.571 20.0133 322.097C17.0209 328.624 17.774 350.234 17.774 350.234C17.774 350.234 15.8962 375.977 22.5338 381.055C22.5338 381.282 22.4736 381.515 22.4635 381.742C22.4635 381.845 22.4635 381.961 22.4635 382.064C22.3832 384.02 22.9355 386.099 25.3958 386.738C30.4167 388.055 37.0543 392.008 38.3095 393.141C39.5648 394.273 46.8652 397.094 56.3848 396.339C62.3484 395.881 68.3498 395.693 74.3496 395.776C74.3496 395.776 78.1053 395.309 76.8902 392.118C76.107 390.128 73.1748 387.067 71.0861 385.056C71.4676 385.125 71.8392 385.18 72.1906 385.228L72.5521 385.276H72.8333C72.9872 385.282 73.1414 385.282 73.2952 385.276H73.4961C73.6832 385.286 73.8713 385.286 74.0584 385.276C76.5789 385.111 85.9781 388.103 87.6551 390.08C89.332 392.056 95.2467 393.559 99.7052 393.937C102.356 394.156 109.044 393.786 114.657 393.292C117.484 393.092 120.284 392.743 123.032 392.249C124.358 391.905 124.639 390.807 124.257 389.572C123.807 388.003 122.58 386.588 120.783 385.564C119.156 384.775 117.007 382.696 115.421 380.994L114.999 380.534C117.801 378.708 122.862 372.738 124.398 371.502C126.266 369.999 121.385 315.035 121.385 315.035V287.481L128.867 261.402L134.098 247.601L138.587 226.766C138.587 226.766 146.44 202.43 144.02 200.042C144.02 199.994 142.011 174.938 139.903 168.919C138.989 166.236 139.22 160.197 139.762 154.322C140.329 153.938 140.724 153.451 140.902 152.919C141.079 152.387 141.033 151.831 140.766 151.316C140.616 150.964 140.421 150.622 140.184 150.294C140.184 150.191 140.184 150.081 140.184 149.978C144.522 148.614 149.055 147.561 153.71 146.835C161.191 145.833 159.324 143.198 159.324 143.198C159.324 143.198 161.011 140.94 162.125 139.56C163.24 138.181 162.316 126.006 162.125 125.004C162.055 124.599 161.593 122.362 161.061 119.823C163.461 118.656 166.584 117.208 169.988 115.836C176.465 113.214 175.009 110.448 174.477 109.728ZM76.8701 283.72C76.8701 283.72 71.2567 293.507 73.5061 296.012C75.7555 298.516 73.1346 307.816 73.1346 307.816L71.2567 321.617C71.2567 321.617 66.0249 347.215 67.8927 353.234C69.3588 357.955 69.9011 372.058 70.0718 377.94C69.9433 377.974 69.819 378.015 69.7003 378.063L69.4492 378.152C70.3128 375.84 69.9513 371.159 65.6634 361.743L65.302 322.852C65.302 322.852 64.6392 277.928 69.8308 272.905C75.0224 267.881 76.8601 259.35 76.8601 259.35C76.8601 259.35 75.7354 271.655 75.0024 274.915C74.2693 278.175 76.8701 283.72 76.8701 283.72ZM66.4166 380.39C66.3664 380.472 66.3061 380.554 66.266 380.63L65.9848 380.383C66.1283 380.392 66.2726 380.395 66.4166 380.39Z" fill="url(#paint0_linear)"/>
<path d="M123.665 395.804C120.763 396.565 105.027 397.862 100.629 397.499C96.2307 397.135 90.4065 395.611 88.7496 393.621C87.0927 391.631 77.804 388.625 75.3136 388.817C74.2928 388.838 73.2742 388.741 72.3011 388.529C70.583 388.173 68.9049 387.733 67.2802 387.211C67.0533 386.346 67.0909 385.458 67.3906 384.603C67.4485 384.431 67.5223 384.261 67.6115 384.096C68.1976 382.97 69.4101 382.047 70.9856 381.529L71.3471 381.412C72.0433 381.207 72.7708 381.055 73.5161 380.959C81.409 379.923 113.975 382.002 113.975 382.002C113.975 382.002 114.888 383.121 116.144 384.507C117.71 386.223 119.839 388.316 121.446 389.105C123.226 390.145 124.433 391.569 124.87 393.141C125.252 394.355 124.97 395.467 123.665 395.804Z" fill="white"/>
<path opacity="0.1" d="M123.665 395.804C120.763 396.565 105.037 397.862 100.639 397.499C96.2408 397.135 90.4166 395.605 88.7496 393.621C87.0827 391.638 77.8141 388.625 75.3237 388.817C72.8333 389.009 67.2902 387.211 67.2902 387.211C67.2902 387.211 66.4267 384.466 68.9371 382.593L73.958 385.029C73.958 385.029 87.394 387.877 89.8843 390.519C92.3747 393.161 96.9136 394.637 103.471 394.905C108.371 395.124 119.628 393.82 124.9 393.168C125.252 394.356 124.981 395.467 123.665 395.804Z" fill="black"/>
<path d="M75.5948 399.303C69.6716 399.225 63.7472 399.415 57.8609 399.873C48.4317 400.628 41.2317 397.814 39.9765 396.654C38.7212 395.495 32.2242 391.576 27.2334 390.203C24.7932 389.558 24.2208 387.458 24.3313 385.495C24.3313 385.393 24.3313 385.276 24.3313 385.173C24.4238 383.93 24.6928 382.695 25.1346 381.488L64.2074 380.918L67.5915 384.054L68.1136 384.535L70.1722 386.449C70.1722 386.449 71.1061 387.287 72.3312 388.508C74.3998 390.567 77.2919 393.607 78.0651 395.618C79.3002 398.837 75.5948 399.303 75.5948 399.303Z" fill="white"/>
<path opacity="0.1" d="M75.5948 399.304C69.6716 399.225 63.7472 399.415 57.8609 399.873C48.4417 400.628 41.2317 397.814 39.9865 396.655C38.7413 395.495 32.2242 391.542 27.2334 390.217C24.7932 389.572 24.2208 387.472 24.3313 385.509C27.1229 385.955 32.9873 387.095 35.2869 389.078C38.2995 391.727 43.6919 396.181 51.3538 396.462C57.5396 396.689 72.6023 395.934 78.1253 395.632C79.3102 398.837 75.5948 399.304 75.5948 399.304Z" fill="black"/>
<path opacity="0.1" d="M70.9454 381.501C70.4935 383.794 69.0977 384.411 68.0936 384.549C67.8482 384.581 67.5959 384.581 67.3505 384.549C67.2185 384.542 67.0875 384.528 66.9588 384.507C66.9588 384.507 31.8727 389.805 24.7832 385.516C24.6032 385.406 24.4354 385.287 24.2811 385.159C24.3736 383.916 24.6426 382.682 25.0844 381.474L64.1572 380.904L67.5412 384.041C68.1273 382.915 69.3398 381.992 70.9153 381.474L70.9454 381.501Z" fill="black"/>
<path opacity="0.1" d="M116.134 384.48C115.35 385.07 114.698 385.406 114.286 385.29C112.438 384.782 97.2952 383.018 92.4852 384.535C87.6751 386.051 71.3973 384.782 71.3973 384.782C71.3973 384.782 71.3973 383.464 71.3069 381.35C72.0031 381.145 72.7306 380.993 73.476 380.897C81.3689 379.861 113.934 381.941 113.934 381.941C113.934 381.941 114.888 383.094 116.134 384.48Z" fill="black"/>
<path d="M139.049 229.243L134.611 250.202L129.449 264.093L122.058 290.35V318.144C122.058 318.144 126.858 373.444 125.011 374.954C123.163 376.464 116.144 385.063 114.296 384.562C112.448 384.061 97.3052 382.291 92.4952 383.8C87.6852 385.31 71.4074 384.054 71.4074 384.054C71.4074 384.054 71.0358 362.594 69.1881 356.534C67.3404 350.475 72.512 324.719 72.512 324.719L74.3597 310.835C74.3597 310.835 76.9505 301.488 74.7312 298.962C72.512 296.437 78.055 286.609 78.055 286.609C78.055 286.609 75.4743 281.044 76.2174 277.763C76.9605 274.483 78.055 262.109 78.055 262.109C78.055 262.109 76.2174 270.701 71.0861 275.746C65.9547 280.79 66.6074 325.995 66.6074 325.995L66.9689 365.113C76.2174 385.825 66.9689 383.8 66.9689 383.8C66.9689 383.8 31.8828 389.105 24.7933 384.809C17.7037 380.513 19.7322 353.474 19.7322 353.474C19.7322 353.474 18.9991 331.76 21.9514 325.199C24.9037 318.638 25.8376 294.392 25.8376 294.392C25.8376 294.392 25.6468 245.906 25.8376 242.633C25.9782 239.887 25.8376 215.312 25.8376 207.632C25.8376 206.205 25.8376 205.361 25.8376 205.361L30.0752 198.169L80.2843 193.872H104.304C104.304 193.872 140.455 199.678 144.19 202.183C144.27 202.225 144.338 202.276 144.391 202.334C146.811 204.757 139.049 229.243 139.049 229.243Z" fill="#35FCEF"/>
<path opacity="0.1" d="M78.0852 339.336C78.0852 339.336 89.1312 357.516 94.3429 358.779C99.5546 360.041 78.0852 339.336 78.0852 339.336Z" fill="black"/>
<path opacity="0.1" d="M82.1722 366.101C82.1722 366.101 119.468 367.364 119.096 370.144C118.724 372.923 82.1722 366.101 82.1722 366.101Z" fill="black"/>
<path opacity="0.1" d="M32.2744 358.834C33.7505 359.787 60.7229 361.579 58.5036 363.322C56.2844 365.065 34.4936 368.455 34.4936 368.455L32.2744 358.834Z" fill="black"/>
<path opacity="0.1" d="M27.8459 327.471C27.8459 328.225 33.389 351.71 34.8752 352.719C36.3614 353.728 48.5422 354.736 48.5422 354.736L27.8459 327.471Z" fill="black"/>
<path d="M68.0635 6.47016C62.7714 10.5123 60.4819 16.2428 54.3162 19.6605C50.5706 21.7193 45.8309 22.7007 41.4727 24.1007C37.1146 25.5007 32.7966 27.635 31.5012 30.8056C30.0552 34.3743 32.8468 38.0184 34.3129 41.5871C35.8292 45.2793 35.9196 49.1362 36.01 52.9999C36.1104 57.6735 36.2208 62.347 36.1003 67.0206C35.9196 74.302 35.0359 81.9197 29.3824 88.0894C49.7974 92.5296 71.5078 93.1336 92.917 93.7032C97.0312 93.9038 101.164 93.8325 105.258 93.4904C108.806 93.0073 112.315 92.4003 115.772 91.6718C122.607 90.4359 129.65 89.8198 136.719 89.8394C139.802 89.8394 142.945 89.9698 145.918 89.4208C148.89 88.8718 151.752 87.4649 152.555 85.4335C153.268 83.608 152.224 81.6658 150.858 80.0256C148.368 77.0334 144.833 74.5354 142.162 71.5844C139.435 68.4673 137.817 64.9561 137.439 61.3337C137.061 57.7112 137.932 54.0786 139.983 50.7283C142.353 46.9607 146.169 43.6802 148.498 39.9057C150.885 35.8531 151.519 31.4176 150.327 27.1258C149.134 22.8341 146.164 18.8664 141.77 15.6938C133.667 10.0251 122.038 7.82899 110.912 6.66232C106.227 6.28413 101.758 5.10387 97.9178 3.23092C93.65 1.30933 88.117 0.842654 83.1161 1.26815C77.3471 1.70995 72.0036 3.55658 68.0635 6.47016Z" fill="#3F3D56"/>
<g opacity="0.1">
<path opacity="0.1" d="M140.294 46.7685C138.247 50.0755 137.37 53.6658 137.734 57.248C137.959 54.6864 138.825 52.1702 140.294 49.8087C142.654 46.041 146.47 42.7606 148.8 38.9861C150.704 35.8343 151.505 32.4221 151.139 29.0213C150.932 31.405 150.142 33.748 148.8 35.9527C146.47 39.7273 142.654 43.0008 140.294 46.7685Z" fill="black"/>
<path opacity="0.1" d="M36.3112 52.0666C36.3715 54.7568 36.4317 57.4539 36.4418 60.1441C36.4418 56.4382 36.3916 52.7392 36.3112 49.0401C36.2309 45.2038 36.1305 41.3195 34.6142 37.6204C33.61 35.2733 32.1238 32.892 31.6016 30.5243C30.7079 33.8871 33.2485 37.2979 34.6142 40.6538C36.1305 44.3185 36.2309 48.2303 36.3112 52.0666Z" fill="black"/>
<path opacity="0.1" d="M146.259 85.4953C143.247 86.0512 140.154 85.9276 137.071 85.9139C130.007 85.8832 122.967 86.4878 116.134 87.712C112.676 88.4373 109.167 89.042 105.62 89.5237C101.523 89.8714 97.3862 89.945 93.2684 89.7433C72.5823 89.1875 51.6049 88.5904 31.7924 84.5482C31.2042 85.4456 30.5334 86.3166 29.784 87.1561C50.199 91.5894 71.9094 92.2002 93.3086 92.7698C97.4264 92.9715 101.563 92.8979 105.66 92.5502C109.195 92.0732 112.691 91.4707 116.134 90.7453C122.953 89.5166 129.979 88.9051 137.031 88.9267C140.113 88.9267 143.247 89.0571 146.219 88.5012C149.191 87.9453 152.053 86.5521 152.857 84.5207C153.195 83.5799 153.16 82.5945 152.756 81.6658C151.862 83.5874 149.101 84.9257 146.259 85.4953Z" fill="black"/>
</g>
<path d="M116.515 77.3628C115.772 78.502 112.639 88.3433 111.896 89.3521C111.153 90.361 107.096 106.509 106.724 107.415C106.353 108.321 79.9831 103.627 79.9831 103.627L64.107 94.5335L47.789 83.4364C47.789 83.4364 47.307 73.4236 59.327 70.2118C60.144 69.9925 60.983 69.8137 61.8375 69.6765C76.4182 67.2814 74.9521 36.9821 74.9521 36.9821L104.877 45.8145C104.877 45.8145 99.3336 63.4931 99.5244 66.9039C99.5747 68.05 100.89 68.7637 102.607 69.1961C105.262 69.7123 108.026 69.9165 110.781 69.8C110.781 69.8 117.258 76.2304 116.515 77.3628Z" fill="#FBBEBE"/>
<path d="M170.088 110.565L174.336 111.327C174.336 111.327 177.479 114.594 170.088 117.634C165.395 119.582 160.891 121.734 156.602 124.078L134.761 128.621L130.554 119.597L150.878 109.055L170.088 110.565Z" fill="#35FCEF"/>
<path opacity="0.1" d="M170.088 110.565L174.336 111.327C174.336 111.327 177.479 114.594 170.088 117.634C165.395 119.582 160.891 121.734 156.602 124.078L134.761 128.621L130.554 119.597L150.878 109.055L170.088 110.565Z" fill="black"/>
<path d="M10.6946 119.281L2.19919 124.963C2.19919 124.963 17.523 137.083 29.3121 137.838C41.1012 138.593 48.7028 128.621 48.7028 128.621L38.5004 117.641L10.6946 119.281Z" fill="#35FCEF"/>
<path opacity="0.1" d="M10.6946 119.281L2.19919 124.963C2.19919 124.963 17.523 137.083 29.3121 137.838C41.1012 138.593 48.7028 128.621 48.7028 128.621L38.5004 117.641L10.6946 119.281Z" fill="black"/>
<path opacity="0.1" d="M91.3906 56.7813C107.712 56.7813 120.944 47.7387 120.944 36.5841C120.944 25.4295 107.712 16.3868 91.3906 16.3868C75.0689 16.3868 61.8375 25.4295 61.8375 36.5841C61.8375 47.7387 75.0689 56.7813 91.3906 56.7813Z" fill="black"/>
<path d="M91.3906 55.2646C107.712 55.2646 120.944 46.222 120.944 35.0674C120.944 23.9128 107.712 14.8702 91.3906 14.8702C75.0689 14.8702 61.8375 23.9128 61.8375 35.0674C61.8375 46.222 75.0689 55.2646 91.3906 55.2646Z" fill="#FBBEBE"/>
<path opacity="0.1" d="M144.411 204.627C137.682 205.153 131.054 206.167 124.639 207.653C113.593 210.165 27.0326 207.694 25.8276 207.653C25.8276 206.226 25.8276 205.382 25.8276 205.382L30.0652 198.189L80.2743 193.893H104.294C104.294 193.893 140.445 199.699 144.18 202.204C144.331 203.714 144.411 204.627 144.411 204.627Z" fill="black"/>
<path opacity="0.1" d="M116.515 77.3628C115.772 78.502 112.639 88.3432 111.896 89.3521C111.153 90.3609 107.096 106.509 106.724 107.415C106.353 108.321 79.9831 103.627 79.9831 103.627L64.107 94.5335L47.789 83.4363C47.789 83.4363 47.307 73.4235 59.327 70.2117L89.1713 93.6619L102.607 69.196C105.262 69.7123 108.026 69.9165 110.781 69.8C110.781 69.8 117.258 76.2304 116.515 77.3628Z" fill="black"/>
<path d="M89.1713 94.4169L58.6241 70.3971C56.836 69.617 54.7923 69.1528 52.6767 69.0462C50.5611 68.9396 48.4398 69.1939 46.5037 69.7863C39.6652 71.8108 31.1698 73.4511 28.9505 74.4599C26.7313 75.4687 18.4167 81.7139 18.4167 81.7139L43.1798 125.986L32.2744 155.146C32.2744 155.146 33.9414 170.045 29.6937 175.473C27.1073 178.944 25.8956 182.818 26.179 186.708C26.179 186.708 27.4744 193.907 25.9982 197.688C25.1357 200.217 25.0707 202.841 25.8075 205.388C25.8075 205.388 113.563 207.914 124.639 205.388C131.052 203.899 137.681 202.884 144.411 202.362C144.411 202.362 142.403 177.107 140.395 171.047C138.386 164.987 142.062 141.887 142.062 141.887L139.662 117.14L154.062 91.7473C154.062 91.7473 146.259 75.4687 138.125 73.8285C138.125 73.8285 123.354 71.4265 120.211 70.2942C117.068 69.1618 107.829 68.1461 107.829 68.1461L102.979 69.2579L89.1713 94.4169Z" fill="#35FCEF"/>
<path opacity="0.1" d="M131.791 116.304L67.5113 113.317C65.8845 113.241 64.4762 114.081 64.3655 115.193L57.4645 184.553C57.3539 185.665 58.5829 186.627 60.2097 186.703L124.49 189.69C126.116 189.766 127.525 188.926 127.635 187.814L134.536 118.454C134.647 117.342 133.418 116.38 131.791 116.304Z" fill="black"/>
<path d="M134.005 114.798L69.7247 111.81C68.0979 111.735 66.6895 112.575 66.5789 113.687L59.6778 183.047C59.5672 184.158 60.7963 185.121 62.423 185.196L126.703 188.184C128.33 188.259 129.738 187.419 129.849 186.307L136.75 116.947C136.86 115.836 135.631 114.873 134.005 114.798Z" fill="#3F3D56"/>
<path d="M131.883 120.234L70.7493 117.393L64.4668 180.536L125.601 183.377L131.883 120.234Z" fill="white"/>
<path opacity="0.1" d="M126.402 136.351L76.4637 133.962L75.4895 143.474L125.427 145.863L126.402 136.351Z" fill="black"/>
<path opacity="0.1" d="M124.595 174.151L116.67 173.783L116.177 178.74L124.101 179.108L124.595 174.151Z" fill="black"/>
<path opacity="0.1" d="M116.778 162.187L76.2121 160.302L75.7189 165.259L116.285 167.144L116.778 162.187Z" fill="black"/>
<path d="M124.317 117.874L82.0779 115.911L81.3197 123.531L123.558 125.494L124.317 117.874Z" fill="#3F3D56"/>
<path opacity="0.1" d="M124.317 117.874L82.0779 115.911L81.3197 123.531L123.558 125.494L124.317 117.874Z" fill="black"/>
<path opacity="0.1" d="M92.8667 203.233C92.8667 203.233 92.4952 240.608 78.0852 262.068C78.0852 262.068 95.4575 233.787 95.4575 232.654C95.4575 231.522 105.058 219.649 102.487 216.115C99.9161 212.581 92.8667 203.233 92.8667 203.233Z" fill="black"/>
<path opacity="0.1" d="M93.65 30.0164C93.0979 26.7084 94.283 23.3739 96.9939 20.6075C96.6716 23.3803 97.8189 26.1398 100.227 28.3825C102.634 30.6251 106.142 32.2013 110.109 32.8233C109.77 32.6225 109.528 32.3564 109.415 32.0599C109.303 31.7635 109.324 31.4506 109.476 31.1625C111.534 32.7546 113.111 34.6419 115.441 36.0419C117.77 37.4419 121.265 38.2792 124.006 37.2841C127.732 35.9115 127.772 32.2948 126.808 29.4811C124.739 23.4889 120.495 17.9494 114.467 13.3741C112.963 11.9911 111.01 10.8649 108.763 10.0839C106.516 9.3028 104.034 8.88805 101.513 8.87212C95.809 8.57016 89.8843 8.91329 84.773 10.6633C81.8966 11.736 79.2025 13.0225 76.7396 14.4996L62.681 22.3369C61.3284 23.003 60.1703 23.8363 59.2668 24.7938C58.6635 25.5943 58.3015 26.4694 58.2024 27.3673C57.8432 29.9341 58.5381 32.5185 60.2091 34.8303C61.88 37.1421 64.4609 39.0898 67.6618 40.4547C67.5941 38.426 68.4104 36.4294 70.0072 34.7186C71.6039 33.0078 73.9089 31.6601 76.6291 30.8468C77.0552 31.0903 77.4001 31.3932 77.6409 31.7353C77.8816 32.0774 78.0125 32.4507 78.0249 32.8301L80.9873 29.2203C81.4279 28.5634 82.1222 28.0011 82.9956 27.5938C84.8232 26.9075 87.1027 27.7174 88.6592 28.685C90.2157 29.6527 91.732 30.8605 93.8207 31.0115L93.901 25.6379" fill="black"/>
<path d="M93.65 29.2614C93.0964 25.9512 94.2815 22.6142 96.9939 19.8457C96.0902 25.3359 102.145 31.0046 110.119 32.0615C109.78 31.8624 109.538 31.5974 109.425 31.302C109.312 31.0065 109.333 30.6945 109.486 30.4075C111.545 31.9997 113.121 33.8801 115.451 35.287C117.781 36.6939 121.275 37.5243 124.016 36.5223C127.742 35.1497 127.782 31.533 126.818 28.7261C124.749 22.7339 120.505 17.1944 114.477 12.6192C112.606 11.0609 110.249 9.80873 107.578 8.95443C105.644 8.46566 103.612 8.18326 101.553 8.11717C95.8492 7.81521 89.9245 8.15149 84.8132 9.9015C81.9387 10.979 79.245 12.2677 76.7798 13.7447L62.7212 21.582C61.3664 22.2463 60.2079 23.0799 59.307 24.0389C58.7024 24.839 58.3404 25.7144 58.2426 26.6124C57.8842 29.1782 58.5795 31.7614 60.2505 34.072C61.9214 36.3826 64.5018 38.3291 67.7019 39.6929C67.6369 37.6646 68.4544 35.6688 70.0508 33.9583C71.6472 32.2479 73.9507 30.8998 76.6693 30.085C77.0939 30.3294 77.4378 30.6325 77.6784 30.9744C77.919 31.3162 78.0508 31.6891 78.0651 32.0683L81.0174 28.4722C81.4554 27.8142 82.1503 27.2514 83.0258 26.8457C84.8534 26.1595 87.1329 26.9693 88.6894 27.9369C90.2458 28.9046 91.7621 30.1056 93.8508 30.2634L93.9312 24.883" fill="#3F3D56"/>
<path d="M107.648 156.656C105.068 155.763 62.3898 160.313 62.3898 160.313C62.3898 160.313 55.3605 158.941 38.3698 157.033C21.379 155.125 20.2945 143.774 20.2945 143.774L18.4368 121.051L24.1707 117.62L48.733 128.6C48.733 128.6 49.1145 134.152 48.733 135.154C48.4919 135.841 47.8493 136.657 47.9095 137.213C47.9282 137.364 48.0189 137.506 48.1678 137.618C48.3167 137.729 48.5154 137.804 48.733 137.831C50.3999 138.119 73.1145 140.631 73.1145 140.631C73.1145 140.631 125.764 138.167 138.888 150.287C139.928 151.177 140.715 152.191 141.208 153.279C144.462 161.562 109.988 157.445 107.648 156.656Z" fill="#FBBEBE"/>
<path opacity="0.1" d="M141.238 153.327C139.23 153.938 137.985 154.377 137.985 154.377C137.985 154.377 119.146 154 108.562 151.378C97.978 148.757 85.1144 149.223 85.1144 149.223C85.1144 149.223 41.0108 144.035 47.8492 137.261C47.8679 137.412 47.9587 137.554 48.1075 137.666C48.2564 137.777 48.4551 137.852 48.6727 137.879C50.3396 138.167 73.0542 140.679 73.0542 140.679C73.0542 140.679 125.703 138.215 138.828 150.335C139.9 151.22 140.718 152.235 141.238 153.327Z" fill="black"/>
<path d="M159.554 113.344C159.554 113.344 162.145 125.842 162.326 126.857C162.507 127.873 163.441 140.109 162.326 141.503C161.211 142.896 159.554 145.16 159.554 145.16C159.554 145.16 161.402 147.809 154.011 148.825C146.621 149.841 137.944 152.86 137.944 152.86C137.944 152.86 119.096 152.483 108.572 149.834C98.0483 147.185 85.1144 147.686 85.1144 147.686C85.1144 147.686 29.1313 141.118 53.1513 133.102C77.1713 125.087 94.1621 135.944 94.1621 135.944L120.944 134.811C120.944 134.811 130.925 130.639 133.697 131.023C135.654 131.193 137.641 130.974 139.421 130.392L139.611 117.133L159.554 113.344Z" fill="#FBBEBE"/>
<path opacity="0.1" d="M23.7489 82.6678L18.3866 82.4756L2.13892 125.711C2.13892 125.711 19.682 122.678 27.2435 125.711C34.805 128.745 48.6727 129.369 48.6727 129.369L43.5012 94.9041L23.7489 82.6678Z" fill="black"/>
<path d="M23.7489 81.9059L18.3866 81.7138L2.13892 124.949C2.13892 124.949 19.682 121.916 27.2435 124.949C34.805 127.983 48.6727 128.607 48.6727 128.607L43.5012 94.1423L23.7489 81.9059Z" fill="#35FCEF"/>
<path opacity="0.1" d="M146.631 91.3766L154.011 92.5159C154.011 92.5159 172.86 111.045 174.336 112.082C175.812 113.118 167.307 116.886 163.802 116.886C160.298 116.886 143.116 118.258 138.125 121.429C133.134 124.599 135.213 108.643 135.213 108.28C135.213 107.916 141.409 97.8483 141.409 97.8483L146.631 91.3766Z" fill="black"/>
<path d="M146.631 90.6217L154.011 91.754C154.011 91.754 172.86 110.318 174.336 111.327C175.812 112.336 167.307 116.131 163.802 116.131C160.298 116.131 143.116 117.503 138.125 120.674C133.134 123.844 135.213 107.888 135.213 107.525C135.213 107.161 141.449 97.059 141.449 97.059L146.631 90.6217Z" fill="#35FCEF"/>
<g opacity="0.1">
<path opacity="0.1" d="M96.9438 19.9075C96.9003 19.3813 96.9171 18.8536 96.994 18.3291C95.465 19.897 94.4132 21.6591 93.9011 23.5105V25.1027C93.9011 25.1027 93.9011 25.0684 93.9011 25.0478V25.4252C93.9011 26.537 93.9011 27.6556 93.8509 28.7674H93.7103V29.2821C93.7103 29.1037 93.7103 28.9321 93.6601 28.7537C91.6517 28.5341 90.2157 27.3811 88.7195 26.4615C87.2233 25.5419 84.8835 24.6635 83.0559 25.3703C82.1804 25.776 81.4855 26.3388 81.0475 26.9968L78.0651 30.5929C78.052 30.2145 77.9206 29.8424 77.6799 29.5015C77.4392 29.1606 77.0946 28.8589 76.6693 28.6164C73.9491 29.4298 71.6441 30.7775 70.0474 32.4883C68.4507 34.1991 67.6342 36.1957 67.702 38.2243C64.9583 37.0495 62.6632 35.4453 61.0061 33.5443C59.3491 31.6433 58.3777 29.5002 58.1723 27.2919C57.9977 29.7577 58.7888 32.2106 60.464 34.3978C62.1392 36.5849 64.6377 38.427 67.702 39.7342C67.6369 37.7059 68.4544 35.71 70.0508 33.9996C71.6472 32.2891 73.9507 30.9411 76.6693 30.1263C77.0939 30.3706 77.4378 30.6737 77.6784 31.0156C77.919 31.3575 78.0508 31.7304 78.0651 32.1096L81.0174 28.5135C81.4554 27.8555 82.1503 27.2927 83.0258 26.887C84.8534 26.2007 87.1329 27.0105 88.6894 27.9782C90.2459 28.9458 91.7622 30.1468 93.8509 30.3047C93.8509 28.5478 93.8777 26.7955 93.9312 25.0478C94.4239 23.2142 95.4481 21.4665 96.9438 19.9075Z" fill="black"/>
<path opacity="0.1" d="M93.5496 26.8183C93.5998 26.3517 93.6801 25.885 93.7805 25.4458L93.891 23.5516C93.5891 24.6275 93.4745 25.724 93.5496 26.8183Z" fill="black"/>
<path opacity="0.1" d="M124.016 35.0057C121.275 36.0077 117.78 35.1704 115.451 33.7704C113.121 32.3704 111.545 30.4831 109.486 28.8909C109.334 29.179 109.313 29.4919 109.425 29.7884C109.538 30.0848 109.78 30.351 110.119 30.5517C109.918 30.5517 109.727 30.4831 109.536 30.4488C111.545 32.0272 113.141 33.8802 115.451 35.2528C117.76 36.6253 121.275 37.49 124.016 36.4881C126.758 35.4861 127.541 33.139 127.3 30.8537C127.119 32.6518 126.175 34.2096 124.016 35.0057Z" fill="black"/>
<path opacity="0.1" d="M109.476 30.435C106.118 29.8096 103.12 28.4976 100.883 26.6749C98.6471 24.8522 97.2795 22.6058 96.9638 20.2369C96.3914 25.6242 102.336 31.0253 110.119 32.0615C109.787 31.8648 109.549 31.605 109.434 31.3153C109.32 31.0256 109.334 30.7191 109.476 30.435Z" fill="black"/>
</g>
<defs>
<linearGradient id="paint0_linear" x1="87.4944" y1="396.462" x2="87.4944" y2="0.0327971" gradientUnits="userSpaceOnUse">
<stop stop-color="#808080" stop-opacity="0.25"/>
<stop offset="0.54" stop-color="#808080" stop-opacity="0.12"/>
<stop offset="1" stop-color="#808080" stop-opacity="0.1"/>
</linearGradient>
</defs>
</svg>
